<svg xmlns="http://www.w3.org/2000/svg" viewBox="0 11.100000381469727 164.14999389648438 63.55000305175781" data-asc="1.13"><g fill="#000000"><g fill="#000000" transform="translate(0, 0)"><path d="M20.85 60.85Q18.85 60.85 17.50 60.17Q16.15 59.50 16.15 58.55Q16.15 57.70 17.05 57.17Q17.95 56.65 19.40 56.65Q21.50 56.65 23.23 57.32Q24.95 58.00 26.55 58.85Q28.15 59.70 29.93 60.37Q31.70 61.05 33.85 61.05Q36 61.05 38.53 60.25Q41.05 59.45 43.65 58.02Q46.25 56.60 48.73 54.62Q51.20 52.65 53.25 50.35L55.30 48.05L55.80 48.05L53.60 50.50Q51.30 53.05 48.80 55.07Q46.30 57.10 43.70 58.55Q41.10 60.00 38.63 60.77Q36.15 61.55 33.95 61.55Q31.60 61.55 29.83 60.87Q28.05 60.20 26.45 59.35Q24.85 58.50 23.18 57.82Q21.50 57.15 19.40 57.15Q18.20 57.15 17.43 57.55Q16.65 57.95 16.65 58.55Q16.65 59.35 17.85 59.85Q19.05 60.35 20.85 60.35Q24.35 60.35 28.15 58.82Q31.95 57.30 35.70 54.65Q39.45 52.00 42.80 48.57Q46.15 45.15 48.75 41.32Q51.35 37.50 52.85 33.60Q54.35 29.70 54.35 26.15Q54.35 16.35 45.85 16.35Q42.80 16.35 39.25 17.70Q35.70 19.05 32.08 21.37Q28.45 23.70 25.15 26.67Q21.85 29.65 19.23 32.87Q16.60 36.10 15.08 39.27Q13.55 42.45 13.55 45.15Q13.55 47.00 14.63 48.02Q15.70 49.05 17.70 49.05Q19.60 49.05 22.15 47.90Q24.70 46.75 27.50 44.80Q30.30 42.85 33 40.47Q35.70 38.10 37.88 35.60Q40.05 33.10 41.35 30.82Q42.65 28.55 42.65 26.90Q42.65 24.60 40 24.60Q38.20 24.60 35.83 25.90Q33.45 27.20 30.88 29.40Q28.30 31.60 25.83 34.32Q23.35 37.05 21.38 39.92Q19.40 42.80 18.23 45.45Q17.05 48.10 17.05 50.10Q17.05 51.70 18.25 52.70Q19.45 53.70 21.35 53.70Q24.45 53.70 27.70 52.40Q30.95 51.10 34.08 48.80Q37.20 46.50 39.95 43.50Q42.70 40.50 44.78 37.07Q46.85 33.65 48.05 30.10Q49.25 26.55 49.25 23.15Q49.25 17.50 46.45 14.55Q43.65 11.60 38.40 11.60Q33.60 11.60 28.93 13.05Q24.25 14.50 20 17.10Q15.75 19.70 12.20 23.22Q8.65 26.75 6.03 30.95Q3.40 35.15 1.95 39.75Q0.50 44.35 0.50 49.15Q0.50 54.85 2.48 59.45Q4.45 64.05 8.10 67.32Q11.75 70.60 16.88 72.38Q22.00 74.15 28.30 74.15Q32.55 74.15 36.70 73.38Q40.85 72.60 44.50 71.15Q48.15 69.70 50.90 67.75L51.15 68.20Q48.35 70.20 44.63 71.65Q40.90 73.10 36.73 73.88Q32.55 74.65 28.30 74.65Q21.85 74.65 16.65 72.85Q11.45 71.05 7.73 67.70Q4.00 64.35 2.00 59.65Q0 54.95 0 49.15Q0 44.30 1.48 39.60Q2.95 34.90 5.60 30.65Q8.25 26.40 11.85 22.85Q15.45 19.30 19.75 16.65Q24.05 14.00 28.78 12.55Q33.50 11.10 38.40 11.10Q43.90 11.10 46.83 14.22Q49.75 17.35 49.75 23.15Q49.75 26.75 48.58 30.45Q47.40 34.15 45.33 37.62Q43.25 41.10 40.50 44.10Q37.75 47.10 34.55 49.37Q31.35 51.65 27.98 52.92Q24.60 54.20 21.30 54.20Q19.15 54.20 17.85 53.07Q16.55 51.95 16.55 50.10Q16.55 48.00 17.73 45.27Q18.90 42.55 20.93 39.62Q22.95 36.70 25.43 33.95Q27.90 31.20 30.55 28.97Q33.20 26.75 35.65 25.42Q38.10 24.10 40 24.10Q43.35 24.10 43.35 27.35Q43.35 29.20 42.05 31.52Q40.75 33.85 38.58 36.35Q36.40 38.85 33.70 41.20Q31.00 43.55 28.10 45.42Q25.20 47.30 22.50 48.42Q19.80 49.55 17.70 49.55Q15.45 49.55 14.25 48.40Q13.05 47.25 13.05 45.15Q13.05 42.35 14.60 39.12Q16.15 35.90 18.78 32.60Q21.40 29.30 24.78 26.30Q28.15 23.30 31.83 20.95Q35.50 18.60 39.13 17.22Q42.75 15.85 45.85 15.85Q49.30 15.85 51.85 17.40Q54.40 18.95 55.80 21.72Q57.20 24.50 57.20 28.30Q57.20 32.05 55.70 35.90Q54.20 39.75 51.50 43.37Q48.80 47.00 45.28 50.17Q41.75 53.35 37.68 55.75Q33.60 58.15 29.33 59.50Q25.05 60.85 20.85 60.85ZM61.30 41.35L65.20 41.35Q64.10 41.90 62.40 43.35Q60.70 44.80 58.85 46.62Q57.00 48.45 55.38 50.30Q53.75 52.15 52.73 53.62Q51.70 55.10 51.70 55.70Q51.70 56.65 52.50 56.65Q53.45 56.65 55.30 55.42Q57.15 54.20 59.50 52.05Q61.85 49.90 64.20 47.25L64.75 47.25Q60.40 51.85 57.18 54.40Q53.95 56.95 52.45 56.95Q51.85 56.95 51.53 56.55Q51.20 56.15 51.20 55.50Q51.20 54.20 52.13 52.47Q53.05 50.75 55.25 48.10Q57.45 45.45 61.30 41.35M60.90 56.95Q59.45 56.95 59.45 55.45Q59.45 53.55 61.85 50.22Q64.25 46.90 69.55 41.35L73.45 41.35Q72.80 41.70 71.88 42.37Q70.95 43.05 69.80 44.20Q66.30 47.70 64.20 49.95Q62.10 52.20 61.15 53.52Q60.20 54.85 60.20 55.65Q60.20 56.65 60.95 56.65Q61.85 56.65 63.50 55.55Q65.15 54.45 67.18 52.65Q69.20 50.85 71.15 48.70L71.75 48.05L72.25 48.05L71.80 48.55Q69.65 51.00 67.53 52.90Q65.40 54.80 63.65 55.87Q61.90 56.95 60.90 56.95ZM70.60 56.85Q68.95 56.85 68.95 54.30Q68.95 52.60 69.95 50.70Q70.95 48.80 72.65 47.02Q74.35 45.25 76.45 43.80Q78.55 42.35 80.78 41.50Q83 40.65 85 40.65Q86.70 40.65 86.70 41.95Q86.70 43.15 85.15 45.02Q83.60 46.90 81.25 49.35Q79.40 51.25 77.35 52.97Q75.30 54.70 73.53 55.77Q71.75 56.85 70.60 56.85M70.65 56.50Q71.60 56.50 73.22 55.55Q74.85 54.60 76.88 52.92Q78.90 51.25 81 49.10Q83.35 46.65 84.80 44.87Q86.25 43.10 86.25 42.00Q86.25 41.15 85.15 41.15Q84.15 41.15 82.63 41.95Q81.10 42.75 79.38 44.07Q77.65 45.40 75.95 47.00Q74.25 48.60 72.85 50.25Q71.45 51.90 70.60 53.32Q69.75 54.75 69.75 55.70Q69.75 56.50 70.65 56.50M90.95 48.05L90.50 48.55Q88.45 50.90 86.33 52.82Q84.20 54.75 82.42 55.85Q80.65 56.95 79.60 56.95Q79.05 56.95 78.63 56.52Q78.20 56.10 78.20 55.45Q78.20 53.75 80.05 50.90Q81.90 48.05 85.20 44.65L85.45 44.65L88.45 41.35L92.30 41.35Q91.40 41.85 90.45 42.60Q89.50 43.35 88.65 44.20Q84.95 47.90 82.83 50.12Q80.70 52.35 79.80 53.60Q78.90 54.85 78.90 55.65Q78.90 56.65 79.70 56.65Q80.60 56.65 82.20 55.62Q83.80 54.60 85.83 52.80Q87.85 51.00 89.90 48.70L90.45 48.05L90.95 48.05ZM88.75 56.95Q87 56.95 87 55.00Q87 51.95 90.45 48.05L121.65 12.80L125.75 12.80Q124.70 13.30 122.58 15.22Q120.45 17.15 117.70 20.00Q114.95 22.85 111.95 26.20L93.30 47.25Q90.35 50.60 89.17 52.42Q88 54.25 88 55.50Q88 56.65 88.90 56.65Q90.60 56.65 93.53 54.52Q96.45 52.40 99.70 48.70L100.25 48.05L100.75 48.05L100.30 48.55Q96.75 52.60 93.78 54.77Q90.80 56.95 88.75 56.95ZM97.60 56.95Q97 56.95 96.58 56.52Q96.15 56.10 96.15 55.45Q96.15 53.55 98.55 50.22Q100.95 46.90 106.25 41.35L110.15 41.35Q109.50 41.70 108.58 42.42Q107.65 43.15 106.50 44.20Q102.95 47.65 100.83 49.90Q98.70 52.15 97.78 53.50Q96.85 54.85 96.85 55.65Q96.85 56.65 97.65 56.65Q98.55 56.65 100.22 55.57Q101.90 54.50 103.92 52.67Q105.95 50.85 107.85 48.70L108.45 48.05L108.95 48.05L108.50 48.55Q106.35 51.00 104.22 52.90Q102.10 54.80 100.35 55.87Q98.60 56.95 97.60 56.95M118.60 28.90Q119.15 28.90 119.15 29.30Q119.15 29.95 118.33 30.85Q117.50 31.75 116.45 32.42Q115.40 33.10 114.60 33.10Q114.10 33.10 114.10 32.70Q114.10 32.10 114.92 31.20Q115.75 30.30 116.83 29.60Q117.90 28.90 118.60 28.90ZM111.05 36.85L111.05 36.40L136.80 36.40L136.80 36.85L111.05 36.85M111.30 47.25Q108.40 50.50 107.20 52.37Q106 54.25 106 55.50Q106 56.65 106.90 56.65Q107.85 56.65 109.05 55.90Q110.25 55.15 112.03 53.42Q113.80 51.70 116.50 48.70L117.10 48.05L117.60 48.05L117.15 48.55Q113.10 53.15 110.73 55.05Q108.35 56.95 106.75 56.95Q105 56.95 105 55.00Q105 51.95 108.45 48.05Q109.45 46.85 110.35 45.77Q111.25 44.70 112.40 43.42Q113.55 42.15 115.25 40.32Q116.95 38.50 119.55 35.75Q122.15 33.00 125.95 29.00Q126.80 29.00 127.90 28.85Q129 28.70 130.10 28.40Q128.50 29.55 125.55 32.37Q122.60 35.20 118.90 39.05Q115.20 42.90 111.30 47.25ZM115.95 56.85Q114.30 56.85 114.30 54.30Q114.30 52.60 115.30 50.70Q116.30 48.80 118.00 47.02Q119.70 45.25 121.80 43.80Q123.90 42.35 126.13 41.50Q128.35 40.65 130.35 40.65Q132.05 40.65 132.05 41.95Q132.05 43.15 130.50 45.02Q128.95 46.90 126.60 49.35Q124.75 51.25 122.70 52.97Q120.65 54.70 118.88 55.77Q117.10 56.85 115.95 56.85M116.00 56.50Q116.95 56.50 118.58 55.55Q120.20 54.60 122.23 52.92Q124.25 51.25 126.35 49.10Q128.70 46.65 130.15 44.87Q131.60 43.10 131.60 42.00Q131.60 41.15 130.50 41.15Q129.50 41.15 127.98 41.95Q126.45 42.75 124.73 44.07Q123.00 45.40 121.30 47.00Q119.60 48.60 118.20 50.25Q116.80 51.90 115.95 53.32Q115.10 54.75 115.10 55.70Q115.10 56.50 116.00 56.50M136.30 48.05L135.85 48.55Q133.80 50.90 131.68 52.82Q129.55 54.75 127.78 55.85Q126.00 56.95 124.95 56.95Q124.40 56.95 123.98 56.52Q123.55 56.10 123.55 55.45Q123.55 53.75 125.40 50.90Q127.25 48.05 130.55 44.65L130.80 44.65L133.80 41.35L137.65 41.35Q136.75 41.85 135.80 42.60Q134.85 43.35 134 44.20Q130.30 47.90 128.18 50.12Q126.05 52.35 125.15 53.60Q124.25 54.85 124.25 55.65Q124.25 56.65 125.05 56.65Q125.95 56.65 127.55 55.62Q129.15 54.60 131.18 52.80Q133.20 51.00 135.25 48.70L135.80 48.05L136.30 48.05M136.20 28.90Q136.75 28.90 136.75 29.30Q136.75 29.95 135.93 30.85Q135.10 31.75 134.05 32.42Q133 33.10 132.20 33.10Q131.70 33.10 131.70 32.70Q131.70 32.10 132.53 31.20Q133.35 30.30 134.43 29.60Q135.50 28.90 136.20 28.90M141.60 28.90Q142.15 28.90 142.15 29.30Q142.15 29.95 141.33 30.85Q140.50 31.75 139.45 32.42Q138.40 33.10 137.60 33.10Q137.10 33.10 137.10 32.70Q137.10 32.10 137.93 31.20Q138.75 30.30 139.83 29.60Q140.90 28.90 141.60 28.90ZM138.40 36.85L138.40 36.40L164.15 36.40L164.15 36.85L138.40 36.85M138.65 47.25Q135.75 50.50 134.55 52.37Q133.35 54.25 133.35 55.50Q133.35 56.65 134.25 56.65Q135.20 56.65 136.40 55.90Q137.60 55.15 139.38 53.42Q141.15 51.70 143.85 48.70L144.45 48.05L144.95 48.05L144.50 48.55Q140.45 53.15 138.08 55.05Q135.70 56.95 134.10 56.95Q132.35 56.95 132.35 55.00Q132.35 51.95 135.80 48.05Q136.80 46.85 137.70 45.77Q138.60 44.70 139.75 43.42Q140.90 42.15 142.60 40.32Q144.30 38.50 146.90 35.75Q149.50 33.00 153.30 29.00Q154.15 29.00 155.25 28.85Q156.35 28.70 157.45 28.40Q155.85 29.55 152.90 32.37Q149.95 35.20 146.25 39.05Q142.55 42.90 138.65 47.25Z"/></g></g></svg>