<svg xmlns="http://www.w3.org/2000/svg" viewBox="0 14.25 148.39999389648438 38.28333282470703" data-asc="0.875"><g fill="#000000"><g fill="#000000" transform="translate(0, 0)"><path d="M20.40 50.30Q20.35 50.30 20.08 50.17Q19.80 50.05 19.75 50.05Q19.70 50.05 19.70 50.13Q19.70 50.20 19.65 50.20L19.55 50.10L19.45 50.25Q19.10 50.05 19.10 50Q19.00 50.05 18.95 50.05Q18.90 50 18.90 49.80L18.50 49.70Q18.45 49.70 18.40 49.77Q18.35 49.85 18.30 49.85Q18.15 49.85 18.00 49.70Q17.85 49.70 17.85 49.90L17.60 49.90Q17.55 49.90 17.25 49.73Q16.95 49.55 16.85 49.55Q16.80 49.55 16.63 49.63Q16.45 49.70 16.40 49.70L15.85 49.70Q15.45 49.30 15.30 49.30L15.15 49.45Q15.05 49.35 14.90 49.35L14.55 49.35Q14.40 49.25 13.90 49Q13.40 48.75 13.10 48.65Q13 48.65 13 48.75Q12.25 47.95 11.95 47.95L11.90 47.95Q11.90 48 11.85 48Q11.80 48 11.70 47.90L11.55 48Q11.50 47.75 11.33 47.70Q11.15 47.65 10.80 47.50Q10.75 47.50 10.68 47.38Q10.60 47.25 10.55 47.25Q10.50 47.25 10.47 47.30Q10.45 47.35 10.40 47.35L10 47.05L10 46.90Q9.50 46.75 9.45 46.65Q9.40 46.70 9.35 46.70Q9.30 46.40 9.10 46.40Q9 46.40 8.95 46.45Q8.75 46.10 8.60 46.10L8.60 45.95L8 45.70Q7.70 45.15 7.50 45.15L7.40 45.15Q7.35 45.20 7.25 45.20L6.80 44.75Q6.70 44.70 6.40 44.40L6.40 44.20Q6.30 44.10 6.15 44.10Q6.25 44 5.40 43.25Q5.35 43.10 5.25 42.83Q5.15 42.55 5.05 42.20Q5 42.20 4.95 42.25Q4.70 42 3.85 41.95Q3.85 41.80 3.80 41.75Q3.65 41.85 3.65 41.90Q3.65 41.90 3.65 41.90Q3.65 41.90 3.65 41.90Q3.65 41.90 3.65 41.90Q3.60 41.85 3.50 41.80Q3.40 41.75 3.20 41.70L2.60 41.50Q2.55 41.45 2.33 41.33Q2.10 41.20 1.70 40.95L1.30 40.45L1.20 40.55L0.90 40.35L0.90 40.20Q0.20 39.60 0 38.95Q0.10 38.70 0 37.70L0.65 36.75Q1.05 36.75 1.05 36.95Q1.05 37.20 0.78 37.40Q0.50 37.60 0.45 37.75Q0.60 37.90 0.75 37.90Q0.70 38 0.70 38.15Q0.70 38.45 1 38.75Q1.05 38.80 1.20 38.80Q1.20 38.80 1.28 38.80Q1.35 38.80 1.45 38.75L1.85 38.75L1.85 39.10Q2.15 39.60 2.30 39.60Q2.35 39.60 2.35 39.55Q2.30 39.50 2.35 39.50Q2.55 39.50 2.75 39.60Q3.00 40.05 3.25 40.05Q3.10 40.05 3.50 39.95L3.75 40.25Q4.05 40.10 4.05 39.95Q4.05 39.90 3.98 39.70Q3.90 39.50 3.85 39.45L3.85 39.25Q3.85 38.95 3.60 38.35L3.60 37.35L3.75 37Q3.70 36.95 3.70 36.85L3.85 36.20Q4.25 35.80 4 35.45Q4.05 35.40 4.50 35.10Q4.55 35.10 4.70 35.25L4.40 36.15Q4.35 36.15 4.25 36.25Q4.35 36.55 4.30 36.85L4.20 37.45L4.30 38.55Q4.30 38.60 4.40 38.60Q4.35 38.70 4.35 38.77Q4.35 38.85 4.35 38.85L4.60 40.05L4.70 40.15Q4.80 40.55 5.10 40.95Q5.20 40.90 5.25 40.88Q5.30 40.85 5.30 40.85L5.55 40.90Q5.55 40.95 5.60 41L5.80 41L5.90 41.10Q6 41.05 6.10 40.85Q6.60 41 6.75 41.40Q7.30 41.40 7.45 41.35Q7.60 41.45 7.65 41.70Q7.85 41.60 7.85 41.60Q7.95 41.60 8.08 41.65Q8.20 41.70 8.25 41.70Q8.20 41.70 8.40 41.55L8.75 41.55Q8.85 41.80 9.05 41.80Q9.15 41.80 9.30 41.73Q9.45 41.65 9.50 41.65Q9.60 41.65 9.75 41.80Q9.90 41.95 9.95 41.95L10.15 41.90Q10.15 42 10.25 42.10Q10.25 42.10 10.80 42Q10.85 41.95 10.95 41.88Q11.05 41.80 11.15 41.80Q11.80 42.15 12.05 42.15Q12.15 42.15 12.25 42.05L12.25 42.20Q12.60 42 12.60 42L13.25 42.20Q13.45 42.20 13.80 41.85Q13.95 42 14.10 42Q14.15 42 14.15 41.95L14.20 41.95Q14.25 41.95 14.33 42.02Q14.40 42.10 14.45 42.10Q14.50 42.10 14.60 42.10Q14.70 42.10 14.90 42.05L15.30 42.05Q15.60 42.05 15.85 41.80Q16 42.15 16.15 42.15L17.35 42.15Q17.30 42.20 17.50 42.20Q17.55 42.20 17.65 42.15Q17.75 42.10 17.80 42.10Q17.90 42.10 17.93 42.15Q17.95 42.20 18.00 42.20Q18.05 42.20 18.30 42.13Q18.55 42.05 18.70 42.05Q18.75 42.05 18.78 42.10Q18.80 42.15 18.85 42.15Q18.90 42.15 19.03 42.08Q19.15 42 19.20 42Q19.25 42 19.55 42.10L19.65 42Q19.70 42.05 20.05 42.05Q20.10 42.05 20.13 42Q20.15 41.95 20.25 41.95Q20.30 41.95 20.43 42Q20.55 42.05 20.65 42.05L21.10 41.95Q21.35 41.95 21.40 41.90L21.50 42Q21.60 41.85 21.75 41.85Q21.80 41.85 21.80 41.90Q21.80 41.95 21.90 41.95Q21.95 41.95 21.90 41.90Q21.90 41.85 22.10 41.80L22.25 41.80Q22.30 41.80 22.45 41.77Q22.60 41.75 22.85 41.75L23.40 41.75Q23.45 41.75 23.48 41.67Q23.50 41.60 23.55 41.60L23.75 41.60Q23.85 41.65 23.95 41.65L24.15 41.50Q24.55 41.45 24.73 41.42Q24.90 41.40 24.85 41.40Q25.55 41.20 25.88 41.10Q26.20 41 26.15 41Q26.15 41 26.15 41L26.15 41Q26.15 41.05 26.35 41.10Q26.40 41.05 26.40 40.85Q26.40 40.65 26.80 40.65Q26.90 40.65 27.10 40.75Q27.10 40.80 27.20 41.10Q27.00 41.45 26.50 41.45Q26.45 41.45 26.40 41.40L26.35 41.40Q26.25 41.40 25.93 41.60Q25.60 41.80 25.55 41.80Q25.40 41.80 25.30 41.95L25.15 41.85Q24.55 41.85 23.65 42.10Q23.20 42.25 23.35 42.25Q23.20 42.25 23.05 42.20L22.80 42.20Q22.75 42.20 22.73 42.25Q22.70 42.30 22.60 42.30Q22.55 42.30 22.55 42.25L22.50 42.25Q22.35 42.25 22.35 42.40Q22.25 42.30 22.15 42.30L21.55 42.45Q21.45 42.45 21.45 42.40L21.40 42.35Q21.35 42.35 21.23 42.42Q21.10 42.50 21.05 42.50L20.95 42.50Q20.95 42.45 20.90 42.45Q20.75 42.45 20.55 42.50Q20.35 42.55 20.00 42.80Q19.85 42.65 19.80 42.65Q19.65 42.65 19.48 42.75Q19.30 42.85 19.25 42.85L19.05 42.85Q18.95 42.80 18.85 42.80Q18.80 42.80 18.70 42.85Q18.60 42.90 18.55 42.90Q18.50 42.90 18.45 42.85Q18.40 42.80 18.30 42.80Q18.25 42.80 18.20 42.85Q18.15 42.90 18.10 42.90Q18.05 42.90 18.00 42.85Q17.95 42.80 17.85 42.80Q17.70 42.80 17.58 42.88Q17.45 42.95 17.45 42.95L17.40 42.95Q17.20 42.95 17.10 42.70Q16.70 42.80 16.55 42.90Q16.60 42.95 16.55 42.95Q16.45 42.95 16.55 42.90Q16.50 42.85 16.45 42.80Q16.40 42.95 16.25 42.95Q16.20 42.95 16.15 42.92Q16.10 42.90 16 42.85Q15.95 42.90 15.95 43.20Q15.70 42.95 15.50 42.95Q15.60 42.95 15.35 43.05Q15.20 42.85 15.10 42.85L14.80 42.85L14.65 42.95L14.15 42.85Q14 42.85 14 42.95L13.85 42.85Q13.75 42.95 13.65 42.95Q13.65 42.95 13.65 42.95L13.65 42.95Q13.65 42.95 13.30 42.75Q13.15 42.90 13.15 43.05L13 43.05L12.90 42.95Q12.85 43 12.85 43.10L12.75 42.95Q12.70 42.95 12.70 43Q12.70 42.90 12.50 42.90Q12.40 42.90 12.35 42.95Q12.35 42.90 12.15 42.75L12 42.85Q11.90 42.85 11.90 42.95Q11.50 42.70 11.40 42.70Q11.45 42.70 11.20 42.80Q11.05 42.65 10.85 42.65Q10.80 42.65 10.63 42.77Q10.45 42.90 10.35 42.90Q10.10 42.90 9.93 42.80Q9.75 42.70 9.70 42.70Q9.80 42.70 9.45 42.80Q9.55 42.70 9.45 42.65Q9.40 42.65 9.40 42.75L9.20 42.75L9.05 42.55L8.60 42.70L7.80 42.45Q6.30 42.45 6.20 42.50Q6.35 42.70 6.65 42.95L6.65 43.10Q6.85 43.20 7.05 43.40Q7.25 43.60 7.50 43.85Q7.65 44.15 8.20 44.40Q8.30 44.45 8.50 44.45Q8.60 44.45 8.65 44.40L8.90 44.40L8.90 44.50Q8.90 44.65 9.13 44.83Q9.35 45 9.35 45.10Q9.35 45.20 9.30 45.25Q10 45.55 9.95 45.55Q10 45.55 10.13 45.48Q10.25 45.40 10.30 45.40Q10.45 45.40 10.60 45.80L10.75 45.65L10.90 45.65Q10.90 45.75 10.85 45.80Q11 45.85 11.10 45.85Q11.20 45.85 11.80 46.10Q11.85 46.10 11.95 46Q12.05 46.20 12.15 46.38Q12.25 46.55 12.45 46.55L12.55 46.55Q12.55 46.50 12.65 46.50Q12.70 46.50 12.65 46.55Q12.65 46.60 12.70 46.60Q12.75 46.60 12.80 46.52Q12.85 46.45 12.90 46.45Q13 46.45 13.15 46.58Q13.30 46.70 13.35 46.80Q13.45 46.65 13.50 46.65Q13.55 46.65 13.78 46.75Q14 46.85 14.10 46.85Q14.30 46.85 14.50 46.70Q14.70 47 15.05 47.20L15.15 47.30Q15.10 47.35 15.10 47.65L15.35 47.55L15.40 47.75Q15.40 48 15.20 48L15.10 48Q15.10 48.10 15.20 48.10Q15.25 48.10 15.35 48.10Q15.45 48.10 15.55 48.05L15.90 48.05Q16 48.05 16 47.80L16.45 47.80Q16.50 47.80 16.58 47.73Q16.65 47.65 16.70 47.65L17.15 47.80L17.35 47.40Q17.55 47.50 17.78 47.50Q18.00 47.50 18.55 47.65L18.65 47.80L18.65 47.65Q18.80 47.60 19.35 47.60Q19.25 47.60 19.85 47.90Q20.15 47.75 20.10 47.70L20.05 47.70L20.05 47.70Q20.05 47.70 20.05 47.70Q20.10 47.70 20.10 47.70Q20.15 47.75 20.20 47.77Q20.25 47.80 20.30 47.80Q20.50 47.60 20.45 47.60Q20.50 47.60 20.55 47.63Q20.60 47.65 20.70 47.70Q20.70 47.70 20.70 47.73Q20.70 47.75 20.75 47.85Q20.85 47.75 21.00 47.75Q21.05 47.75 21.00 47.55Q21.10 47.55 21.25 47.48Q21.40 47.40 21.45 47.40Q21.50 47.40 21.90 47.60Q22.30 47.80 22.35 47.80L22.40 47.80Q22.60 47.60 22.60 47.50Q22.70 47.50 22.85 47.65Q23.10 47.40 23.25 47.40Q23.30 47.40 23.35 47.45Q23.40 47.50 23.45 47.50Q23.60 47.50 23.95 47.15L24.10 47.15Q24.15 47.20 24.20 47.20L24.30 47.20Q24.35 47.40 24.30 47.75L24.45 47.95Q24.55 47.85 24.60 47.95L24.70 47.80L24.70 47.55Q24.70 47.55 24.75 47.48Q24.80 47.40 24.90 47.40Q24.95 47.40 25.00 47.45Q25.05 47.35 25.15 47.20Q25.25 47.05 25.35 46.85Q25.35 46.90 25.45 46.90Q25.70 46.95 25.80 47.05Q25.90 46.90 26.20 46.90L26.35 47.05L26.70 46.85L26.70 46.65L27.00 46.40Q27.90 46 28.15 46L28.25 46.10Q28.30 46.10 28.30 45.95Q28.35 46 28.60 45.85Q28.80 45.95 28.75 46Q28.70 46.05 28.80 46.05L29.15 46.05Q29.40 46.05 29.48 46.08Q29.55 46.10 29.60 46.10Q29.70 46.10 29.80 45.98Q29.90 45.85 30.55 45.40Q31.20 45 31.40 45Q31.35 44.95 31.40 44.80Q31.40 44.75 31.40 44.75L31.40 44.80Q31.40 44.80 31.65 44.80Q31.80 44.80 31.85 44.65L31.95 44.75L32.25 44.60Q32.35 44.50 32.15 44.25L32.15 43.90L32.35 43.85Q32.45 43.85 32.58 43.92Q32.70 44 32.75 44Q32.95 43.90 33.40 43.70Q33.85 43.50 33.90 43.30L33.90 43.25Q33.90 43.10 34.03 42.85Q34.15 42.60 34.25 42.60Q34.35 42.60 34.40 42.65L34.50 42.65Q34.60 42.65 34.95 42.35Q35 42.30 35 42.20Q35 42.10 35.05 41.95Q35.05 41.95 35.40 42.20Q35.45 42.20 35.53 42.13Q35.60 42.05 35.70 42.05L35.70 41.35Q35.80 41.30 35.93 41.25Q36.05 41.20 36.25 41.10Q36.40 41 36.55 40.65L36.85 40.65Q36.85 40.55 36.95 40.30Q36.90 40.30 36.95 40.25L36.95 40.30Q36.95 40.30 37.05 40.30Q36.90 40.30 37.20 40.20Q37.10 39.85 36.95 39.80Q37 39.75 37 39.65L37.30 39.65Q37.30 39.50 37.20 39.40Q37.30 39.25 37.58 39.10Q37.85 38.95 37.85 38.75Q37.85 38.65 37.85 38.52Q37.85 38.40 37.75 38.25Q37.75 38.15 37.80 38.05L37.85 38.05Q38.20 38.05 38.20 37.20Q38.20 36.60 38 36.25Q38 36.25 38 36.23Q38 36.20 38.05 36.15Q38 36.05 37.83 35.70Q37.65 35.35 37.25 34.85L36.80 34.25Q36.10 33.55 36 33.55Q35.90 33.55 35.95 33.60Q35.95 33.65 35.95 33.65Q35.95 33.65 35.95 33.65Q35.95 33.65 35.95 33.60Q35.80 33.35 35.60 33.35Q35.55 33.35 35.50 33.40Q35.45 33.05 35.25 33.05L35.20 33.05Q35.20 33.10 35.15 33.10Q35.10 33.10 34.95 32.95Q34.80 32.80 34.75 32.80L34.70 32.80Q34.70 32.85 34.65 32.85Q34.80 32.85 34.55 32.70Q34.40 32.70 33.68 32.40Q32.95 32.10 32.60 32.10Q32.60 31.95 32.50 31.95Q32.45 31.95 32.45 32Q32.45 32.05 32.40 32.05Q32.35 32.05 31.75 31.80L31.50 31.80Q31.45 31.80 31.40 31.77Q31.35 31.75 31.10 31.70Q31.05 31.70 31.00 31.75L30.90 31.60Q30.90 31.60 30.80 31.50Q30.70 31.60 30.60 31.60Q30.50 31.60 30.18 31.45Q29.85 31.30 29.80 31.30Q29.70 31.30 29.55 31.35L29.25 31.35Q29.20 31.35 29.15 31.30Q29.10 31.25 29.05 31.25Q28.95 31.25 28.73 31.25Q28.50 31.25 28.20 31.20L28.05 31.05L27.95 31.05L27.85 30.95L27.65 31.10Q27.40 30.85 27.10 30.85L26.90 30.85Q26.80 30.90 26.70 30.90Q26.65 30.90 26.65 30.85Q26.70 30.80 26.65 30.80Q26.60 30.80 26.58 30.75Q26.55 30.70 26.50 30.70L26.15 30.80Q26.10 30.80 25.90 30.67Q25.70 30.55 25.60 30.55L25.50 30.55Q25.45 30.55 25.18 30.50Q24.90 30.45 24.40 30.35L23.30 30.10L23.15 30.15Q23.00 30.15 22.25 29.80Q21.55 29.45 21.45 29.45L21.35 29.45Q21.30 29.50 21.25 29.50Q21.05 29.50 20.65 29.25L20.65 29.35Q20.40 29.25 18.90 28.80Q18.10 28.40 16.65 27.60Q16.40 27.30 16.30 26.95L16.30 26.55Q16.10 26.10 15.85 25.95Q15.95 25.65 15.75 25.55Q15.85 25.30 15.70 25.05L15.85 24Q15.95 23.90 16 23.63Q16.05 23.35 16.35 22.50Q16.40 22.40 16.40 22.30Q16.40 22.20 16.45 22.05Q16.45 22.10 16.50 22.15Q16.55 22.10 16.65 21.88Q16.75 21.65 17.05 21.50Q17.05 21.40 17.18 21.20Q17.30 21 17.70 20.45Q18.05 20.30 18.50 19.65Q18.95 19 19.30 18.75L19.75 18.60L19.95 18.35L21.00 17.75Q21.10 17.65 21.45 17.60L21.55 17.50Q21.75 17.50 21.75 17.35L21.85 17.45Q21.85 17.40 22.40 17.15L22.80 16.95Q22.95 16.80 23.20 16.75Q23.30 16.70 23.40 16.70Q23.50 16.70 23.65 16.65Q23.70 16.65 23.78 16.55Q23.85 16.45 23.90 16.45Q23.95 16.45 23.95 16.50L24.00 16.50Q23.95 16.50 24.30 16.30Q25.00 15.80 26.05 15.75Q26.10 15.75 26.20 15.65Q26.30 15.55 26.35 15.55L26.45 15.55Q26.50 15.60 26.55 15.60Q26.65 15.60 26.75 15.52Q26.85 15.45 26.95 15.45Q26.75 15.45 27.43 15.22Q28.10 15 29.10 15Q29.25 15 29.40 14.95L29.75 14.95Q29.80 14.95 29.80 14.90L29.85 14.90Q30.10 14.90 30.35 14.85Q30.60 14.80 30.65 14.60L30.75 14.70Q30.90 14.45 31.00 14.70L31.00 14.60L31.25 14.60Q31.30 14.60 31.33 14.65Q31.35 14.70 31.40 14.70Q31.55 14.70 31.55 14.60L31.75 14.75Q32.15 14.30 32.35 14.30L32.70 14.40Q32.80 14.40 32.80 14.35Q32.80 14.30 32.85 14.30Q32.90 14.30 33.18 14.40Q33.45 14.50 33.55 14.50Q33.60 14.50 33.75 14.38Q33.90 14.25 33.95 14.25Q34.30 14.30 34.48 14.38Q34.65 14.45 35.05 14.60Q35.30 14.30 35.35 14.30Q35.45 14.30 35.85 14.50L36.05 14.35Q36 14.40 36 14.50Q36.05 14.55 36.10 14.55L36.40 14.55Q36.50 14.55 36.40 14.40Q36.60 14.60 36.75 14.60Q36.80 14.60 36.80 14.55L36.85 14.55Q36.80 14.55 37 14.70Q36.95 14.70 37.05 14.72Q37.15 14.75 37.35 14.80Q37.45 14.90 37.50 15.20Q37.55 15.15 37.55 15.05Q37.55 15.15 37.60 15.20L38.65 15.65Q38.65 15.95 39.10 16.25Q39.05 16.45 39.38 17Q39.70 17.55 39.60 17.75Q39.80 18.10 39.80 18.35Q39.80 18.85 39.65 19.30Q39.50 19.50 39.33 19.95Q39.15 20.40 38.50 20.95Q37.75 21.60 37.60 21.95L36.25 23Q36.15 23.10 36.10 23.17Q36.05 23.25 36.05 23.25Q35.95 23.25 35.98 23.20Q36 23.15 35.90 23.15Q35.95 23.15 35.30 23.50L34.95 23.60Q34.80 23.70 34.58 23.88Q34.35 24.05 34 24.30Q33.80 24.35 33.55 24.47Q33.30 24.60 32.95 24.80Q32.95 24.65 32.80 24.65L33.75 23.85Q33.85 23.85 34 23.80L34.90 23L35.30 22.80Q35.50 22.75 35.50 22.50L35.60 22.50Q36.15 22.50 36.45 21.55Q36.60 21.55 36.65 21.60Q36.70 21.45 36.85 21.30Q37 21.15 37.25 20.90Q37.55 20.50 37.90 19.92Q38.25 19.35 38.60 18.70Q38.60 18.70 38.50 18.50Q38.55 18.40 38.70 18.22Q38.85 18.05 38.85 18Q38.85 18 38.75 17.80L38.75 17.10Q38.75 16.75 38.40 16.40Q38.30 16.45 38.25 16.45L38.30 16.25Q38.30 16.10 37.65 15.75Q36.85 15.25 36.65 15.25L36.50 15.25Q36.45 15.30 36.35 15.30Q36.25 15.30 36.03 15.20Q35.80 15.10 35.75 15.10Q35.70 15.10 35.70 15.15Q35.70 15.20 35.65 15.20L34.55 14.95Q34.50 14.95 34.50 15Q34.50 15.05 34.45 15.05Q34.40 15.05 34.30 15Q34.20 14.95 34.10 14.95Q34.05 14.95 34.03 15Q34 15.05 33.95 15.05Q33.90 15.05 33.90 15L33.80 15Q33.75 15 33.75 15.05Q33.75 15.10 33.70 15.10Q33.65 15.10 33.63 15.05Q33.60 15 33.55 15Q33.50 15 33.50 15.05L33.55 15.05L32.75 15.20Q32.65 15.20 32.50 15.20Q32.35 15.20 32.15 15.25L32 15.15Q31.20 15.45 30.80 15.45Q30.70 15.45 30.70 15.40L30.65 15.40Q30.55 15.40 29.98 15.60Q29.40 15.80 29.35 15.80Q29.30 15.80 29.35 15.75Q29.35 15.70 29.30 15.70Q29.35 15.70 29.35 15.67Q29.35 15.65 29.35 15.65Q29.35 15.60 29.00 15.70Q28.65 15.80 28.33 15.92Q28.00 16.05 27.95 16.15L27.90 16.15Q27.90 16.10 27.85 16.10Q27.55 16.10 27.30 16.50Q27.30 16.45 27.35 16.40L27.15 16.30L26.90 16.65L26.80 16.55Q27.00 16.55 25.95 16.95Q25.90 17 25.90 17Q25.90 17 25.90 17.05Q25.85 17 25.90 17Q25.85 17 25.85 17Q25.85 17.05 25.10 17.35L24.55 17.55L24.20 17.80L21.35 19.90Q20.85 20.25 20.63 20.67Q20.40 21.10 20.10 21.60L19.95 21.50Q19.90 21.75 19.45 22Q19.50 21.95 19.50 22.25Q19.50 22.35 19.20 22.60L19.20 22.75Q19.20 23.05 19.25 23.25Q19.20 23.40 19.18 23.63Q19.15 23.85 18.95 24.40Q18.95 24.45 18.95 24.55Q18.95 24.65 19.00 24.75Q18.95 24.95 18.93 25.02Q18.90 25.10 18.90 25.05Q18.90 25.50 18.95 25.40Q19.50 25.60 19.40 26.30Q19.65 26.55 19.65 26.55Q19.70 26.55 19.70 26.50L19.75 26.50Q19.85 26.50 20.00 26.65Q20.15 26.80 20.40 26.80Q20.35 26.85 20.48 27.15Q20.60 27.45 20.70 27.45Q20.75 27.45 20.75 27.40L20.80 27.40Q20.85 27.40 21.25 27.70Q21.65 28 21.70 28L21.75 28Q21.75 27.95 21.80 27.95Q21.85 27.95 22.38 28.32Q22.90 28.70 23.00 28.70Q23.05 28.70 23.65 28.45L24.25 29.10Q24.30 29.05 24.30 28.95Q24.70 29.40 25.05 29.40Q25.15 29.40 25.25 29.50L25.35 29.35Q25.35 29.45 25.45 29.45Q25.50 29.45 25.50 29.40L25.55 29.40Q26.20 29.80 26.25 29.80Q26.30 29.80 26.40 29.75Q26.50 29.70 26.55 29.70Q26.65 29.70 26.90 29.95Q26.95 29.90 26.95 29.85Q27.20 30.10 27.80 30.10Q28.25 30.40 28.55 30.40Q28.85 30.40 28.90 30.45L29.25 30.60Q29.30 30.60 29.50 30.55Q29.70 30.50 29.80 30.50Q30.35 30.60 30.55 30.67Q30.75 30.75 30.60 30.75Q30.65 30.75 30.70 30.70L30.80 30.80L31.25 31.10Q31.35 31.10 31.40 31.25L31.65 31.05Q31.80 31.20 31.70 31.20L31.60 31.30L31.80 31.45Q32.05 31.25 32.30 31.25Q32.25 31.25 32.28 31.25Q32.30 31.25 32.35 31.25L32.30 31.25Q32.10 31.25 32.60 31.40Q32.90 31.50 32.95 31.60L33.50 31.60Q33.60 31.90 33.80 31.90Q33.90 31.90 33.88 31.85Q33.85 31.80 33.90 31.80Q34 31.80 34.30 31.95Q34.35 31.95 34.45 32.10Q34.55 32.25 34.65 32.25Q34.70 32.25 34.70 32.20L34.75 32.20Q34.85 32.20 35.05 32.55Q35.10 32.50 35.10 32.45L35.55 32.75Q35.60 32.75 35.70 32.75Q35.80 32.75 35.95 32.80Q36 32.85 36.13 33.02Q36.25 33.20 36.35 33.20Q36.40 33.20 36.40 33.15L36.45 33.15Q36.50 33.15 36.55 33.27Q36.60 33.40 36.70 33.40Q36.80 33.35 36.85 33.35Q36.85 33.40 37.25 33.80Q37.20 33.80 37.65 34.40Q37.90 34.65 38.08 34.73Q38.25 34.80 38.60 35.25Q38.55 35.30 38.55 35.55L39.00 35.95Q39.00 36 39.25 36.63Q39.50 37.25 39.50 37.85Q39.50 38.20 39.43 38.55Q39.35 38.90 39.25 39.30Q39.15 39.75 39.20 39.80Q39.05 39.85 38.85 40.40Q38.65 41 38.15 41.75Q38.10 41.80 37.88 42.08Q37.65 42.35 37.20 42.85L37.05 43.25Q36.95 43.40 36.75 43.60Q36.55 43.80 36.30 44.05L35.70 44.40Q34.85 45 34.85 45.15L34.85 45.10L34.80 45.10Q34.90 45.10 34.55 45.30Q34.55 45.35 34.48 45.48Q34.40 45.60 34.15 45.80Q34.05 45.80 33.75 45.90Q33.65 46 33.45 46.17Q33.25 46.35 33 46.55L32.50 46.70Q32.50 46.70 32.28 46.95Q32.05 47.20 31.85 47.20Q31.85 47.20 31.85 47.20L31.85 47.20Q31.90 47.20 31.80 47.10L31.75 47.10Q31.70 47.10 31.70 47.30L31.60 47.30Q31.65 47.30 31.30 47.50Q31.10 47.65 30.70 47.80Q30.30 47.95 29.85 48.30Q29.60 48.30 29.55 48.35L29.45 48.25Q29.40 48.45 29.15 48.45Q29.10 48.45 29.10 48.40L29.05 48.40Q29.00 48.40 28.83 48.58Q28.65 48.75 28.60 48.75L28.10 48.65Q28.10 48.65 27.85 48.95Q27.60 49.25 27.25 49.25Q27.20 49.25 27.20 49.20L27.15 49.15Q27.05 49.15 27.00 49.23Q26.95 49.30 26.90 49.30L26.85 49.30Q26.85 49.25 26.80 49.25Q26.75 49.25 26.60 49.35Q26.45 49.45 26.35 49.45L26.25 49.45Q26.20 49.40 26.15 49.40Q25.95 49.40 25.25 49.80L25.05 49.50Q24.90 49.85 24.65 49.85Q24.55 49.85 24.40 49.70L24.30 49.70Q24.20 49.70 24.23 49.75Q24.25 49.80 24.20 49.80L24.15 49.80Q24.15 49.75 24.10 49.75Q24.05 49.75 23.70 49.95Q23.35 50.15 23.20 50.15Q23.20 50.05 23.03 50Q22.85 49.95 22.60 49.80L22.40 50.05L22.35 50.05L22.25 50.15Q21.90 50.10 21.55 49.80L21.55 49.90L21.25 49.90Q21.10 49.85 21.00 49.85Q20.95 49.85 20.73 50.08Q20.50 50.30 20.40 50.30M27.90 40.80Q27.75 40.90 27.65 40.65L27.70 40.25L28.00 40.25Q28.00 40.35 27.98 40.48Q27.95 40.60 27.90 40.80M8.65 45L8.75 45L8.75 44.80L8.65 44.80L8.65 45M14.55 49.35L14.55 49.35Q14.55 49.35 14.55 49.35ZM41.95 44.20Q41.90 44.15 41.83 44.05Q41.75 43.95 41.70 43.95L41.65 43.95Q41.65 44 41.60 44Q41.50 44 41.40 43.55Q41.35 43.50 41.05 43.40Q40.90 42.85 40.70 42.80L40.70 41.45L41.10 41Q41.15 40.95 41.05 40.65Q41.10 40.55 41.15 40.45Q41.20 40.35 41.30 40.25Q41.30 40.10 41.25 39.90Q41.35 39.60 41.55 39.45Q41.55 39.15 41.75 38.90Q41.85 38.90 42.30 38.30L42.80 37.55Q42.95 37.45 43.40 37L43.40 36.80Q43.55 36.70 43.70 36.50Q44.05 36.45 44.20 36.20Q44.20 36.15 44.20 36.05Q44.20 35.95 44.25 35.85Q44.35 35.80 44.45 35.80Q44.55 35.80 44.70 35.75Q44.80 35.45 44.95 35.35Q45.60 35.30 45.90 34.65Q45.95 34.65 46.13 34.52Q46.30 34.40 46.35 34.40Q46.35 34.40 46.35 34.40L46.35 34.40Q46.30 34.45 46.50 34.50Q46.60 34.40 46.60 34.35Q46.85 34.20 47.05 34.20Q47.30 33.90 47.30 33.90Q47.35 33.90 47.38 33.95Q47.40 34 47.45 34Q47.55 34 47.83 33.88Q48.10 33.75 48.20 33.75L48.25 33.75Q48.20 33.80 48.30 33.80Q48.35 33.80 48.43 33.73Q48.50 33.65 48.55 33.65Q48.65 33.65 48.75 33.73Q48.85 33.80 48.90 33.80Q48.95 33.80 48.98 33.75Q49 33.70 49.10 33.70Q49.10 33.70 49.10 33.70L49.10 33.70Q49 33.70 49.25 33.80Q49.30 33.60 49.50 33.60Q49.60 33.60 49.63 33.67Q49.65 33.75 49.75 33.75Q49.80 33.75 49.80 33.70L49.90 33.70Q50 33.70 50.30 34.10Q50.40 34 50.40 34Q50.75 34.25 50.80 34.40L50.80 34.90L50.70 34.80Q50.40 34.90 50.10 34.90Q50.05 34.90 50.03 34.85Q50 34.80 49.90 34.80Q49.85 34.80 49.78 34.85Q49.70 34.90 49.65 34.90Q49.55 34.90 49.48 34.85Q49.40 34.80 49.35 34.80Q49.30 34.80 49.30 34.85Q49.30 34.90 49.20 34.90L49.15 34.90Q49.20 34.85 49.10 34.85Q49.05 34.85 48.53 35.10Q48 35.35 47.95 35.35Q47.90 35.35 47.80 35.20L46.80 35.65L46.45 35.55Q46.40 35.55 46.20 35.75Q46 35.95 45.90 35.95Q45.85 35.95 45.85 35.90L45.80 35.90Q45.60 35.90 45.43 36.13Q45.25 36.35 44.90 36.45Q44.85 36.50 44.90 36.65Q44.65 37.20 44.25 37.35Q44.20 37.40 44.20 37.55L43.85 37.55Q43.80 37.60 43.80 37.90Q43.80 37.90 43.73 37.90Q43.65 37.90 43.55 37.85Q43.40 38.10 43.50 38.35L43 38.35Q42.90 38.55 42.75 38.83Q42.60 39.10 42.45 39.50Q42.40 39.65 42.28 39.88Q42.15 40.10 42.05 40.40Q41.75 40.75 41.55 41.25L41.55 41.70Q41.55 41.75 41.50 41.90Q41.45 42.05 41.45 42.15Q41.70 42.40 41.95 42.40Q42.10 42.40 42.33 42.33Q42.55 42.25 42.75 41.85L42.90 41.95Q43.30 41.80 43.80 41.40Q43.85 41.35 44.05 41.30Q44.25 41.25 44.25 41.05Q44.30 41.05 44.35 41.10L44.55 40.75Q45.10 40.65 45.15 40.15Q45.25 40.15 45.30 40.20L45.65 39.90Q45.65 39.80 45.70 39.70Q45.75 39.70 45.80 39.67Q45.85 39.65 45.95 39.60L46.25 39.05Q46.40 38.90 46.75 38.85Q46.90 38.75 47.03 38.60Q47.15 38.45 47.25 38.35Q47.20 38.25 47.15 38.15Q47.10 38.05 47 37.95Q46.90 37.80 47.10 37.70Q47 37.75 47 37.60L47 37.30Q47.15 37.20 47.38 37.10Q47.60 37 47.85 36.80Q48.05 36.70 48.10 36.70Q48.10 36.70 48.10 36.70L48.10 36.70Q47.95 36.70 48.20 36.80Q48.30 36.55 48.45 36.25Q48.60 35.95 48.75 35.55L49.15 35.35Q49.15 35.35 49.25 35.65Q48.85 36.20 48.85 36.50Q48.85 36.65 49.35 36.80Q49.35 36.80 49.35 36.83Q49.35 36.85 49.30 36.90Q49.50 37.05 49.63 37.20Q49.75 37.35 49.80 37.45Q49.45 37.95 49.45 38.40L49.55 38.50Q49.50 38.55 49.50 38.90Q49.55 39.20 49.63 39.52Q49.70 39.85 49.80 40.25L50.15 40.75L50.15 40.90Q50.15 41.60 50.65 42.10L50.80 42L50.80 42.15Q51.10 42.25 51.45 42.60L52 42.60Q52.15 42.80 52.30 42.80Q53.10 42.80 53.10 42.40Q53.10 42.40 53.20 42.50Q53.75 42.25 54.85 40.85Q55.60 39.95 55.70 40L55.90 40.05L55.90 40.25L55.95 40.30Q55.95 40.30 55.55 40.85Q55.55 41.05 55.15 41.35Q55.25 41.40 55.15 41.50L54.85 41.70L54.95 41.85Q54.45 42 54.15 42.25Q53.85 42.50 53.90 42.60Q53.80 42.60 53.55 42.90Q53.35 42.90 53.35 43.10Q53.25 43 53.25 43L53.10 43.10Q53.10 43.10 53.03 43.15Q52.95 43.20 52.85 43.30Q52.80 43.30 52.70 43.30Q52.60 43.30 52.50 43.35L52.40 43.50L52.15 43.50Q52.10 43.45 52.05 43.45Q51.60 43.45 51.35 43.70L51.35 43.50L50.70 43.50L50.70 43.30Q50.60 43.40 50.55 43.40Q50.45 43.40 50.28 43.23Q50.10 43.05 49.90 43.10Q49.65 42.70 49.33 42.27Q49 41.85 48.90 41.95Q48.90 41.90 48.95 41.85Q48.80 41.70 48.75 41.40Q48.40 41 47.40 38.95Q47.20 39.15 46.90 39.50Q46.60 39.85 46.20 40.25Q46.15 40.35 46.10 40.48Q46.05 40.60 46 40.80L45.65 41Q45.65 41.10 45.63 41.23Q45.60 41.35 45.55 41.55Q45.50 41.55 45.28 41.75Q45.05 41.95 44.85 41.95Q44.80 41.95 44.70 41.85Q44.60 41.95 44.45 42.13Q44.30 42.30 44.10 42.55Q44.15 42.60 44.40 42.60L44.40 42.80Q44.40 42.85 44.10 43.15L44.20 43.25Q44.05 43.35 43.55 43.85Q43.50 43.85 43.38 43.85Q43.25 43.85 43.10 43.90Q42.45 44.15 42.70 44.15Q42.55 44.15 42.35 44.10L42.05 44.10Q41.95 44.10 41.95 44.20ZM64.30 47.30Q64.05 47.25 64 46.73Q63.95 46.20 63.90 46.10L63.90 45.65Q63.90 44.80 63.92 44.15Q63.95 43.50 64.05 43.15L64.20 42.60L64.60 41Q64.55 40.95 64.55 40.80L64.65 40.05Q64.70 40 64.95 39.20L64.90 39.15L64.90 39.10Q64.65 39.20 64.25 39.80Q64.15 39.85 64.03 39.95Q63.90 40.05 63.75 40.40L63 41.30Q62.95 41.35 62.80 41.45Q62.65 41.55 62.35 41.85Q62.25 41.85 62.10 41.90Q61.70 42.30 61.45 42.40Q61.35 42.60 61.15 42.85Q60.95 43.10 60.70 43.35L60.70 43.05Q60.75 43 60.60 43Q60.55 43 60.15 43.45L60.25 43.55L60.60 43.25Q60.35 43.75 60.20 43.85Q58.60 45 58.10 45Q58.05 45 58 44.95Q57.95 44.90 57.90 44.90Q57.85 44.90 57.83 44.98Q57.80 45.05 57.75 45.05Q57.75 45.05 57.70 45.05L57.75 45.05Q57.75 45.05 57.75 45Q57.75 44.95 57.25 44.60Q57.15 44.60 56.92 44.50Q56.70 44.40 56.25 44L55.90 42.85L55.90 42.70Q56.10 42.35 56.05 42Q56.05 41.95 56 41.90Q56 41.65 56.02 41.25Q56.05 40.85 56.10 40.35Q56.25 39.60 56.45 39.65Q56.30 39.40 56.50 39.05Q56.50 39 56.58 39Q56.65 39 56.70 38.95Q56.60 38.75 56.60 38.70Q56.60 38.50 56.80 38.30Q56.85 37.85 56.88 37.70Q56.90 37.55 56.90 37.65Q56.90 37.65 56.95 37.55Q57 37.45 57.05 37.40Q56.90 37.25 56.90 37.15Q56.90 37.10 56.98 37.02Q57.05 36.95 57.05 36.90Q57.30 36.90 57.50 36.70Q57.50 36.65 57.45 36.65Q57.40 36.45 57.65 36.23Q57.90 36 57.95 35.90Q57.95 35.85 57.75 35.85L57.75 35.65Q57.70 35.55 57.70 35.45L57.85 35.30Q57.95 35.35 58 35.30Q57.95 35.20 57.95 34.95Q57.95 34.45 57.80 34.45Q57.60 34.45 55.60 35.55Q55.60 35.40 55.70 35.23Q55.80 35.05 55.75 35Q56.15 34.80 56.23 34.70Q56.30 34.60 56.45 34.60Q56.50 34.60 56.60 34.50Q56.65 34.45 56.65 34.42Q56.65 34.40 56.75 34.40Q56.80 34.40 56.85 34.45L57.30 34.30Q57.45 34.15 57.40 34.15Q57.55 34.15 57.55 34.10L57.60 34.10Q57.80 34.10 57.95 33.85L58.05 33.85Q58.10 33.80 58.10 33.85Q58.10 33.90 58.15 33.85Q58.20 33.80 58.25 33.80Q58.60 33.80 58.95 33.50Q59.25 33.60 59.25 33.60Q59.30 33.60 59.40 33.50Q59.50 33.50 59.70 33.70Q59.90 33.70 59.90 33.55Q59.90 33.55 60.20 33.65Q60.25 33.85 60.50 34Q60.50 34.25 60.90 34.90Q60.85 34.95 60.70 35.10Q60.55 35.25 60.30 35.60Q60.30 35.75 60.25 35.85L59.60 36.55Q59.55 37 58.85 37.90Q58.85 38.25 58.58 38.77Q58.30 39.30 58.30 39.40Q57.85 39.60 57.85 40.35Q57.85 40.45 57.95 40.67Q58.05 40.90 58.05 40.95Q58.05 41 57.98 41.15Q57.90 41.30 57.90 41.40L57.90 41.65L57.85 41.65L57.90 41.70Q57.90 41.75 57.90 41.92Q57.90 42.10 57.95 42.35Q57.95 42.35 58.05 42.45Q58.20 42.85 58.30 42.85Q58.40 43 58.30 43.15Q58.50 43.25 58.40 43.45L58.55 43.60Q58.75 43.50 59.08 43.30Q59.40 43.10 59.80 42.80Q60.05 43.05 60.10 43.05Q60.15 43.05 60.20 42.90Q60.75 42.60 60.90 42.35Q61.35 42.10 61.85 41.50Q61.85 41.55 61.90 41.60L62 41.60L62.15 41.30Q62.35 41.20 62.90 40.65L63.25 40.30Q63.25 40.05 63.58 39.88Q63.90 39.70 64.80 38.60Q64.80 38.65 64.85 38.70Q65.15 38.25 65.25 37.90Q65.25 37.80 65.20 37.70Q65.20 37.50 65.35 37.13Q65.50 36.75 65.60 36.35L65.80 36.20Q66.40 35.95 66.25 35L66.40 35Q66.45 35 66.63 34.77Q66.80 34.55 67 34.55Q67.05 34.55 67.13 34.60Q67.20 34.65 67.25 34.65Q67.30 34.65 67.40 34.40Q67.65 34.45 67.70 34.70Q67.70 34.70 67.80 34.45Q67.95 34.35 68.10 34.10L68.20 33.70L68.55 33.15Q68.75 33.05 68.85 32.90Q68.95 32.80 69.05 32.80Q69.30 32.80 69.20 33.25L69 33.45Q68.75 33.70 68.50 34.35Q68.50 34.35 68.45 34.38Q68.40 34.40 68.30 34.45Q68.30 34.60 68.05 34.85L68.65 35.40Q68.50 35.55 68.45 35.85Q68.25 36 67.80 36.70Q67.75 36.80 67.70 36.95Q67.65 37.10 67.55 37.35L67.05 38L67.10 38.20L66.95 38.10Q66.85 38.30 66.75 38.52Q66.65 38.75 66.55 39Q66.45 39.20 66.15 39.50L66.15 39.60Q66.05 39.70 65.90 40.30Q65.85 40.35 65.75 40.58Q65.65 40.80 65.40 41.15Q65.45 41.20 65.45 41.40L65.20 41.70Q65.05 42.25 64.88 43.08Q64.70 43.90 64.50 45Q64.45 45.25 64.42 45.48Q64.40 45.70 64.30 45.90L64.35 46.10L64.35 46.75Q64.25 47.15 64.30 47.30ZM71.85 44.10L71.85 43.90Q71.50 43.85 71.35 43.90Q71.30 43.70 70.95 43.45Q70.90 43.40 70.85 43.40Q70.75 43.30 70.58 43.13Q70.40 42.95 70.20 42.75Q70.20 42.55 70 42.50Q70 42.35 69.70 41.85Q69.70 41.80 69.70 41.70Q69.70 41.60 69.65 41.50L69.50 41.35Q69.45 41 69.25 41.05Q69.35 40.95 69.35 40.80Q69.35 40.70 69.30 40.50Q69.25 40.30 69.15 40.10L69.15 39.85L68.95 39.70Q69 39.60 69.02 39.55Q69.05 39.50 69.05 39.50Q69.05 39.30 68.85 39.15Q68.85 38.95 68.75 38.65Q68.80 38.55 68.80 38.45Q68.80 38.35 68.85 38.20L68.75 38.05L68.85 37.65L68.70 37.15Q68.70 36.80 68.85 35.70Q68.90 35.55 69 35.25Q69.10 34.95 69.10 34.85L69.10 34.65Q69.05 34.50 69 34.40Q68.95 34.30 68.70 34.30L68.30 34.30L67.55 33.95Q67.50 33.90 67.50 33.83Q67.50 33.75 67.45 33.70Q67.50 33.65 67.50 33.60L67.85 33.60L69 33.95Q69.10 33.95 69.15 33.90L69.30 33.90L69.50 33.35Q69.55 33.30 69.60 33.20Q69.65 33.10 69.90 31.90Q70 31.75 70.10 31.52Q70.20 31.30 70.30 31Q70.50 30.85 70.60 30.60L70.60 30.25L70.95 29.75Q70.85 29.80 71.20 29.35Q71.55 28.90 71.55 28.50Q71.65 28.45 71.92 28.07Q72.20 27.70 72.75 27.05L72.90 26.75Q73.55 26.10 73.60 25.75Q73.70 25.65 73.85 25.52Q74 25.40 74.20 25.20Q74.20 24.95 74.70 24.60Q75.20 24.25 75.30 24Q75.60 24 76.40 23.20Q76.75 23.05 77.20 22.45L77.30 22.45Q77.55 22.45 77.75 22.05Q78.20 21.85 78.70 21.45L79 21.20Q79.05 21.20 79.05 21.25L79.10 21.25Q79.05 21.25 79.50 21.05Q81.05 20.35 81.25 20.35L81.35 20.35Q81.40 20.40 81.45 20.40Q81.60 20.40 81.95 20.25Q82 20.25 82.08 20.17Q82.15 20.10 82.20 20.10Q82.25 20.10 82.28 20.15Q82.30 20.20 82.35 20.20Q82.40 20.20 82.53 20.10Q82.65 20 82.70 20Q82.70 20 82.70 20L82.70 20Q82.65 20 82.75 20.05Q82.85 20.10 83.15 20.10Q83.40 20.10 83.60 20Q83.80 20.20 83.85 20.20Q83.90 20.20 85 20.30L85.15 20.50Q85.25 20.50 85.25 20.40Q85.30 20.40 86.55 21.65L86.55 22.20Q86.60 22.25 86.75 22.25Q86.75 22.50 86.78 22.75Q86.80 23 86.85 23.20Q86.90 23.25 86.90 23.35Q86.90 23.45 86.85 23.60Q86.80 23.75 86.50 24.55L86.35 25.05Q86 25.70 85.30 26.70L84.80 27.15L84.70 27.55L84.55 27.55L83.85 28.35Q83.50 28.55 82.90 29.40Q82.30 29.55 82 30Q81.85 30.10 81.55 30.35Q81.25 30.60 80.75 30.95Q80.40 31.05 79.85 31.30Q79.30 31.55 78.60 31.90Q78.45 32.05 77.90 32.45Q77.55 32.50 77 32.75Q76.90 32.85 76.27 33.05Q75.65 33.25 75.70 33.25L75.65 33.25Q75.65 33.20 75.60 33.20Q75.50 33.20 75.55 33.35Q75.50 33.30 75.45 33.30Q75.40 33.30 75.40 33.30Q75.35 33.30 75.08 33.40Q74.80 33.50 74.25 33.70Q73.25 34.05 73.10 34.05Q73.05 34.05 73.05 34L73 34Q72.95 34 72.55 34.17Q72.15 34.35 72.10 34.35Q72.05 34.35 72 34.30L71.90 34.30Q71.70 34.35 71.27 34.38Q70.85 34.40 71 34.60Q70.90 34.55 70.85 34.52Q70.80 34.50 70.80 34.50Q70.70 34.50 70.60 34.60L70.40 36.30Q70.40 36.30 70.50 36.40Q70.45 36.55 70.45 37.10Q70.30 37.15 70.30 37.35Q70.30 37.40 70.45 37.90Q70.60 38.40 70.60 38.50L70.60 38.80Q70.55 38.75 70.30 38.90L70.30 38.70L70.15 38.70Q69.75 38.70 70.10 39L70.10 39.20Q70.05 39.20 69.65 39.45L69.95 39.90L70.10 39.90Q70.20 39.90 70.30 39.92Q70.40 39.95 70.55 40L70.65 39.90L71 39.90Q71.10 40.15 71.25 40.30Q71.25 40.35 71.30 40.50L71.70 40.85Q71.80 41.85 72.45 41.65L72.45 41.85Q72.50 41.90 72.60 41.90Q72.60 41.90 72.75 41.85Q72.90 42.20 73.10 42.20Q73.20 42.20 73.65 42.05L73.80 41.90L73.80 41.20Q73.90 41.10 73.90 41.05Q73.90 40.95 73.88 40.75Q73.85 40.55 73.80 40.35Q73.65 40.30 73.50 39.95Q73.50 39.75 73.45 39.60Q73.25 39.20 72.95 39L72.70 39Q72.35 39 72.22 39.15Q72.10 39.30 72 39.30L71.60 39.20Q71.50 38.90 71.20 38.65Q71.25 38.45 71.35 38.23Q71.45 38 71.60 37.65Q71.80 37.65 72.08 37.48Q72.35 37.30 72.45 37.30L72.60 37.40L73.25 37.40Q73.35 37.65 73.60 37.65Q73.55 37.65 74.80 37.30Q74.80 37.25 75.15 37.05Q75.50 36.85 75.60 36.85Q75.65 36.85 75.67 36.92Q75.70 37 75.75 37Q76 37 76.05 36.70Q76.20 36.70 76.35 36.65L76.65 36.65Q76.80 36.65 77.13 36.48Q77.45 36.30 77.55 36.35Q77.50 36.40 77.50 36.55Q74.95 37.70 75.15 37.70Q75.05 37.70 75.05 37.65L75 37.65Q75 37.65 74.58 37.88Q74.15 38.10 73.65 38.40L73.40 38.70L74.25 40.15L74.25 40.25Q74.25 40.45 74.40 40.90Q74.40 40.90 74.33 41.20Q74.25 41.50 74.25 41.65L74.25 42Q74.25 42.50 74.10 42.90Q74 42.95 73.88 43.05Q73.75 43.15 73.60 43.25Q73.60 43.35 73.55 43.40Q73.10 44 72.60 44L72.25 43.90Q72.05 43.90 71.85 44.10M70.75 33.90Q71.15 33.75 71.40 33.75Q71.50 33.75 71.60 33.80Q71.70 33.85 71.80 33.85Q71.85 33.85 72 33.77Q72.15 33.70 72.15 33.70L72.25 33.70Q72.25 33.75 72.30 33.75L72.80 33.60Q72.85 33.60 72.88 33.65Q72.90 33.70 72.95 33.70Q73 33.70 73.15 33.55Q73.30 33.40 73.40 33.40Q73.45 33.40 73.45 33.45L73.50 33.45Q73.50 33.35 74.05 33.20L74.20 33.30Q74.30 33.10 74.90 32.90L75.25 32.55L75.35 32.55Q75.60 32.55 76.15 32.15Q76.30 32.15 76.40 32.10Q76.75 31.85 76.85 31.80Q76.95 31.75 77 31.65Q77.30 31.60 77.40 31.45Q77.50 31.30 77.55 31.30Q77.60 31.30 77.60 31.35L77.65 31.35Q77.80 31.35 78.13 31.17Q78.45 31 78.45 30.95L78.45 31L78.50 31Q78.65 31 79.65 30.20L79.85 29.90Q80.10 30.15 80.20 30.15Q80.35 30 80.33 30.05Q80.30 30.10 81.10 29.60L81.25 29.35Q81.35 29.40 81.42 29.40Q81.50 29.40 81.50 29.40Q81.50 29.15 81.67 29Q81.85 28.85 82.15 28.25Q81.80 28.05 81.75 28.05Q81.60 28.05 81.20 28.42Q80.80 28.80 80.60 28.80Q80.50 28.80 80.50 28.75L80.65 28.50Q80.70 28.50 80.85 28.38Q81 28.25 81.10 28.25Q81.20 28 81.28 27.88Q81.35 27.75 81.35 27.75Q81.90 27.25 82.40 26.75Q82.90 26.25 83.25 25.70Q83.45 25.50 83.67 25.18Q83.90 24.85 84.30 24.30L84.30 24.05L84.50 23.85Q84.50 23.55 84.70 23.50Q84.80 22.95 84.90 22.57Q85 22.20 85 22Q85 21.55 84.05 21.10L83.55 21Q83.50 21 83.42 20.88Q83.35 20.75 83.30 20.75L82.95 20.85L82.80 20.95L82.65 20.95Q82.60 20.90 82.55 20.90Q82.45 20.90 82.40 20.95Q82.35 21 82.30 21Q82.25 21 82.20 20.95Q82.15 20.90 82.10 20.90Q82.10 20.90 81.90 21Q81.75 20.95 81.55 21L81.15 21.15L81 21Q80.95 21.05 80.88 21.15Q80.80 21.25 80.75 21.25Q80.70 21.20 80.65 21.20Q80.60 21.20 80.60 21.20Q80.40 21.20 80.15 21.60Q80.05 21.65 79.83 21.70Q79.60 21.75 79.35 21.85Q79.15 22.05 78.45 22.35L77 23.50Q77 23.45 76.90 23.35Q76.85 23.40 76.40 23.70L76.15 24.10L75.90 24.10L74.75 25.20Q74.75 25.30 74.70 25.35Q74.45 25.55 74.13 25.93Q73.80 26.30 73.40 26.80Q73.35 26.95 73.25 27.15Q73.15 27.35 73.05 27.60Q72.95 27.70 72.83 27.92Q72.70 28.15 72.75 28.35L72.25 28.90L72.15 29.35Q72.05 29.55 71.90 29.85Q71.75 30.15 71.50 30.55Q71.55 30.65 71.45 30.95Q71.55 30.95 71.55 31Q71.35 31.15 71.25 31.55Q71.10 32.25 71.05 32.33Q71 32.40 70.90 32.50Q70.85 32.75 70.83 32.90Q70.80 33.05 70.80 33Q70.80 33.70 70.90 33.40L70.75 33.90M71.30 40.35L71.25 40.30Q71.25 40.20 71.30 40.35ZM81.55 44.15L81.55 44.15Q81.60 44.15 81.45 44Q81.35 44.10 81.00 44.10Q80.90 44.10 80.73 44.02Q80.55 43.95 80.50 43.95Q80.45 43.95 80.28 44Q80.10 44.05 80.00 44.05Q79.95 44.05 79.70 43.98Q79.45 43.90 79.35 43.90Q79.30 43.25 78.20 43.40L78.20 43.30Q78.20 42.95 78.05 42.75Q77.90 42.55 77.80 42.10Q77.75 42.05 77.63 41.88Q77.50 41.70 77.50 41.15Q77.50 41.15 77.60 40.95Q77.65 40.90 77.50 40.70Q77.55 40.65 77.70 39.90Q77.75 39.65 77.78 39.50Q77.80 39.35 77.80 39.25Q77.50 39 77.50 38.80L77.65 38.45Q77.70 38.50 78.00 38.50L78.20 38.50Q78.30 38.35 78.43 38.17Q78.55 38 78.75 37.80Q79.05 37.80 79.30 37.25L79.25 37.05Q79.30 36.95 79.35 36.90Q79.35 36.90 79.40 36.90Q79.40 36.90 79.40 36.90Q79.40 36.90 79.35 36.90Q79.40 36.90 79.50 36.95Q79.55 36.90 79.70 36.75Q79.85 36.60 80.20 36.35Q80.35 36.15 80.70 35.85Q81.30 35.45 81.38 35.45Q81.45 35.45 81.80 35.15Q81.90 35.20 81.95 35.23Q82.00 35.25 82.00 35.25Q82.10 35.25 82.80 34.90Q82.75 35.10 82.90 35.10L83.25 35.10Q83.50 34.95 83.50 34.95Q84.00 34.95 84.70 35.50Q84.75 35.55 84.85 35.55L84.85 36.35Q84.75 36.35 84.65 36.25L84.45 36.70Q84.65 37 84.65 37Q84.55 37.05 84.15 37.85L84.15 38.25Q83.95 38.25 83.80 38.30Q83.00 38.85 82.90 38.85L82.80 38.85Q82.75 38.80 82.70 38.80Q82.50 38.80 82.15 39Q82.10 39.05 82.00 39.17Q81.90 39.30 81.75 39.30L81.70 39.30Q81.70 39.25 81.65 39.25Q81.55 39.25 81.13 39.42Q80.70 39.60 80.65 39.60L80.55 39.60Q80.50 39.55 80.45 39.55L80.30 39.70L80.00 39.70Q79.80 39.70 79.70 39.60L79.05 39.60Q79.05 39.80 78.93 40.20Q78.80 40.60 78.80 40.65Q78.80 40.80 79.15 41.35Q79.20 41.40 79.35 41.58Q79.50 41.75 79.80 42Q79.90 42.20 80.10 42.40Q80.20 42.45 80.30 42.45Q80.40 42.45 80.55 42.50L80.70 42.70Q80.85 42.60 81.15 42.70L81.40 42.85Q81.65 42.85 81.65 42.85Q81.65 42.80 81.65 42.80Q81.70 42.85 81.65 42.85Q81.70 42.90 81.75 42.90Q81.80 42.90 81.88 42.83Q81.95 42.75 82.00 42.75L82.10 42.75Q82.10 42.80 82.15 42.80Q82.30 42.80 82.50 42.60Q82.65 42.65 82.80 42.60L82.85 42.65L82.85 42.80Q82.75 42.85 82.60 42.95Q82.45 43.05 82.20 43.15L82.20 43.35Q82.20 43.40 82.40 43.40Q83.25 43.40 83.75 42.90Q83.85 42.95 83.90 42.98Q83.95 43 83.95 43Q84.05 43 84.05 42.90L84.30 42.90Q84.40 42.85 84.60 42.63Q84.80 42.40 85.00 42.40L85.20 42.45L85.35 42.05L85.50 42.15Q85.60 42.05 85.95 42.05Q85.95 42.05 85.95 42Q85.95 41.95 86.00 41.90Q86.50 41.80 87.25 41.05L87.45 41.05L88.20 40.45Q88.20 40.35 88.35 40.15Q88.40 40.15 88.50 40.25L88.95 39.65Q89.10 39.65 89.30 39.50L89.45 39.65L89.10 40.10Q88.80 40.30 88.35 40.70Q87.90 41.10 87.35 41.65Q87.00 41.65 86.95 41.85Q86.50 42.05 86.35 42.30L86.20 42.15Q86.15 42.20 85.93 42.38Q85.70 42.55 85.20 42.80Q85.10 42.90 84.90 43.08Q84.70 43.25 84.50 43.25Q84.40 43.25 84.45 43.20L84.40 43.20Q84.20 43.20 84.00 43.35Q83.80 43.50 83.80 43.60Q83.75 43.60 83.65 43.50Q83.00 43.85 82.90 43.85L82.80 43.85L82.75 43.80L82.00 44Q82.00 44 82.00 43.95Q82.00 43.90 81.95 43.85L81.80 44.05Q81.75 44.05 81.68 44.10Q81.60 44.15 81.55 44.15Q81.55 44.15 81.55 44.15M80.35 39.10Q80.30 38.95 80.45 38.95Q80.50 38.95 80.50 39L80.60 39Q80.65 39 80.83 38.85Q81.00 38.70 81.05 38.70Q81.10 38.70 81.20 38.75Q81.30 38.80 81.35 38.80Q81.25 38.80 81.60 38.45L81.75 38.55Q82.90 37.80 82.90 37.25Q82.90 36.60 82.28 36.45Q81.65 36.30 81.10 36.15Q81.00 36.25 80.90 36.25Q80.65 36.65 80.35 36.85Q80.25 36.85 79.75 37.35Q79.75 37.40 79.45 37.80Q79.35 38.15 79.28 38.35Q79.20 38.55 79.20 38.65Q79.40 39 79.60 39L79.65 39Q79.70 38.95 79.75 38.95Q80.00 38.95 80.35 39.10M84.65 37Q84.65 37 84.65 37Q84.65 37 84.65 37L84.65 37M89.65 39.40L89.65 39.30Q89.65 39 89.95 38.95Q89.90 39.15 89.65 39.40ZM89.05 44.55Q89.00 44.55 88.93 44.48Q88.85 44.40 88.75 44.40Q88.80 44.40 88.55 44.50L87.95 43.75L87.95 42.50L88.05 42.40L88.05 42.30Q88.05 42.20 88.13 42.05Q88.20 41.90 88.25 41.70Q88.20 41.65 88.20 41.50Q88.20 41.25 88.55 41.05Q88.50 40.90 88.55 40.55L88.70 40.25Q88.80 40.10 88.65 39.95L88.85 38.85Q88.90 38.80 89.00 38.50L89.20 36.70Q89.15 36.65 89.15 36.50Q89.25 36.30 89.25 36.25Q89.25 35.90 89.20 35.80Q89.15 35.70 89.10 35.60Q89.15 35.40 89.15 35.10Q89.15 34.65 88.80 34.65Q88.80 34.65 88.73 34.67Q88.65 34.70 88.50 34.75L88.45 34.55L88.45 34.50Q88.45 34.25 88.90 34Q88.95 34 88.95 34.05L89.05 34.05Q89.25 34.05 89.45 33.85L90.20 34.45Q90.25 34.45 90.15 34.70L90.40 35.05L90.40 36.25Q90.45 36.35 90.48 36.40Q90.50 36.45 90.50 36.50Q90.50 36.55 90.45 36.60Q90.40 36.65 90.40 36.75L90.40 38.50Q90.35 38.50 90.30 38.55Q90.35 38.60 90.35 39.80Q90.35 39.90 90.25 40.10Q90.15 40.30 90.15 40.35Q90.15 40.40 90.25 40.60L90.35 40.60Q90.35 40.60 90.60 39.85L90.75 39.85Q90.75 39.75 90.75 39.63Q90.75 39.50 90.80 39.30L91.45 38.55Q91.50 38.45 91.60 38.27Q91.70 38.10 91.80 37.90Q91.85 37.80 92.15 37.50Q92.20 37.40 92.25 37.27Q92.30 37.15 92.40 36.95L92.75 36.65Q92.75 36.55 92.88 36.42Q93.00 36.30 93.05 36.15Q93.30 36.10 93.40 35.65Q93.70 35.50 94.20 35L94.20 34.80Q94.60 34.45 94.55 34.45L94.60 34.45Q94.60 34.50 94.65 34.50Q94.60 34.50 95.25 33.75Q95.50 33.65 96.10 32.95Q96.45 32.80 96.90 32.45L97.35 32.45L97.90 32.55Q98.15 32.65 98.45 32.92Q98.75 33.20 98.90 33.90L98.90 34.40Q98.90 34.50 98.88 34.73Q98.85 34.95 98.80 35.30Q98.75 36.05 97.50 37.20Q97.30 37.20 96.95 37.45L96.95 36.90Q97.05 36.80 97.15 36.63Q97.25 36.45 97.35 36.25Q97.35 36.15 96.95 36.05Q97.25 35.45 97.25 35.30Q97.25 35.15 97.10 34.95Q97.00 35 96.95 35.02Q96.90 35.05 96.90 35.05Q96.50 35.05 96.55 35Q96.50 34.95 96.50 34.75L96.40 34.75Q96.30 34.75 96.10 34.92Q95.90 35.10 95.85 35.10Q95.80 35.10 95.80 35.05L95.70 35.05Q95.65 35.05 95.55 35.15Q95.45 35.25 95.35 35.25Q95.25 35.25 95.15 35.10Q95.05 35.10 95.00 35.15Q95.10 35.35 95.00 35.60Q94.80 35.90 94.60 35.90Q94.55 35.90 94.48 35.85Q94.40 35.80 94.35 35.80Q94.35 36.05 94.40 36.15L94.00 36.65Q93.90 36.75 93.75 36.75Q93.70 36.75 93.60 36.65L93.35 37.35L93.30 37.35Q93.05 37.35 92.55 38L92.35 38.10Q91.70 39.25 91.23 40Q90.75 40.75 90.50 41.05L90.50 41.45Q90.15 41.70 90.10 42.50Q90.00 42.60 89.90 42.85Q90.00 43.05 89.90 43.45Q89.85 43.50 89.80 43.67Q89.75 43.85 89.65 44.15Q89.40 44.55 89.05 44.55ZM103.00 45.25Q101.45 44.10 101.25 42.30Q101.20 42.25 101.18 42.20Q101.15 42.15 101.05 42.10Q101.05 41.90 101.03 41.70Q101.00 41.50 100.95 41.30Q100.75 40.55 100.65 38.75Q100.65 38.70 100.60 38.48Q100.55 38.25 100.55 38.15L100.60 38.10Q100.70 37.85 100.55 37.75L100.75 37.50Q100.75 37.50 100.65 37.40Q100.80 37 100.80 36.65Q100.80 36.55 100.68 36.42Q100.55 36.30 100.55 36.30Q100.45 36.30 100.45 36.40Q100.25 36.20 99.95 36.20Q99.90 36.20 99.80 36.25Q99.70 36.30 99.65 36.30Q99.60 36.30 99.50 36.25Q99.40 36.20 99.35 36.20Q99.30 36.20 99.30 36.25Q99.30 36.30 99.25 36.30Q99.15 36.30 98.95 35.95Q98.70 36.15 98.50 36.15Q98.35 36.15 97.80 35.80Q97.90 35.65 98.10 35.65Q98.30 35.65 98.40 35.75L98.55 35.55Q98.85 35.85 99.00 35.85Q99.10 35.85 99.30 35.65L99.45 35.65L99.45 35.90L100.90 35.90L101.15 35.40Q101.05 35.20 101.05 35.10Q101.05 34.75 101.35 34.17Q101.65 33.60 101.65 33.30Q101.95 33.10 101.90 32.90Q101.90 32.90 101.80 32.60Q101.95 32.45 101.95 32.30L102.05 32.40Q102.05 32.40 102.15 32.05L102.40 31.70Q102.40 31.40 102.70 31.10Q102.75 30.85 102.85 30.52Q102.95 30.20 103.20 29.85L104.00 28.70Q104.00 28.65 103.90 28.55Q104.15 27.75 104.50 27.45L105.05 27L105.05 26.85Q105.45 26.45 105.53 26.27Q105.60 26.10 105.80 25.82Q106.00 25.55 106.60 24.95Q106.70 24.90 106.88 24.77Q107.05 24.65 107.25 24.45L107.35 24.10Q107.60 24 107.80 23.80Q107.95 23.60 108.85 22.70Q108.85 22.70 108.90 22.70Q108.95 22.70 109.00 22.65Q109.30 22.25 109.90 22.05Q109.90 22.05 110.03 21.95Q110.15 21.85 110.30 21.50Q110.75 21.30 110.75 21.30L110.85 21.30Q110.85 21.35 110.90 21.35Q110.85 21.35 111.20 20.90Q111.70 20.65 111.95 20.65Q112.15 20.50 112.45 20.27Q112.75 20.05 113.10 19.70Q113.15 19.70 113.25 19.70Q113.35 19.70 113.45 19.65Q113.50 19.55 113.85 19.30Q113.95 19.30 114.18 19.25Q114.40 19.20 114.90 18.95Q115.45 18.65 115.50 18.65L115.55 18.65Q115.50 18.70 115.60 18.70Q115.65 18.70 115.65 18.60L116.10 18.60L116.25 18.40Q116.65 18.35 116.90 18.35Q117.15 18.35 117.35 18.30Q117.50 18.25 117.75 18.13Q118.00 18 118.05 18Q118.10 18 118.10 18.05Q118.10 18.10 118.15 18.10Q118.20 18.10 118.60 18Q119.00 17.90 119.10 17.90Q119.15 17.90 119.20 17.95Q119.25 18 119.35 18Q119.40 18 119.45 17.95Q119.50 17.90 119.55 17.90Q119.65 17.90 119.73 17.95Q119.80 18 119.85 18Q119.90 18 119.95 17.95L120.05 17.95Q120.15 17.95 120.28 18.02Q120.40 18.10 120.50 18.10Q120.65 18.10 120.55 18Q120.90 18 121.28 18.15Q121.65 18.30 121.65 18.30Q121.60 18.25 121.80 18.20Q122.05 18.45 122.10 18.45Q122.15 18.45 122.20 18.40Q122.25 18.35 122.30 18.35L122.45 18.50L122.80 18.50Q122.85 18.70 122.90 18.70L123.30 18.70Q123.25 19 123.45 19Q123.55 19 123.50 18.95L123.55 18.95Q123.65 18.95 123.75 19.13Q123.85 19.30 123.90 19.30Q123.90 19.25 124.15 19.20L124.35 19.45Q124.80 19.50 124.95 20.02Q125.10 20.55 125.25 20.60Q125.25 21.30 125.60 21.35L125.60 21.85Q125.50 21.95 125.50 22.15Q125.20 22.15 125.10 21.40L124.80 21.25Q124.80 21.05 124.35 20.10Q123.55 19.95 123.50 19.60Q123.40 19.65 123.30 19.65L123.30 19.65L123.25 19.65Q123.25 19.65 123.30 19.65Q123.30 19.55 122.85 19.50Q122.50 19.35 122.00 19.35Q121.95 19.35 121.78 19.50Q121.60 19.65 121.55 19.65L121.25 19.65L121.25 19.50Q121.15 19.40 121.10 19.40Q121.05 19.40 121.05 19.45Q121.05 19.50 121.00 19.50Q120.90 19.50 120.68 19.38Q120.45 19.25 120.40 19.25L119.70 19.30L119.25 19.80Q119.20 19.80 119.10 19.72Q119.00 19.65 118.95 19.65Q119.00 19.70 118.80 19.75L118.50 19.45Q117.95 19.95 117.75 19.95L117.70 19.95Q117.70 19.90 117.65 19.90Q117.60 19.90 117.35 20.17Q117.10 20.45 116.65 20.45Q116.35 20.45 116.10 20.20L115.00 21.45Q114.95 21.50 114.80 21.50Q114.75 21.50 114.75 21.45L114.70 21.45Q114.65 21.45 114.58 21.52Q114.50 21.60 114.25 21.60Q114.20 21.60 114.10 21.72Q114.00 21.85 113.95 21.85Q113.90 21.85 113.90 21.80L113.80 21.80Q113.75 21.80 113.45 22Q113.15 22.20 113.10 22.20L112.90 22.20Q112.90 22.35 112.85 22.45L112.35 22.85L112.35 23.15Q111.85 23.50 111.55 23.50L111.50 23.50Q111.50 23.45 111.45 23.45Q111.25 23.45 110.55 24.15L110.55 24.25Q110.55 24.30 110.38 24.45Q110.20 24.60 109.35 25.05Q109.30 25.15 109.08 25.25Q108.85 25.35 108.60 25.60Q108.35 25.60 108.00 26.10Q107.95 26.25 107.55 26.35Q107.30 26.55 107.00 26.88Q106.70 27.20 106.40 27.60Q106.30 28 105.75 28.30Q105.75 28.35 105.70 28.35Q105.65 28.35 105.25 28.75Q105.10 28.95 105.08 29.17Q105.05 29.40 105.00 29.50Q105.00 29.55 104.90 29.90Q104.80 30.25 104.45 30.30L104.25 30.60Q103.75 30.90 103.65 31.35Q103.50 31.35 103.35 31.75Q103.35 31.80 103.45 31.90Q103.40 32.10 103.10 32.15Q103.10 32.15 103.20 32.45Q103.15 32.55 103.10 32.73Q103.05 32.90 102.95 33.15Q102.95 33.15 102.95 33.25Q102.95 33.35 102.90 33.55L102.60 33.80Q102.60 33.95 102.15 34.80Q102.20 35 102.25 34.95L102.05 35.35L102.05 35.65Q102.45 35.50 102.65 35.50Q103.40 35.50 103.35 35.45L103.70 35.55L103.95 35.55L104.85 35.15Q105.10 34.95 105.10 34.95Q105.25 34.95 105.40 34.65Q105.75 34 106.20 33.45L106.20 33.20Q106.35 33.05 106.50 32.60L106.75 32.40Q106.75 32.25 106.90 31.95Q106.90 31.90 107.85 31.15L108.05 30.75Q108.25 30.70 108.45 30.35Q108.45 30.35 108.55 30.45Q109.20 30.05 109.10 30.05Q109.15 30.05 109.40 30.15Q109.65 30.25 109.70 30.25Q109.75 30.25 109.83 30.20Q109.90 30.15 110.00 30.15Q110.60 30.15 110.95 31.35L111.15 32.45Q111.20 32.60 111.20 33.05Q111.40 33.25 111.70 33.25L111.85 33.25Q112.00 33.05 112.40 32.95Q112.45 32.95 112.58 32.83Q112.70 32.70 112.75 32.70Q112.80 32.70 112.80 32.75L112.90 32.75Q112.95 32.75 112.95 32.70Q112.95 32.65 113.15 32.60Q113.30 32.60 113.45 32.55Q113.90 32.35 113.90 32.35L113.95 32.35Q114.00 32.40 114.05 32.40Q114.10 32.40 114.48 32.13Q114.85 31.85 114.90 31.85L114.95 31.85Q114.95 31.90 115.00 31.90L116.05 31.15Q117.00 30.65 117.25 30.65Q117.25 30.65 117.35 30.73Q117.45 30.80 117.50 30.80Q117.55 30.80 117.85 30.57Q118.15 30.35 118.25 30.30Q118.95 30 118.85 29.90Q119.20 29.95 120.30 29Q121.45 28 121.50 28Q121.55 28 121.58 28.05Q121.60 28.10 121.65 28.10Q121.75 28.10 122.45 27.25Q122.65 27.20 122.90 27.02Q123.15 26.85 123.55 26.25L123.90 25.95Q123.90 25.80 123.95 25.65Q124.00 25.65 124.10 25.55L124.10 25.30Q124.20 25.30 124.30 25.20Q124.70 24.75 124.90 23.95Q124.95 23.90 125.03 23.85Q125.10 23.80 125.15 23.70Q125.15 23.45 125.10 23.30Q125.30 23.20 125.30 22.80Q125.30 22.40 125.50 22.30L125.70 22.30L125.80 22.75Q125.80 22.80 125.75 22.85L125.75 22.90L125.45 23.65Q125.30 23.80 125.25 23.95Q125.25 24.05 125.40 24.05Q125.35 24.30 125.30 24.30Q125.25 24.30 125.13 24.50Q125.00 24.70 124.60 25.60Q124.55 25.80 124.43 25.95Q124.30 26.10 124.20 26.30Q124.15 26.35 123.90 26.55Q123.65 26.75 123.70 26.90Q123.55 27 123.35 27.22Q123.15 27.45 122.90 27.70Q122.85 27.70 122.75 27.60Q122.40 27.65 122.40 28.10Q122.35 28.10 122.30 28.05Q122.25 28.15 121.90 28.55Q121.55 28.95 121.35 28.95Q121.35 28.95 121.35 28.95L121.35 28.95Q121.25 28.90 121.20 28.90Q121.15 29.05 120.75 29.45L120.00 29.80Q119.95 29.80 119.95 29.90Q119.65 29.95 119.00 30.20Q118.95 30.40 117.95 30.75Q117.85 30.90 117.63 31.13Q117.40 31.35 117.00 31.35Q116.95 31.35 116.90 31.30L116.75 31.30Q116.40 31.45 116.28 31.73Q116.15 32 115.30 32.15Q114.85 32.60 114.70 32.60Q114.65 32.60 114.65 32.55L114.60 32.55Q114.65 32.55 114.10 32.85Q113.95 32.85 113.80 32.90Q112.95 33.25 113.00 33.25Q112.95 33.25 112.98 33.20Q113.00 33.15 112.90 33.15Q112.85 33.15 112.58 33.33Q112.30 33.50 112.25 33.50L112.20 33.50Q112.20 33.45 112.15 33.45Q111.95 33.45 111.70 33.73Q111.45 34 111.45 34.05Q111.20 34.05 111.15 33.85Q110.75 34.10 110.70 34.33Q110.65 34.55 110.60 34.80Q110.45 35.15 110.25 35.52Q110.05 35.90 109.65 36.30L108.70 37.25Q108.25 37.40 108.10 37.80L107.45 38.30Q107.45 38.30 107.35 38.20Q106.70 38.65 106.70 38.65Q106.70 38.65 106.70 38.65L106.70 38.65Q106.65 38.60 106.60 38.60L106.20 39.05Q106.20 39.30 110.80 40.60Q110.95 40.65 111.33 40.75Q111.70 40.85 112.55 40.85Q112.85 40.95 112.70 40.95Q112.80 40.95 112.80 40.90Q113.10 40.90 113.45 40.75Q113.55 40.75 113.55 40.80Q113.55 40.85 113.60 40.85L113.70 40.85L114.00 40.75L114.00 40.80Q114.95 40.60 115.10 40.20Q115.15 40 115.30 40.05Q115.40 40.25 115.35 40.40Q115.10 41.15 114.25 41.20L114.00 41.35Q113.55 41.50 113.55 41.55Q113.60 41.55 113.60 41.55Q113.60 41.55 113.60 41.55Q113.60 41.55 113.55 41.55Q113.50 41.50 113.40 41.48Q113.30 41.45 113.20 41.45Q113.15 41.45 113.00 41.58Q112.85 41.70 112.65 41.70L112.40 41.70Q112.30 41.75 112.20 41.75L111.85 41.65Q111.80 41.65 111.68 41.70Q111.55 41.75 111.45 41.75Q111.40 41.75 111.30 41.70Q111.20 41.65 111.15 41.65Q111.10 41.65 111.03 41.70Q110.95 41.75 110.90 41.75Q110.70 41.75 110.50 41.55Q110.30 41.75 110.15 41.75Q110.10 41.75 109.93 41.65Q109.75 41.55 109.65 41.55Q109.60 41.55 109.53 41.60Q109.45 41.65 109.40 41.65Q109.20 41.65 108.90 41.35Q108.85 41.35 108.70 41.30Q108.55 41.25 108.45 41.25Q108.40 41.25 108.33 41.30Q108.25 41.35 108.20 41.35Q108.15 41.35 107.95 41.17Q107.75 41 107.70 41Q107.65 41 107.60 41.05L107.50 41.05Q107.40 41.05 107.15 41.10Q106.90 41.15 106.85 41.25Q106.80 40.95 106.60 40.95L105.90 40.95Q105.80 40.95 105.73 40.90Q105.65 40.85 105.25 40.75Q105.15 40.60 105.00 40.50Q104.90 39.95 104.80 39.95Q104.75 39.95 104.63 39.98Q104.50 40 104.25 40.05Q104.15 40.25 103.98 40.58Q103.80 40.90 103.60 41.30Q103.55 41.35 103.65 41.70L103.50 41.90L103.50 42Q103.50 42.30 103.20 42.45Q103.20 42.45 103.25 42.60Q103.30 42.75 103.40 43.05Q103.50 43.30 103.40 43.45Q103.30 43.75 103.30 43.75Q103.30 43.85 103.40 43.88Q103.50 43.90 103.50 44.15Q103.50 44.25 103.43 44.45Q103.35 44.65 103.25 45.25L103.00 45.25M108.30 34.15L108.50 34.15Q108.55 34.15 108.68 34.08Q108.80 34 108.85 34Q108.90 34 108.90 34.05L109.00 34.05Q109.00 34.05 109.40 33.85L109.80 33.35Q109.95 33.10 109.95 32.95Q109.95 32.75 109.75 32.60Q109.55 32.75 109.35 32.85Q109.15 32.95 108.95 33.05Q108.75 33.15 108.48 33.45Q108.20 33.75 108.20 33.90Q108.20 34.05 108.30 34.15M104.80 38.80L105.05 38.80L105.55 38.55L105.85 38.10Q105.95 38.10 106.55 37.80Q107.20 37.50 107.20 37.45Q107.20 37.30 107.35 37.25Q107.50 37.15 107.65 37.02Q107.80 36.90 107.90 36.65Q108.10 36.65 108.20 36.38Q108.30 36.10 108.55 35.70L109.10 35.10Q109.10 34.60 109.05 34.65Q108.80 34.90 108.70 34.90Q108.30 34.90 108.30 34.90Q108.25 35 108.15 35Q108.10 35 107.93 34.92Q107.75 34.85 107.70 34.85Q107.70 34.85 107.45 35.25Q107.10 35.25 107.03 35.42Q106.95 35.60 106.80 35.70Q106.75 36 106.50 36Q106.45 36 106.40 35.92Q106.35 35.85 106.30 35.85Q106.15 35.85 106.10 35.90Q106.10 35.95 106.13 36Q106.15 36.05 106.10 36.50Q106.10 36.50 106.13 36.52Q106.15 36.55 106.15 36.60Q106.15 36.75 105.93 36.95Q105.70 37.15 105.70 37.25Q105.45 37.90 105.25 37.85L105.05 37.80Q105.20 38.25 105.25 38.25Q105.25 38.25 105.25 38.20L105.25 38.20Q105.25 38.20 105.25 38.20Q105.25 38.20 105.25 38.20Q105.25 38.25 105.25 38.25Q105.20 38.35 105.15 38.40Q104.90 38.40 104.80 38.50L104.80 38.80M108.35 34.85Q108.35 34.85 108.35 34.85Q108.35 34.85 108.35 34.85L108.35 34.85M102.80 44.15Q102.80 44 102.85 43.67Q102.90 43.35 102.90 43.20L102.85 42.80Q102.85 42.80 102.88 42.80Q102.90 42.80 102.95 42.75Q103.15 42.50 103.05 42.25Q103.05 42.20 103.10 42.20Q103.20 41.80 103.00 41.65Q103.15 41.40 103.10 41.30Q103.05 41.25 103.05 41.20L103.25 40.85L103.25 40.55Q103.25 40.55 103.35 40.45Q103.30 40.50 103.30 40.20Q103.45 40.10 103.60 39.90Q103.55 39.80 103.55 39.60Q103.55 39.40 103.50 39.20Q103.65 39 103.80 38.40Q103.75 38.25 103.80 37.95Q103.95 37.70 104.20 37.70Q104.20 37.30 104.15 37.15L104.30 36.65Q104.80 35.85 104.80 36.05Q104.80 35.90 104.60 35.85L104.45 35.85Q104.40 35.85 104.23 35.95Q104.05 36.05 104.00 36.05L103.45 36.05Q102.95 36.05 102.88 36.08Q102.80 36.10 102.75 36.15L102.65 36.15Q102.60 36.15 102.63 36.13Q102.65 36.10 102.55 36.05Q102.10 36.20 102.00 36.20L101.90 36.20Q101.85 36.45 101.70 36.85Q101.55 37.25 101.45 37.60Q101.55 37.70 101.45 37.95Q101.60 38.10 101.45 38.30L101.45 38.35Q101.65 38.75 101.65 39Q101.65 39.30 101.45 39.65Q101.40 39.70 101.25 39.70L101.25 40L101.35 40.35L101.35 41.05Q101.60 41.05 101.65 41.10Q101.60 41.30 101.58 41.52Q101.55 41.75 101.55 41.90Q101.55 42.55 101.95 42.80Q102.00 42.95 102.08 43.13Q102.15 43.30 102.40 43.40Q102.40 43.55 102.45 43.80Q102.50 44.05 102.80 44.15ZM120.20 44.15L120.20 44.15Q120.25 44.15 120.10 44Q120.00 44.10 119.65 44.10Q119.55 44.10 119.38 44.02Q119.20 43.95 119.15 43.95Q119.10 43.95 118.93 44Q118.75 44.05 118.65 44.05Q118.60 44.05 118.35 43.98Q118.10 43.90 118.00 43.90Q117.95 43.25 116.85 43.40L116.85 43.30Q116.85 42.95 116.70 42.75Q116.55 42.55 116.45 42.10Q116.40 42.05 116.28 41.88Q116.15 41.70 116.15 41.15Q116.15 41.15 116.25 40.95Q116.30 40.90 116.15 40.70Q116.20 40.65 116.35 39.90Q116.40 39.65 116.43 39.50Q116.45 39.35 116.45 39.25Q116.15 39 116.15 38.80L116.30 38.45Q116.35 38.50 116.65 38.50L116.85 38.50Q116.95 38.35 117.08 38.17Q117.20 38 117.40 37.80Q117.70 37.80 117.95 37.25L117.90 37.05Q117.95 36.95 118.00 36.90Q118.00 36.90 118.05 36.90Q118.05 36.90 118.05 36.90Q118.05 36.90 118.00 36.90Q118.05 36.90 118.15 36.95Q118.20 36.90 118.35 36.75Q118.50 36.60 118.85 36.35Q119.00 36.15 119.35 35.85Q119.95 35.45 120.03 35.45Q120.10 35.45 120.45 35.15Q120.55 35.20 120.60 35.23Q120.65 35.25 120.65 35.25Q120.75 35.25 121.45 34.90Q121.40 35.10 121.55 35.10L121.90 35.10Q122.15 34.95 122.15 34.95Q122.65 34.95 123.35 35.50Q123.40 35.55 123.50 35.55L123.50 36.35Q123.40 36.35 123.30 36.25L123.10 36.70Q123.30 37 123.30 37Q123.20 37.05 122.80 37.85L122.80 38.25Q122.60 38.25 122.45 38.30Q121.65 38.85 121.55 38.85L121.45 38.85Q121.40 38.80 121.35 38.80Q121.15 38.80 120.80 39Q120.75 39.05 120.65 39.17Q120.55 39.30 120.40 39.30L120.35 39.30Q120.35 39.25 120.30 39.25Q120.20 39.25 119.78 39.42Q119.35 39.60 119.30 39.60L119.20 39.60Q119.15 39.55 119.10 39.55L118.95 39.70L118.65 39.70Q118.45 39.70 118.35 39.60L117.70 39.60Q117.70 39.80 117.58 40.20Q117.45 40.60 117.45 40.65Q117.45 40.80 117.80 41.35Q117.85 41.40 118.00 41.58Q118.15 41.75 118.45 42Q118.55 42.20 118.75 42.40Q118.85 42.45 118.95 42.45Q119.05 42.45 119.20 42.50L119.35 42.70Q119.50 42.60 119.80 42.70L120.05 42.85Q120.30 42.85 120.30 42.85Q120.30 42.80 120.30 42.80Q120.35 42.85 120.30 42.85Q120.35 42.90 120.40 42.90Q120.45 42.90 120.53 42.83Q120.60 42.75 120.65 42.75L120.75 42.75Q120.75 42.80 120.80 42.80Q120.95 42.80 121.15 42.60Q121.30 42.65 121.45 42.60L121.50 42.65L121.50 42.80Q121.40 42.85 121.25 42.95Q121.10 43.05 120.85 43.15L120.85 43.35Q120.85 43.40 121.05 43.40Q121.90 43.40 122.40 42.90Q122.50 42.95 122.55 42.98Q122.60 43 122.60 43Q122.70 43 122.70 42.90L122.95 42.90Q123.05 42.85 123.25 42.63Q123.45 42.40 123.65 42.40L123.85 42.45L124.00 42.05L124.15 42.15Q124.25 42.05 124.60 42.05Q124.60 42.05 124.60 42Q124.60 41.95 124.65 41.90Q125.15 41.80 125.90 41.05L126.10 41.05L126.85 40.45Q126.85 40.35 127.00 40.15Q127.05 40.15 127.15 40.25L127.60 39.65Q127.75 39.65 127.95 39.50L128.10 39.65L127.75 40.10Q127.45 40.30 127.00 40.70Q126.55 41.10 126.00 41.65Q125.65 41.65 125.60 41.85Q125.15 42.05 125.00 42.30L124.85 42.15Q124.80 42.20 124.58 42.38Q124.35 42.55 123.85 42.80Q123.75 42.90 123.55 43.08Q123.35 43.25 123.15 43.25Q123.05 43.25 123.10 43.20L123.05 43.20Q122.85 43.20 122.65 43.35Q122.45 43.50 122.45 43.60Q122.40 43.60 122.30 43.50Q121.65 43.85 121.55 43.85L121.45 43.85L121.40 43.80L120.65 44Q120.65 44 120.65 43.95Q120.65 43.90 120.60 43.85L120.45 44.05Q120.40 44.05 120.33 44.10Q120.25 44.15 120.20 44.15Q120.20 44.15 120.20 44.15M119.00 39.10Q118.95 38.95 119.10 38.95Q119.15 38.95 119.15 39L119.25 39Q119.30 39 119.48 38.85Q119.65 38.70 119.70 38.70Q119.75 38.70 119.85 38.75Q119.95 38.80 120.00 38.80Q119.90 38.80 120.25 38.45L120.40 38.55Q121.55 37.80 121.55 37.25Q121.55 36.60 120.93 36.45Q120.30 36.30 119.75 36.15Q119.65 36.25 119.55 36.25Q119.30 36.65 119.00 36.85Q118.90 36.85 118.40 37.35Q118.40 37.40 118.10 37.80Q118.00 38.15 117.93 38.35Q117.85 38.55 117.85 38.65Q118.05 39 118.25 39L118.30 39Q118.35 38.95 118.40 38.95Q118.65 38.95 119.00 39.10M123.30 37Q123.30 37 123.30 37Q123.30 37 123.30 37L123.30 37M128.30 39.40L128.30 39.30Q128.30 39 128.60 38.95Q128.55 39.15 128.30 39.40ZM128.80 43.95Q128.65 43.95 128.55 43.70Q128.50 43.75 128.50 43.80L128.20 43.80L128.05 43.50Q128.00 43.55 128.00 43.60Q127.95 43.60 127.85 43.50L127.70 43.60Q127.45 43.35 127.18 42.92Q126.90 42.50 126.85 42.05Q126.80 42 126.65 42L126.65 41.60Q126.85 41.55 126.90 40.80L127.05 40.60L127.05 40.35L126.95 40.25L127.15 40.10L127.70 38.55L128.20 38L128.20 37.85Q128.80 37.45 128.95 37Q129.15 37 129.15 36.80Q129.80 36.60 129.65 36.15Q129.75 36.10 129.78 36.10Q129.80 36.10 129.80 36.10Q129.85 36.10 130.00 36.17Q130.15 36.25 130.20 36.25Q130.30 36.25 130.38 36.20Q130.45 36.15 130.50 36.15Q130.70 36.35 130.75 36.35Q131.00 36.35 131.25 36.15Q131.25 36.20 131.30 36.30Q131.35 36.40 131.35 36.45Q131.35 36.70 131.15 36.90L131.30 37.10Q131.30 37.45 130.70 38.20Q130.10 38.85 129.85 38.95Q129.80 39 129.75 39.13Q129.70 39.25 129.60 39.35L129.50 39.35L129.40 39.25L128.90 39.90Q128.90 40.10 128.50 40.65Q128.35 40.70 128.28 40.67Q128.20 40.65 128.20 40.70L128.20 41.05Q128.45 41.50 128.40 41.65Q128.25 41.95 128.25 42Q128.25 41.95 128.55 42.40Q128.50 42.45 128.50 42.75Q128.90 42.80 129.55 43.20L129.75 43.20Q129.95 43.20 130.03 43.13Q130.10 43.05 130.10 43.05Q130.15 43.05 130.15 43.10L130.20 43.10Q130.25 43.10 130.45 42.90Q130.65 42.70 130.70 42.70Q130.75 42.70 130.75 42.75Q130.75 42.80 130.80 42.80Q130.85 42.80 131.00 42.75Q131.15 42.70 131.25 42.70L131.25 42.55Q131.20 42.50 131.25 42.50L131.25 42.55Q131.30 42.60 131.60 42.70L131.55 42.50Q131.70 42.45 131.80 42.20Q132.05 42.20 132.28 42.13Q132.50 42.05 132.50 41.90L132.90 41.90Q132.90 42 133.00 42Q133.50 42 133.55 41.35L133.85 41.05Q133.85 41.05 133.95 41.15Q134.15 40.95 134.30 40.95Q134.35 40.95 134.38 41Q134.40 41.05 134.50 41.05Q134.65 41.05 134.80 40.90Q134.95 40.75 134.95 40.70Q135.05 40.60 135.20 40.50Q135.35 40.40 135.45 40.20L135.75 40.35Q135.70 40.30 136.80 39.45Q137.30 39.25 137.30 39.15Q137.50 39.15 137.70 39L137.70 38.85L138.40 38.50L138.40 38.80L138.15 38.80Q138.10 38.85 138.10 39.10L136.95 40Q136.85 40 136.90 39.95L136.85 39.95Q136.90 39.95 136.40 40.45Q136.30 40.55 136.00 40.55Q135.35 41.15 135.50 41.10Q135.50 41.10 135.50 41.10L135.50 41.10Q135.45 41.05 135.40 41.05Q135.35 41.10 135.35 41.25L135.30 41.25Q135.10 41.25 134.70 41.65Q134.65 41.65 134.55 41.65Q134.45 41.65 134.35 41.70Q134.15 41.85 133.88 42.08Q133.60 42.30 133.25 42.60L132.95 42.60Q132.60 42.90 132.45 42.90L132.30 42.90Q132.25 42.85 132.20 42.85Q132.15 42.85 131.83 43.05Q131.50 43.25 131.40 43.25L131.35 43.25Q131.35 43.20 131.30 43.20Q131.25 43.20 130.93 43.38Q130.60 43.55 130.55 43.55L130.50 43.55Q130.50 43.50 130.40 43.50Q130.35 43.50 130.28 43.55Q130.20 43.60 130.00 43.65Q129.50 43.90 129.70 43.90Q129.65 43.90 129.40 43.85Q129.15 43.80 129.05 43.80L128.80 43.95M138.80 38.40Q138.75 38.40 138.73 38.33Q138.70 38.25 138.65 38.25L139.35 37.50Q139.55 37.50 139.55 37.60Q139.55 37.80 139.23 38.08Q138.90 38.35 138.80 38.40M132.25 34.40Q131.85 34.40 131.15 33.85Q130.55 33.25 130.55 32.90Q131.15 32.65 131.88 32.33Q132.60 32 133.40 31.60L133.45 31.60Q133.25 32.15 132.90 32.50L133.00 32.85L133.00 33.15L132.75 33.45Q132.75 34.40 132.25 34.40ZM135.55 52.50Q135.45 52.60 135.35 52.40Q135.35 52.25 135.40 51.95Q135.45 51.65 135.50 51.50L136.15 49.05Q136.15 48.85 136.15 48.60Q136.15 48.35 136.20 48.10Q136.30 48 136.40 47.88Q136.50 47.75 136.60 47.55L136.45 47.10Q136.45 47 136.70 46.85Q136.50 46.65 136.60 46.35L137 45.25Q136.85 45.35 136.60 45.65Q136.50 45.55 136.35 45.50Q136.40 45.40 136.25 45.15L136.40 44.50Q136.75 44.30 136.75 44L136.70 43.55Q136.90 43.35 137.10 43Q137.05 42.95 137.05 42.75Q137.10 42.30 137.23 41.92Q137.35 41.55 137.30 41.50L137.30 41.15L137.60 40.25Q137.50 40.15 137.50 40.10Q137.60 39.85 137.85 39.60L137.85 39.30L138.15 39.10L138.15 38.60Q138.30 38.60 138.35 38.55Q138.20 38.40 138.15 38.25Q138.70 38 138.40 37.60L138.55 36.95Q138.55 36.95 138.85 36.85Q138.80 36.65 138.75 36.65L139 36.40Q138.95 36.30 138.95 36.05L139.25 35L139.10 34.85Q139.20 34.60 139.30 34.23Q139.40 33.85 139.60 33.35L139.25 33.35Q139.20 33.35 139.15 33.42Q139.10 33.50 139.05 33.50Q138.95 33.50 139 33.45L138.95 33.45Q138.80 33.45 138.75 33.65Q138.75 33.55 138.70 33.55Q138.60 33.60 138.15 33.85Q138.10 33.85 137.98 33.88Q137.85 33.90 137.70 33.95Q136.80 34.30 136.85 34.30Q136.80 34.30 136.70 34.15Q136.60 33.90 136.70 33.80Q136.65 33.70 136.65 33.40Q136.85 33.20 137.20 32.55Q137.45 32.55 137.80 32.20Q137.80 32.30 137.90 32.40Q137.90 32.35 137.95 32.30Q138.25 32.30 138.30 32.35L139.15 31.95Q139.15 32 139.25 32.10L139.40 32Q139.35 32.15 139.40 32.15Q139.50 32.15 140 31.70L140.35 31.40Q140.35 31.35 140.30 31.35L140.85 29.95Q140.80 29.95 140.70 29.85L140.90 29.70Q141 29.55 141.10 29.35Q141.20 29.15 141.30 28.95Q141.30 28.75 141.30 28.50Q141.30 28.25 141.35 28Q141.40 27.95 141.63 27.55Q141.85 27.15 141.90 26.95Q142 26.75 142.15 26.38Q142.30 26 142.45 25.25Q142.65 25.05 142.95 24.25Q142.95 24.35 143 24.35Q143.10 24.25 143.20 24.05Q143.25 23.90 143.10 23.60L143.20 23.55Q143.20 23.55 143.30 23.25Q143.35 23.20 143.43 23.15Q143.50 23.10 143.55 23L144 21.70L144.05 21.75L144.15 21.75Q144.20 21.70 144.10 21.65L144.30 21.45Q144.30 21.35 144.30 21.25Q144.30 21.15 144.35 21Q144.45 20.90 144.58 20.77Q144.70 20.65 144.90 20.45L145.05 20.45Q145.05 20.45 145.05 20.47Q145.05 20.50 145.10 20.55Q145.30 20.50 145.50 20.20Q145.50 20.20 145.53 20.20Q145.55 20.20 145.60 20.25Q146 20.30 146 20.30Q146 20.30 146.15 20.30L146.40 20.30Q146.80 20.30 146.95 20.45L147.20 20.45Q147.30 20.55 147.30 20.70L147.20 21.05Q147.05 21.60 146.90 21.90Q146.75 22.20 146.45 22.65L146.20 23Q146.10 23.25 145.93 23.65Q145.75 24.05 145.55 24.60Q145.50 24.60 145.48 24.60Q145.45 24.60 145.40 24.80L145.25 25.15Q145.25 25.25 144.90 25.75Q144.80 25.85 144.75 26.40L144.35 27.35Q144.40 27.40 144.40 27.45Q144.05 27.70 143.95 27.70Q143.85 27.70 143.75 27.60L143.95 27.10L143.90 27.05Q143.80 27.15 143.80 27.20Q143.60 27.30 143.55 27.45L143.10 28.65L142.75 29.30L142.10 31.15Q142 31.45 142.10 31.55Q142.10 31.55 142.30 31.45Q142.55 31.85 142.35 31.85Q142.60 31.85 142.65 31.85Q142.70 31.85 142.60 31.80Q142.65 31.75 142.83 31.65Q143 31.55 143.55 31.40Q143.60 31.60 143.70 31.60Q143.80 31.60 144.10 31.42Q144.40 31.25 144.45 31.25Q144.45 31.25 144.53 31.30Q144.60 31.35 144.70 31.45L144.85 31.35L146 31Q146 31 146 31L146 31Q146 31 146.05 31.15Q146.15 31.10 146.20 31.07Q146.25 31.05 146.25 31.05Q146.30 31.05 146.40 31.15Q147 30.75 147.60 30.55Q147.65 30.55 147.65 30.60L147.70 30.60Q147.75 30.60 148.03 30.50Q148.30 30.40 148.40 30.40Q148.40 30.50 148.25 30.65Q147.95 30.70 147.68 30.98Q147.40 31.25 147.35 31.25L147.30 31.25Q147.35 31.20 147.30 31.20Q147.45 31.20 145.85 31.65Q145.70 31.70 145.25 31.92Q144.80 32.15 144.75 32.15L143.95 32.40Q143.90 32.40 143.95 32.35Q143.95 32.30 143.90 32.30Q143.85 32.30 143.83 32.38Q143.80 32.45 143.75 32.45Q142.60 32.45 142.35 32.85L142.20 32.85Q142.15 32.85 142.08 32.80Q142 32.75 141.90 32.75Q141.75 32.75 141.50 33Q141.45 33.20 141.35 33.45Q141.25 33.70 141.15 34.05Q141.15 34.05 140.80 35.05Q140.60 35.60 140.40 36.17Q140.20 36.75 139.95 37.30Q139.90 37.50 139.80 37.85Q139.70 38.20 139.60 38.65Q139.20 40.25 138.25 43.10Q138.10 43.50 137.95 43.75Q138 43.80 138 44.10Q137.95 44.20 137.90 44.35Q137.85 44.50 137.75 44.60L137.75 44.80Q137.75 44.95 137.45 45.50Q137.55 45.85 137.45 45.95Q137.10 47.35 136.80 47.70L136.80 47.85Q136.80 48 136.75 48.23Q136.70 48.45 136.60 48.70Q136.40 49.50 136.15 50.42Q135.90 51.35 135.60 52.45L135.55 52.50M144.40 27.45Q144.40 27.45 144.40 27.45L144.40 27.45M138.75 36.65Q138.75 36.60 138.75 36.65L138.75 36.65Z"/></g></g></svg>