<svg xmlns="http://www.w3.org/2000/svg" viewBox="0 9.470000267028809 213.16000366210938 36.37999725341797" data-asc="0.9052734375"><g fill="#000000"><g fill="#000000" transform="translate(0, 0)"><path d="M13.87 45.26L0 9.47L5.13 9.47L14.43 35.47Q15.55 38.60 16.31 41.33Q17.14 38.40 18.24 35.47L27.91 9.47L32.74 9.47L18.73 45.26L13.87 45.26ZM51.42 36.91L55.96 37.48Q54.88 41.46 51.98 43.65Q49.07 45.85 44.56 45.85Q38.87 45.85 35.53 42.35Q32.20 38.84 32.20 32.52Q32.20 25.98 35.57 22.36Q38.94 18.75 44.31 18.75Q49.51 18.75 52.81 22.29Q56.10 25.83 56.10 32.25Q56.10 32.64 56.08 33.42L36.74 33.42Q36.99 37.70 39.16 39.97Q41.33 42.24 44.58 42.24Q47.00 42.24 48.71 40.97Q50.42 39.70 51.42 36.91M36.99 29.81L51.46 29.81Q51.17 26.54 49.80 24.90Q47.71 22.36 44.36 22.36Q41.33 22.36 39.27 24.39Q37.21 26.42 36.99 29.81ZM61.43 45.26L61.43 19.34L65.38 19.34L65.38 23.27Q66.89 20.51 68.18 19.63Q69.46 18.75 71.00 18.75Q73.22 18.75 75.51 20.17L74.00 24.24Q72.39 23.29 70.78 23.29Q69.34 23.29 68.19 24.16Q67.04 25.02 66.55 26.56Q65.82 28.91 65.82 31.69L65.82 45.26L61.43 45.26ZM87.72 41.33L88.35 45.21Q86.50 45.61 85.03 45.61Q82.64 45.61 81.32 44.85Q80.00 44.09 79.47 42.86Q78.93 41.63 78.93 37.67L78.93 22.75L75.71 22.75L75.71 19.34L78.93 19.34L78.93 12.92L83.30 10.28L83.30 19.34L87.72 19.34L87.72 22.75L83.30 22.75L83.30 37.92Q83.30 39.79 83.53 40.33Q83.76 40.87 84.29 41.19Q84.81 41.50 85.79 41.50Q86.52 41.50 87.72 41.33ZM91.97 45.26L91.97 19.34L95.92 19.34L95.92 23.27Q97.44 20.51 98.72 19.63Q100 18.75 101.54 18.75Q103.76 18.75 106.05 20.17L104.54 24.24Q102.93 23.29 101.32 23.29Q99.88 23.29 98.73 24.16Q97.58 25.02 97.09 26.56Q96.36 28.91 96.36 31.69L96.36 45.26L91.97 45.26ZM125.59 42.07Q123.14 44.14 120.89 45.00Q118.63 45.85 116.04 45.85Q111.77 45.85 109.47 43.76Q107.18 41.67 107.18 38.43Q107.18 36.52 108.04 34.95Q108.91 33.37 110.31 32.42Q111.72 31.47 113.48 30.98Q114.77 30.64 117.38 30.32Q122.71 29.69 125.22 28.81Q125.24 27.91 125.24 27.66Q125.24 24.98 124.00 23.88Q122.31 22.39 118.99 22.39Q115.89 22.39 114.42 23.47Q112.94 24.56 112.23 27.32L107.93 26.73Q108.52 23.97 109.86 22.28Q111.21 20.58 113.75 19.67Q116.28 18.75 119.63 18.75Q122.95 18.75 125.02 19.53Q127.10 20.31 128.08 21.50Q129.05 22.68 129.44 24.49Q129.66 25.61 129.66 28.54L129.66 34.40Q129.66 40.53 129.94 42.15Q130.22 43.77 131.05 45.26L126.46 45.26Q125.78 43.90 125.59 42.07M125.22 32.25Q122.83 33.23 118.04 33.91Q115.33 34.30 114.21 34.79Q113.09 35.28 112.48 36.22Q111.87 37.16 111.87 38.31Q111.87 40.06 113.20 41.24Q114.53 42.41 117.09 42.41Q119.63 42.41 121.61 41.30Q123.58 40.19 124.51 38.26Q125.22 36.77 125.22 33.86L125.22 32.25ZM153.47 45.26L153.47 41.46Q150.44 45.85 145.24 45.85Q142.94 45.85 140.95 44.97Q138.96 44.09 138.00 42.76Q137.04 41.43 136.65 39.50Q136.38 38.21 136.38 35.40L136.38 19.34L140.77 19.34L140.77 33.72Q140.77 37.16 141.04 38.35Q141.46 40.09 142.80 41.08Q144.14 42.07 146.12 42.07Q148.10 42.07 149.83 41.05Q151.56 40.04 152.28 38.29Q153.00 36.55 153.00 33.23L153.00 19.34L157.40 19.34L157.40 45.26L153.47 45.26ZM182.03 36.91L186.57 37.48Q185.50 41.46 182.59 43.65Q179.69 45.85 175.17 45.85Q169.48 45.85 166.15 42.35Q162.82 38.84 162.82 32.52Q162.82 25.98 166.19 22.36Q169.56 18.75 174.93 18.75Q180.13 18.75 183.42 22.29Q186.72 25.83 186.72 32.25Q186.72 32.64 186.69 33.42L167.36 33.42Q167.60 37.70 169.78 39.97Q171.95 42.24 175.20 42.24Q177.61 42.24 179.32 40.97Q181.03 39.70 182.03 36.91M167.60 29.81L182.08 29.81Q181.79 26.54 180.42 24.90Q178.32 22.36 174.98 22.36Q171.95 22.36 169.89 24.39Q167.82 26.42 167.60 29.81ZM192.09 45.26L192.09 19.34L196.04 19.34L196.04 23.02Q198.90 18.75 204.30 18.75Q206.64 18.75 208.61 19.59Q210.57 20.43 211.55 21.80Q212.52 23.17 212.92 25.05Q213.16 26.27 213.16 29.32L213.16 45.26L208.76 45.26L208.76 29.49Q208.76 26.81 208.25 25.48Q207.74 24.15 206.43 23.35Q205.13 22.56 203.37 22.56Q200.56 22.56 198.52 24.34Q196.48 26.12 196.48 31.10L196.48 45.26L192.09 45.26Z"/></g></g></svg>