<svg xmlns="http://www.w3.org/2000/svg" viewBox="0 14.25 214.85000610351562 48.349998474121094" data-asc="0.875"><g fill="#000000"><g fill="#000000" transform="translate(0, 0)"><path d="M20.40 50.30Q20.35 50.30 20.08 50.17Q19.80 50.05 19.75 50.05Q19.70 50.05 19.70 50.13Q19.70 50.20 19.65 50.20L19.55 50.10L19.45 50.25Q19.10 50.05 19.10 50Q19.00 50.05 18.95 50.05Q18.90 50 18.90 49.80L18.50 49.70Q18.45 49.70 18.40 49.77Q18.35 49.85 18.30 49.85Q18.15 49.85 18.00 49.70Q17.85 49.70 17.85 49.90L17.60 49.90Q17.55 49.90 17.25 49.73Q16.95 49.55 16.85 49.55Q16.80 49.55 16.63 49.63Q16.45 49.70 16.40 49.70L15.85 49.70Q15.45 49.30 15.30 49.30L15.15 49.45Q15.05 49.35 14.90 49.35L14.55 49.35Q14.40 49.25 13.90 49Q13.40 48.75 13.10 48.65Q13 48.65 13 48.75Q12.25 47.95 11.95 47.95L11.90 47.95Q11.90 48 11.85 48Q11.80 48 11.70 47.90L11.55 48Q11.50 47.75 11.33 47.70Q11.15 47.65 10.80 47.50Q10.75 47.50 10.68 47.38Q10.60 47.25 10.55 47.25Q10.50 47.25 10.47 47.30Q10.45 47.35 10.40 47.35L10 47.05L10 46.90Q9.50 46.75 9.45 46.65Q9.40 46.70 9.35 46.70Q9.30 46.40 9.10 46.40Q9 46.40 8.95 46.45Q8.75 46.10 8.60 46.10L8.60 45.95L8 45.70Q7.70 45.15 7.50 45.15L7.40 45.15Q7.35 45.20 7.25 45.20L6.80 44.75Q6.70 44.70 6.40 44.40L6.40 44.20Q6.30 44.10 6.15 44.10Q6.25 44 5.40 43.25Q5.35 43.10 5.25 42.83Q5.15 42.55 5.05 42.20Q5 42.20 4.95 42.25Q4.70 42 3.85 41.95Q3.85 41.80 3.80 41.75Q3.65 41.85 3.65 41.90Q3.65 41.90 3.65 41.90Q3.65 41.90 3.65 41.90Q3.65 41.90 3.65 41.90Q3.60 41.85 3.50 41.80Q3.40 41.75 3.20 41.70L2.60 41.50Q2.55 41.45 2.33 41.33Q2.10 41.20 1.70 40.95L1.30 40.45L1.20 40.55L0.90 40.35L0.90 40.20Q0.20 39.60 0 38.95Q0.10 38.70 0 37.70L0.65 36.75Q1.05 36.75 1.05 36.95Q1.05 37.20 0.78 37.40Q0.50 37.60 0.45 37.75Q0.60 37.90 0.75 37.90Q0.70 38 0.70 38.15Q0.70 38.45 1 38.75Q1.05 38.80 1.20 38.80Q1.20 38.80 1.28 38.80Q1.35 38.80 1.45 38.75L1.85 38.75L1.85 39.10Q2.15 39.60 2.30 39.60Q2.35 39.60 2.35 39.55Q2.30 39.50 2.35 39.50Q2.55 39.50 2.75 39.60Q3.00 40.05 3.25 40.05Q3.10 40.05 3.50 39.95L3.75 40.25Q4.05 40.10 4.05 39.95Q4.05 39.90 3.98 39.70Q3.90 39.50 3.85 39.45L3.85 39.25Q3.85 38.95 3.60 38.35L3.60 37.35L3.75 37Q3.70 36.95 3.70 36.85L3.85 36.20Q4.25 35.80 4 35.45Q4.05 35.40 4.50 35.10Q4.55 35.10 4.70 35.25L4.40 36.15Q4.35 36.15 4.25 36.25Q4.35 36.55 4.30 36.85L4.20 37.45L4.30 38.55Q4.30 38.60 4.40 38.60Q4.35 38.70 4.35 38.77Q4.35 38.85 4.35 38.85L4.60 40.05L4.70 40.15Q4.80 40.55 5.10 40.95Q5.20 40.90 5.25 40.88Q5.30 40.85 5.30 40.85L5.55 40.90Q5.55 40.95 5.60 41L5.80 41L5.90 41.10Q6 41.05 6.10 40.85Q6.60 41 6.75 41.40Q7.30 41.40 7.45 41.35Q7.60 41.45 7.65 41.70Q7.85 41.60 7.85 41.60Q7.95 41.60 8.08 41.65Q8.20 41.70 8.25 41.70Q8.20 41.70 8.40 41.55L8.75 41.55Q8.85 41.80 9.05 41.80Q9.15 41.80 9.30 41.73Q9.45 41.65 9.50 41.65Q9.60 41.65 9.75 41.80Q9.90 41.95 9.95 41.95L10.15 41.90Q10.15 42 10.25 42.10Q10.25 42.10 10.80 42Q10.85 41.95 10.95 41.88Q11.05 41.80 11.15 41.80Q11.80 42.15 12.05 42.15Q12.15 42.15 12.25 42.05L12.25 42.20Q12.60 42 12.60 42L13.25 42.20Q13.45 42.20 13.80 41.85Q13.95 42 14.10 42Q14.15 42 14.15 41.95L14.20 41.95Q14.25 41.95 14.33 42.02Q14.40 42.10 14.45 42.10Q14.50 42.10 14.60 42.10Q14.70 42.10 14.90 42.05L15.30 42.05Q15.60 42.05 15.85 41.80Q16 42.15 16.15 42.15L17.35 42.15Q17.30 42.20 17.50 42.20Q17.55 42.20 17.65 42.15Q17.75 42.10 17.80 42.10Q17.90 42.10 17.93 42.15Q17.95 42.20 18.00 42.20Q18.05 42.20 18.30 42.13Q18.55 42.05 18.70 42.05Q18.75 42.05 18.78 42.10Q18.80 42.15 18.85 42.15Q18.90 42.15 19.03 42.08Q19.15 42 19.20 42Q19.25 42 19.55 42.10L19.65 42Q19.70 42.05 20.05 42.05Q20.10 42.05 20.13 42Q20.15 41.95 20.25 41.95Q20.30 41.95 20.43 42Q20.55 42.05 20.65 42.05L21.10 41.95Q21.35 41.95 21.40 41.90L21.50 42Q21.60 41.85 21.75 41.85Q21.80 41.85 21.80 41.90Q21.80 41.95 21.90 41.95Q21.95 41.95 21.90 41.90Q21.90 41.85 22.10 41.80L22.25 41.80Q22.30 41.80 22.45 41.77Q22.60 41.75 22.85 41.75L23.40 41.75Q23.45 41.75 23.48 41.67Q23.50 41.60 23.55 41.60L23.75 41.60Q23.85 41.65 23.95 41.65L24.15 41.50Q24.55 41.45 24.73 41.42Q24.90 41.40 24.85 41.40Q25.55 41.20 25.88 41.10Q26.20 41 26.15 41Q26.15 41 26.15 41L26.15 41Q26.15 41.05 26.35 41.10Q26.40 41.05 26.40 40.85Q26.40 40.65 26.80 40.65Q26.90 40.65 27.10 40.75Q27.10 40.80 27.20 41.10Q27.00 41.45 26.50 41.45Q26.45 41.45 26.40 41.40L26.35 41.40Q26.25 41.40 25.93 41.60Q25.60 41.80 25.55 41.80Q25.40 41.80 25.30 41.95L25.15 41.85Q24.55 41.85 23.65 42.10Q23.20 42.25 23.35 42.25Q23.20 42.25 23.05 42.20L22.80 42.20Q22.75 42.20 22.73 42.25Q22.70 42.30 22.60 42.30Q22.55 42.30 22.55 42.25L22.50 42.25Q22.35 42.25 22.35 42.40Q22.25 42.30 22.15 42.30L21.55 42.45Q21.45 42.45 21.45 42.40L21.40 42.35Q21.35 42.35 21.23 42.42Q21.10 42.50 21.05 42.50L20.95 42.50Q20.95 42.45 20.90 42.45Q20.75 42.45 20.55 42.50Q20.35 42.55 20.00 42.80Q19.85 42.65 19.80 42.65Q19.65 42.65 19.48 42.75Q19.30 42.85 19.25 42.85L19.05 42.85Q18.95 42.80 18.85 42.80Q18.80 42.80 18.70 42.85Q18.60 42.90 18.55 42.90Q18.50 42.90 18.45 42.85Q18.40 42.80 18.30 42.80Q18.25 42.80 18.20 42.85Q18.15 42.90 18.10 42.90Q18.05 42.90 18.00 42.85Q17.95 42.80 17.85 42.80Q17.70 42.80 17.58 42.88Q17.45 42.95 17.45 42.95L17.40 42.95Q17.20 42.95 17.10 42.70Q16.70 42.80 16.55 42.90Q16.60 42.95 16.55 42.95Q16.45 42.95 16.55 42.90Q16.50 42.85 16.45 42.80Q16.40 42.95 16.25 42.95Q16.20 42.95 16.15 42.92Q16.10 42.90 16 42.85Q15.95 42.90 15.95 43.20Q15.70 42.95 15.50 42.95Q15.60 42.95 15.35 43.05Q15.20 42.85 15.10 42.85L14.80 42.85L14.65 42.95L14.15 42.85Q14 42.85 14 42.95L13.85 42.85Q13.75 42.95 13.65 42.95Q13.65 42.95 13.65 42.95L13.65 42.95Q13.65 42.95 13.30 42.75Q13.15 42.90 13.15 43.05L13 43.05L12.90 42.95Q12.85 43 12.85 43.10L12.75 42.95Q12.70 42.95 12.70 43Q12.70 42.90 12.50 42.90Q12.40 42.90 12.35 42.95Q12.35 42.90 12.15 42.75L12 42.85Q11.90 42.85 11.90 42.95Q11.50 42.70 11.40 42.70Q11.45 42.70 11.20 42.80Q11.05 42.65 10.85 42.65Q10.80 42.65 10.63 42.77Q10.45 42.90 10.35 42.90Q10.10 42.90 9.93 42.80Q9.75 42.70 9.70 42.70Q9.80 42.70 9.45 42.80Q9.55 42.70 9.45 42.65Q9.40 42.65 9.40 42.75L9.20 42.75L9.05 42.55L8.60 42.70L7.80 42.45Q6.30 42.45 6.20 42.50Q6.35 42.70 6.65 42.95L6.65 43.10Q6.85 43.20 7.05 43.40Q7.25 43.60 7.50 43.85Q7.65 44.15 8.20 44.40Q8.30 44.45 8.50 44.45Q8.60 44.45 8.65 44.40L8.90 44.40L8.90 44.50Q8.90 44.65 9.13 44.83Q9.35 45 9.35 45.10Q9.35 45.20 9.30 45.25Q10 45.55 9.95 45.55Q10 45.55 10.13 45.48Q10.25 45.40 10.30 45.40Q10.45 45.40 10.60 45.80L10.75 45.65L10.90 45.65Q10.90 45.75 10.85 45.80Q11 45.85 11.10 45.85Q11.20 45.85 11.80 46.10Q11.85 46.10 11.95 46Q12.05 46.20 12.15 46.38Q12.25 46.55 12.45 46.55L12.55 46.55Q12.55 46.50 12.65 46.50Q12.70 46.50 12.65 46.55Q12.65 46.60 12.70 46.60Q12.75 46.60 12.80 46.52Q12.85 46.45 12.90 46.45Q13 46.45 13.15 46.58Q13.30 46.70 13.35 46.80Q13.45 46.65 13.50 46.65Q13.55 46.65 13.78 46.75Q14 46.85 14.10 46.85Q14.30 46.85 14.50 46.70Q14.70 47 15.05 47.20L15.15 47.30Q15.10 47.35 15.10 47.65L15.35 47.55L15.40 47.75Q15.40 48 15.20 48L15.10 48Q15.10 48.10 15.20 48.10Q15.25 48.10 15.35 48.10Q15.45 48.10 15.55 48.05L15.90 48.05Q16 48.05 16 47.80L16.45 47.80Q16.50 47.80 16.58 47.73Q16.65 47.65 16.70 47.65L17.15 47.80L17.35 47.40Q17.55 47.50 17.78 47.50Q18.00 47.50 18.55 47.65L18.65 47.80L18.65 47.65Q18.80 47.60 19.35 47.60Q19.25 47.60 19.85 47.90Q20.15 47.75 20.10 47.70L20.05 47.70L20.05 47.70Q20.05 47.70 20.05 47.70Q20.10 47.70 20.10 47.70Q20.15 47.75 20.20 47.77Q20.25 47.80 20.30 47.80Q20.50 47.60 20.45 47.60Q20.50 47.60 20.55 47.63Q20.60 47.65 20.70 47.70Q20.70 47.70 20.70 47.73Q20.70 47.75 20.75 47.85Q20.85 47.75 21.00 47.75Q21.05 47.75 21.00 47.55Q21.10 47.55 21.25 47.48Q21.40 47.40 21.45 47.40Q21.50 47.40 21.90 47.60Q22.30 47.80 22.35 47.80L22.40 47.80Q22.60 47.60 22.60 47.50Q22.70 47.50 22.85 47.65Q23.10 47.40 23.25 47.40Q23.30 47.40 23.35 47.45Q23.40 47.50 23.45 47.50Q23.60 47.50 23.95 47.15L24.10 47.15Q24.15 47.20 24.20 47.20L24.30 47.20Q24.35 47.40 24.30 47.75L24.45 47.95Q24.55 47.85 24.60 47.95L24.70 47.80L24.70 47.55Q24.70 47.55 24.75 47.48Q24.80 47.40 24.90 47.40Q24.95 47.40 25.00 47.45Q25.05 47.35 25.15 47.20Q25.25 47.05 25.35 46.85Q25.35 46.90 25.45 46.90Q25.70 46.95 25.80 47.05Q25.90 46.90 26.20 46.90L26.35 47.05L26.70 46.85L26.70 46.65L27.00 46.40Q27.90 46 28.15 46L28.25 46.10Q28.30 46.10 28.30 45.95Q28.35 46 28.60 45.85Q28.80 45.95 28.75 46Q28.70 46.05 28.80 46.05L29.15 46.05Q29.40 46.05 29.48 46.08Q29.55 46.10 29.60 46.10Q29.70 46.10 29.80 45.98Q29.90 45.85 30.55 45.40Q31.20 45 31.40 45Q31.35 44.95 31.40 44.80Q31.40 44.75 31.40 44.75L31.40 44.80Q31.40 44.80 31.65 44.80Q31.80 44.80 31.85 44.65L31.95 44.75L32.25 44.60Q32.35 44.50 32.15 44.25L32.15 43.90L32.35 43.85Q32.45 43.85 32.58 43.92Q32.70 44 32.75 44Q32.95 43.90 33.40 43.70Q33.85 43.50 33.90 43.30L33.90 43.25Q33.90 43.10 34.03 42.85Q34.15 42.60 34.25 42.60Q34.35 42.60 34.40 42.65L34.50 42.65Q34.60 42.65 34.95 42.35Q35 42.30 35 42.20Q35 42.10 35.05 41.95Q35.05 41.95 35.40 42.20Q35.45 42.20 35.53 42.13Q35.60 42.05 35.70 42.05L35.70 41.35Q35.80 41.30 35.93 41.25Q36.05 41.20 36.25 41.10Q36.40 41 36.55 40.65L36.85 40.65Q36.85 40.55 36.95 40.30Q36.90 40.30 36.95 40.25L36.95 40.30Q36.95 40.30 37.05 40.30Q36.90 40.30 37.20 40.20Q37.10 39.85 36.95 39.80Q37 39.75 37 39.65L37.30 39.65Q37.30 39.50 37.20 39.40Q37.30 39.25 37.58 39.10Q37.85 38.95 37.85 38.75Q37.85 38.65 37.85 38.52Q37.85 38.40 37.75 38.25Q37.75 38.15 37.80 38.05L37.85 38.05Q38.20 38.05 38.20 37.20Q38.20 36.60 38 36.25Q38 36.25 38 36.23Q38 36.20 38.05 36.15Q38 36.05 37.83 35.70Q37.65 35.35 37.25 34.85L36.80 34.25Q36.10 33.55 36 33.55Q35.90 33.55 35.95 33.60Q35.95 33.65 35.95 33.65Q35.95 33.65 35.95 33.65Q35.95 33.65 35.95 33.60Q35.80 33.35 35.60 33.35Q35.55 33.35 35.50 33.40Q35.45 33.05 35.25 33.05L35.20 33.05Q35.20 33.10 35.15 33.10Q35.10 33.10 34.95 32.95Q34.80 32.80 34.75 32.80L34.70 32.80Q34.70 32.85 34.65 32.85Q34.80 32.85 34.55 32.70Q34.40 32.70 33.68 32.40Q32.95 32.10 32.60 32.10Q32.60 31.95 32.50 31.95Q32.45 31.95 32.45 32Q32.45 32.05 32.40 32.05Q32.35 32.05 31.75 31.80L31.50 31.80Q31.45 31.80 31.40 31.77Q31.35 31.75 31.10 31.70Q31.05 31.70 31.00 31.75L30.90 31.60Q30.90 31.60 30.80 31.50Q30.70 31.60 30.60 31.60Q30.50 31.60 30.18 31.45Q29.85 31.30 29.80 31.30Q29.70 31.30 29.55 31.35L29.25 31.35Q29.20 31.35 29.15 31.30Q29.10 31.25 29.05 31.25Q28.95 31.25 28.73 31.25Q28.50 31.25 28.20 31.20L28.05 31.05L27.95 31.05L27.85 30.95L27.65 31.10Q27.40 30.85 27.10 30.85L26.90 30.85Q26.80 30.90 26.70 30.90Q26.65 30.90 26.65 30.85Q26.70 30.80 26.65 30.80Q26.60 30.80 26.58 30.75Q26.55 30.70 26.50 30.70L26.15 30.80Q26.10 30.80 25.90 30.67Q25.70 30.55 25.60 30.55L25.50 30.55Q25.45 30.55 25.18 30.50Q24.90 30.45 24.40 30.35L23.30 30.10L23.15 30.15Q23.00 30.15 22.25 29.80Q21.55 29.45 21.45 29.45L21.35 29.45Q21.30 29.50 21.25 29.50Q21.05 29.50 20.65 29.25L20.65 29.35Q20.40 29.25 18.90 28.80Q18.10 28.40 16.65 27.60Q16.40 27.30 16.30 26.95L16.30 26.55Q16.10 26.10 15.85 25.95Q15.95 25.65 15.75 25.55Q15.85 25.30 15.70 25.05L15.85 24Q15.95 23.90 16 23.63Q16.05 23.35 16.35 22.50Q16.40 22.40 16.40 22.30Q16.40 22.20 16.45 22.05Q16.45 22.10 16.50 22.15Q16.55 22.10 16.65 21.88Q16.75 21.65 17.05 21.50Q17.05 21.40 17.18 21.20Q17.30 21 17.70 20.45Q18.05 20.30 18.50 19.65Q18.95 19 19.30 18.75L19.75 18.60L19.95 18.35L21.00 17.75Q21.10 17.65 21.45 17.60L21.55 17.50Q21.75 17.50 21.75 17.35L21.85 17.45Q21.85 17.40 22.40 17.15L22.80 16.95Q22.95 16.80 23.20 16.75Q23.30 16.70 23.40 16.70Q23.50 16.70 23.65 16.65Q23.70 16.65 23.78 16.55Q23.85 16.45 23.90 16.45Q23.95 16.45 23.95 16.50L24.00 16.50Q23.95 16.50 24.30 16.30Q25.00 15.80 26.05 15.75Q26.10 15.75 26.20 15.65Q26.30 15.55 26.35 15.55L26.45 15.55Q26.50 15.60 26.55 15.60Q26.65 15.60 26.75 15.52Q26.85 15.45 26.95 15.45Q26.75 15.45 27.43 15.22Q28.10 15 29.10 15Q29.25 15 29.40 14.95L29.75 14.95Q29.80 14.95 29.80 14.90L29.85 14.90Q30.10 14.90 30.35 14.85Q30.60 14.80 30.65 14.60L30.75 14.70Q30.90 14.45 31.00 14.70L31.00 14.60L31.25 14.60Q31.30 14.60 31.33 14.65Q31.35 14.70 31.40 14.70Q31.55 14.70 31.55 14.60L31.75 14.75Q32.15 14.30 32.35 14.30L32.70 14.40Q32.80 14.40 32.80 14.35Q32.80 14.30 32.85 14.30Q32.90 14.30 33.18 14.40Q33.45 14.50 33.55 14.50Q33.60 14.50 33.75 14.38Q33.90 14.25 33.95 14.25Q34.30 14.30 34.48 14.38Q34.65 14.45 35.05 14.60Q35.30 14.30 35.35 14.30Q35.45 14.30 35.85 14.50L36.05 14.35Q36 14.40 36 14.50Q36.05 14.55 36.10 14.55L36.40 14.55Q36.50 14.55 36.40 14.40Q36.60 14.60 36.75 14.60Q36.80 14.60 36.80 14.55L36.85 14.55Q36.80 14.55 37 14.70Q36.95 14.70 37.05 14.72Q37.15 14.75 37.35 14.80Q37.45 14.90 37.50 15.20Q37.55 15.15 37.55 15.05Q37.55 15.15 37.60 15.20L38.65 15.65Q38.65 15.95 39.10 16.25Q39.05 16.45 39.38 17Q39.70 17.55 39.60 17.75Q39.80 18.10 39.80 18.35Q39.80 18.85 39.65 19.30Q39.50 19.50 39.33 19.95Q39.15 20.40 38.50 20.95Q37.75 21.60 37.60 21.95L36.25 23Q36.15 23.10 36.10 23.17Q36.05 23.25 36.05 23.25Q35.95 23.25 35.98 23.20Q36 23.15 35.90 23.15Q35.95 23.15 35.30 23.50L34.95 23.60Q34.80 23.70 34.58 23.88Q34.35 24.05 34 24.30Q33.80 24.35 33.55 24.47Q33.30 24.60 32.95 24.80Q32.95 24.65 32.80 24.65L33.75 23.85Q33.85 23.85 34 23.80L34.90 23L35.30 22.80Q35.50 22.75 35.50 22.50L35.60 22.50Q36.15 22.50 36.45 21.55Q36.60 21.55 36.65 21.60Q36.70 21.45 36.85 21.30Q37 21.15 37.25 20.90Q37.55 20.50 37.90 19.92Q38.25 19.35 38.60 18.70Q38.60 18.70 38.50 18.50Q38.55 18.40 38.70 18.22Q38.85 18.05 38.85 18Q38.85 18 38.75 17.80L38.75 17.10Q38.75 16.75 38.40 16.40Q38.30 16.45 38.25 16.45L38.30 16.25Q38.30 16.10 37.65 15.75Q36.85 15.25 36.65 15.25L36.50 15.25Q36.45 15.30 36.35 15.30Q36.25 15.30 36.03 15.20Q35.80 15.10 35.75 15.10Q35.70 15.10 35.70 15.15Q35.70 15.20 35.65 15.20L34.55 14.95Q34.50 14.95 34.50 15Q34.50 15.05 34.45 15.05Q34.40 15.05 34.30 15Q34.20 14.95 34.10 14.95Q34.05 14.95 34.03 15Q34 15.05 33.95 15.05Q33.90 15.05 33.90 15L33.80 15Q33.75 15 33.75 15.05Q33.75 15.10 33.70 15.10Q33.65 15.10 33.63 15.05Q33.60 15 33.55 15Q33.50 15 33.50 15.05L33.55 15.05L32.75 15.20Q32.65 15.20 32.50 15.20Q32.35 15.20 32.15 15.25L32 15.15Q31.20 15.45 30.80 15.45Q30.70 15.45 30.70 15.40L30.65 15.40Q30.55 15.40 29.98 15.60Q29.40 15.80 29.35 15.80Q29.30 15.80 29.35 15.75Q29.35 15.70 29.30 15.70Q29.35 15.70 29.35 15.67Q29.35 15.65 29.35 15.65Q29.35 15.60 29.00 15.70Q28.65 15.80 28.33 15.92Q28.00 16.05 27.95 16.15L27.90 16.15Q27.90 16.10 27.85 16.10Q27.55 16.10 27.30 16.50Q27.30 16.45 27.35 16.40L27.15 16.30L26.90 16.65L26.80 16.55Q27.00 16.55 25.95 16.95Q25.90 17 25.90 17Q25.90 17 25.90 17.05Q25.85 17 25.90 17Q25.85 17 25.85 17Q25.85 17.05 25.10 17.35L24.55 17.55L24.20 17.80L21.35 19.90Q20.85 20.25 20.63 20.67Q20.40 21.10 20.10 21.60L19.95 21.50Q19.90 21.75 19.45 22Q19.50 21.95 19.50 22.25Q19.50 22.35 19.20 22.60L19.20 22.75Q19.20 23.05 19.25 23.25Q19.20 23.40 19.18 23.63Q19.15 23.85 18.95 24.40Q18.95 24.45 18.95 24.55Q18.95 24.65 19.00 24.75Q18.95 24.95 18.93 25.02Q18.90 25.10 18.90 25.05Q18.90 25.50 18.95 25.40Q19.50 25.60 19.40 26.30Q19.65 26.55 19.65 26.55Q19.70 26.55 19.70 26.50L19.75 26.50Q19.85 26.50 20.00 26.65Q20.15 26.80 20.40 26.80Q20.35 26.85 20.48 27.15Q20.60 27.45 20.70 27.45Q20.75 27.45 20.75 27.40L20.80 27.40Q20.85 27.40 21.25 27.70Q21.65 28 21.70 28L21.75 28Q21.75 27.95 21.80 27.95Q21.85 27.95 22.38 28.32Q22.90 28.70 23.00 28.70Q23.05 28.70 23.65 28.45L24.25 29.10Q24.30 29.05 24.30 28.95Q24.70 29.40 25.05 29.40Q25.15 29.40 25.25 29.50L25.35 29.35Q25.35 29.45 25.45 29.45Q25.50 29.45 25.50 29.40L25.55 29.40Q26.20 29.80 26.25 29.80Q26.30 29.80 26.40 29.75Q26.50 29.70 26.55 29.70Q26.65 29.70 26.90 29.95Q26.95 29.90 26.95 29.85Q27.20 30.10 27.80 30.10Q28.25 30.40 28.55 30.40Q28.85 30.40 28.90 30.45L29.25 30.60Q29.30 30.60 29.50 30.55Q29.70 30.50 29.80 30.50Q30.35 30.60 30.55 30.67Q30.75 30.75 30.60 30.75Q30.65 30.75 30.70 30.70L30.80 30.80L31.25 31.10Q31.35 31.10 31.40 31.25L31.65 31.05Q31.80 31.20 31.70 31.20L31.60 31.30L31.80 31.45Q32.05 31.25 32.30 31.25Q32.25 31.25 32.28 31.25Q32.30 31.25 32.35 31.25L32.30 31.25Q32.10 31.25 32.60 31.40Q32.90 31.50 32.95 31.60L33.50 31.60Q33.60 31.90 33.80 31.90Q33.90 31.90 33.88 31.85Q33.85 31.80 33.90 31.80Q34 31.80 34.30 31.95Q34.35 31.95 34.45 32.10Q34.55 32.25 34.65 32.25Q34.70 32.25 34.70 32.20L34.75 32.20Q34.85 32.20 35.05 32.55Q35.10 32.50 35.10 32.45L35.55 32.75Q35.60 32.75 35.70 32.75Q35.80 32.75 35.95 32.80Q36 32.85 36.13 33.02Q36.25 33.20 36.35 33.20Q36.40 33.20 36.40 33.15L36.45 33.15Q36.50 33.15 36.55 33.27Q36.60 33.40 36.70 33.40Q36.80 33.35 36.85 33.35Q36.85 33.40 37.25 33.80Q37.20 33.80 37.65 34.40Q37.90 34.65 38.08 34.73Q38.25 34.80 38.60 35.25Q38.55 35.30 38.55 35.55L39.00 35.95Q39.00 36 39.25 36.63Q39.50 37.25 39.50 37.85Q39.50 38.20 39.43 38.55Q39.35 38.90 39.25 39.30Q39.15 39.75 39.20 39.80Q39.05 39.85 38.85 40.40Q38.65 41 38.15 41.75Q38.10 41.80 37.88 42.08Q37.65 42.35 37.20 42.85L37.05 43.25Q36.95 43.40 36.75 43.60Q36.55 43.80 36.30 44.05L35.70 44.40Q34.85 45 34.85 45.15L34.85 45.10L34.80 45.10Q34.90 45.10 34.55 45.30Q34.55 45.35 34.48 45.48Q34.40 45.60 34.15 45.80Q34.05 45.80 33.75 45.90Q33.65 46 33.45 46.17Q33.25 46.35 33 46.55L32.50 46.70Q32.50 46.70 32.28 46.95Q32.05 47.20 31.85 47.20Q31.85 47.20 31.85 47.20L31.85 47.20Q31.90 47.20 31.80 47.10L31.75 47.10Q31.70 47.10 31.70 47.30L31.60 47.30Q31.65 47.30 31.30 47.50Q31.10 47.65 30.70 47.80Q30.30 47.95 29.85 48.30Q29.60 48.30 29.55 48.35L29.45 48.25Q29.40 48.45 29.15 48.45Q29.10 48.45 29.10 48.40L29.05 48.40Q29.00 48.40 28.83 48.58Q28.65 48.75 28.60 48.75L28.10 48.65Q28.10 48.65 27.85 48.95Q27.60 49.25 27.25 49.25Q27.20 49.25 27.20 49.20L27.15 49.15Q27.05 49.15 27.00 49.23Q26.95 49.30 26.90 49.30L26.85 49.30Q26.85 49.25 26.80 49.25Q26.75 49.25 26.60 49.35Q26.45 49.45 26.35 49.45L26.25 49.45Q26.20 49.40 26.15 49.40Q25.95 49.40 25.25 49.80L25.05 49.50Q24.90 49.85 24.65 49.85Q24.55 49.85 24.40 49.70L24.30 49.70Q24.20 49.70 24.23 49.75Q24.25 49.80 24.20 49.80L24.15 49.80Q24.15 49.75 24.10 49.75Q24.05 49.75 23.70 49.95Q23.35 50.15 23.20 50.15Q23.20 50.05 23.03 50Q22.85 49.95 22.60 49.80L22.40 50.05L22.35 50.05L22.25 50.15Q21.90 50.10 21.55 49.80L21.55 49.90L21.25 49.90Q21.10 49.85 21.00 49.85Q20.95 49.85 20.73 50.08Q20.50 50.30 20.40 50.30M27.90 40.80Q27.75 40.90 27.65 40.65L27.70 40.25L28.00 40.25Q28.00 40.35 27.98 40.48Q27.95 40.60 27.90 40.80M8.65 45L8.75 45L8.75 44.80L8.65 44.80L8.65 45M14.55 49.35L14.55 49.35Q14.55 49.35 14.55 49.35ZM45.35 43.80Q45.35 43.80 45 43.60Q44.85 43.60 44.55 43.55Q44.25 43.50 43.65 43.20Q43.55 43.15 43.38 43.08Q43.20 43 43 42.85Q42.95 42.60 42.55 42.10L42.45 42.10L42.30 42.20Q42.25 41.95 42 41.75Q42 41.55 41.80 41.30Q41.90 40.90 41.80 40.40Q41.70 40.10 41.40 39.80L41.55 39.60Q41.65 39.40 41.75 39.13Q41.85 38.85 41.95 38.50Q42 38.30 42.05 38.05Q42.10 37.80 42.20 37.45Q42.15 37.40 41.73 37.05Q41.30 36.70 41 36.85Q41.05 36.75 41.05 36.67Q41.05 36.60 41.05 36.60Q41.05 36.55 40.95 36.48Q40.85 36.40 40.85 36.30Q40.85 36.30 41 36.13Q41.15 35.95 41.20 35.95Q41.30 35.95 41.53 36.05Q41.75 36.15 41.85 36.15Q41.90 36.15 42 36.10Q42.10 36.05 42.15 36.05L43 36.25Q43.10 36.25 43.30 36.15L44.55 34.90Q44.70 34.90 44.73 34.83Q44.75 34.75 45.25 34.30Q45.30 34.30 45.43 34.25Q45.55 34.20 45.80 33.95L45.95 33.70Q47.40 32.70 48.50 32.70L48.85 32.70Q48.75 32.80 48.95 32.80Q49 32.80 49.10 32.75Q49.20 32.70 49.25 32.70L49.55 32.90L49.85 32.90Q50.05 33.10 50.05 33.10Q50.10 33.10 50.10 33.05L50.15 33.05Q50.05 33.05 50.35 33.35Q50.35 33.35 50.10 34.15Q49.95 34.25 49.68 34.55Q49.40 34.85 49.30 34.85Q49.25 34.85 49.08 34.75Q48.90 34.65 48.80 34.65Q48.75 34.65 48.50 34.75Q48.25 34.85 48.15 34.95Q48.10 35 47.93 35.08Q47.75 35.15 46.75 35.50Q46.80 35.85 46.60 35.90Q46.25 35.95 46.15 36.15L46.15 36.20Q46.40 36.45 47.30 36.45Q47.35 36.45 47.43 36.40Q47.50 36.35 47.60 36.35Q47.65 36.35 47.70 36.40L47.80 36.40Q47.85 36.40 47.95 36.33Q48.05 36.25 48.10 36.25Q48.20 36.25 48.70 36.40Q49.20 36.55 49.25 36.55Q49.45 36.55 49.55 36.30L49.75 36.45L50 36.45Q50.05 36.45 50.20 36.30L50.20 36.20Q49.80 35.95 49.60 35.95L49.60 35.55L49.85 35.45Q49.90 35.45 49.95 35.50L50.05 35.50L50.50 35.35Q50.65 35.65 50.85 35.85Q50.90 35.85 50.90 35.75Q51.05 35.80 51.33 36.02Q51.60 36.25 51.70 36.25Q51.75 36.25 51.85 36.17Q51.95 36.10 52.05 36.05L52.30 36.05Q52.75 36.05 53.30 35.85L53.45 35.95Q53.60 35.80 53.80 35.80Q53.90 35.80 53.90 35.85L53.95 35.85L54.50 35.75Q54.60 35.65 54.85 35.60Q55.10 35.55 55.70 35.55Q55.75 35.55 55.75 35.50Q55.95 35.40 56.18 35.35Q56.40 35.30 56.70 35.25Q56.75 35.20 56.93 35.10Q57.10 35 57.55 34.90Q57.65 34.90 57.75 34.90Q57.85 34.90 58.05 34.85L58.20 34.70Q58.25 34.70 58.25 34.75L58.30 34.75Q58.10 34.75 59 34.35Q59.05 34.40 59.05 34.50Q59.05 34.60 59.10 34.75Q58.95 34.75 58.90 34.95Q58.40 35 58.20 35.35L57.45 35.65Q57.35 35.65 57.23 35.65Q57.10 35.65 56.90 35.70L56.45 35.95Q56.40 35.95 56.35 35.90Q56.30 35.85 56.25 35.85Q56.30 35.85 55.98 36Q55.65 36.15 55.40 36.15L55.35 36.15Q55.35 36.10 55.30 36.10L55.15 36.25Q54.95 36.30 54.63 36.30Q54.30 36.30 53.90 36.35Q53.90 36.40 53.85 36.45Q53.95 36.45 53.83 36.48Q53.70 36.50 53.45 36.55Q53.30 36.55 53.05 36.55Q52.80 36.55 52.45 36.60Q52.40 36.60 52.30 36.70L52.95 37.45L52.95 37.60Q52.95 37.60 53 37.65Q53.05 37.70 53.30 38.10Q53.45 38.40 53.30 38.45Q53.45 38.95 53.45 38.80Q53.45 38.85 53.40 39.05Q53.35 39.25 53.25 39.60Q53.15 39.75 53.05 39.98Q52.95 40.20 52.85 40.50Q52.70 40.70 52.40 41.02Q52.10 41.35 51.60 41.85Q51.60 41.90 51.38 42.02Q51.15 42.15 50.90 42.50Q50.60 42.65 50.18 42.83Q49.75 43 49.20 43.25Q49 43.30 48.68 43.38Q48.35 43.45 47.95 43.50Q47.80 43.55 47.55 43.65Q47.30 43.75 46.90 43.75Q46.05 43.75 45.90 43.70L45.35 43.80M45.80 43.30Q45.80 43.35 45.83 43.27Q45.85 43.20 45.90 43.20L46.30 43.30Q46.60 43.30 46.68 43.23Q46.75 43.15 46.90 43.15L47.10 43.15Q47.25 43.20 47.35 43.20Q47.40 43.20 47.50 43.13Q47.60 43.05 47.65 43.05Q47.75 43.05 47.75 43.10L47.90 43L48.55 43Q48.55 43 48.88 42.92Q49.20 42.85 49.50 42.65L49.90 42.40Q50.30 42.15 50.60 42.02Q50.90 41.90 51.05 41.80Q51.80 41.25 52.05 40.60Q52.05 40.45 52.13 40.23Q52.20 40 52.20 39.95Q52.20 39.75 52 39.55Q52 39.45 52.03 39.25Q52.05 39.05 52.10 38.80L52 38.70Q51.90 38.30 51.65 37.90Q51.60 37.90 51.55 37.85Q51.50 37.80 51.45 37.40L51.20 37.20L51.20 36.95L50.65 36.95Q50.60 36.95 50.55 36.90Q50.50 36.85 50.45 36.85L50.20 36.85Q49.65 37.10 49.65 37.15L49.70 37.15Q49.70 37.15 49.65 37.15L49.25 37Q49.25 37 49 37.10Q48.75 37.20 48.45 37.20Q48.40 37.20 48.35 37.13Q48.30 37.05 48.20 37.05Q48.15 37.05 48 37.17Q47.85 37.30 47.80 37.30Q47.70 37.30 47.68 37.25Q47.65 37.20 47.60 37.20Q47.55 37.20 47.45 37.25Q47.35 37.30 47.30 37.30Q47.30 37.30 47.30 37.30L47.30 37.30Q47.30 37.30 46.95 37.10Q46.95 37.50 46.65 37.50Q46.45 37.50 46.45 37.15Q46.25 37.20 46.13 37.27Q46 37.35 45.85 37.35L45.70 37.35L45.55 37.20Q45.50 37.35 45.30 37.35Q45.15 37.35 45.10 37.30L45.10 37.15Q45.05 37.20 44.95 37.25Q44.85 37.30 44.75 37.35L44.75 37.40Q44.75 37.65 44.45 37.85Q44.15 38.05 43.60 38.35Q43.60 38.40 43.63 38.48Q43.65 38.55 43.65 38.60Q43.65 39.10 43.20 39.25L42.75 40.60Q42.85 40.60 42.85 40.65L43.40 42.30Q43.45 42.30 43.50 42.25L43.65 42.25Q43.80 42.25 43.90 42.58Q44 42.90 44.20 42.90Q44.25 42.90 44.25 42.85L44.30 42.85Q44.25 42.85 44.70 43.05Q44.70 43.05 45 43.15L45.10 43.05Q45.80 43.20 45.80 43.30ZM58.15 44.55Q58.10 44.55 58.03 44.48Q57.95 44.40 57.85 44.40Q57.90 44.40 57.65 44.50L57.05 43.75L57.05 42.50L57.15 42.40L57.15 42.30Q57.15 42.20 57.23 42.05Q57.30 41.90 57.35 41.70Q57.30 41.65 57.30 41.50Q57.30 41.25 57.65 41.05Q57.60 40.90 57.65 40.55L57.80 40.25Q57.90 40.10 57.75 39.95L57.95 38.85Q58.00 38.80 58.10 38.50L58.30 36.70Q58.25 36.65 58.25 36.50Q58.35 36.30 58.35 36.25Q58.35 35.90 58.30 35.80Q58.25 35.70 58.20 35.60Q58.25 35.40 58.25 35.10Q58.25 34.65 57.90 34.65Q57.90 34.65 57.83 34.67Q57.75 34.70 57.60 34.75L57.55 34.55L57.55 34.50Q57.55 34.25 58.00 34Q58.05 34 58.05 34.05L58.15 34.05Q58.35 34.05 58.55 33.85L59.30 34.45Q59.35 34.45 59.25 34.70L59.50 35.05L59.50 36.25Q59.55 36.35 59.58 36.40Q59.60 36.45 59.60 36.50Q59.60 36.55 59.55 36.60Q59.50 36.65 59.50 36.75L59.50 38.50Q59.45 38.50 59.40 38.55Q59.45 38.60 59.45 39.80Q59.45 39.90 59.35 40.10Q59.25 40.30 59.25 40.35Q59.25 40.40 59.35 40.60L59.45 40.60Q59.45 40.60 59.70 39.85L59.85 39.85Q59.85 39.75 59.85 39.63Q59.85 39.50 59.90 39.30L60.55 38.55Q60.60 38.45 60.70 38.27Q60.80 38.10 60.90 37.90Q60.95 37.80 61.25 37.50Q61.30 37.40 61.35 37.27Q61.40 37.15 61.50 36.95L61.85 36.65Q61.85 36.55 61.98 36.42Q62.10 36.30 62.15 36.15Q62.40 36.10 62.50 35.65Q62.80 35.50 63.30 35L63.30 34.80Q63.70 34.45 63.65 34.45L63.70 34.45Q63.70 34.50 63.75 34.50Q63.70 34.50 64.35 33.75Q64.60 33.65 65.20 32.95Q65.55 32.80 66 32.45L66.45 32.45L67 32.55Q67.25 32.65 67.55 32.92Q67.85 33.20 68 33.90L68 34.40Q68 34.50 67.98 34.73Q67.95 34.95 67.90 35.30Q67.85 36.05 66.60 37.20Q66.40 37.20 66.05 37.45L66.05 36.90Q66.15 36.80 66.25 36.63Q66.35 36.45 66.45 36.25Q66.45 36.15 66.05 36.05Q66.35 35.45 66.35 35.30Q66.35 35.15 66.20 34.95Q66.10 35 66.05 35.02Q66 35.05 66 35.05Q65.60 35.05 65.65 35Q65.60 34.95 65.60 34.75L65.50 34.75Q65.40 34.75 65.20 34.92Q65 35.10 64.95 35.10Q64.90 35.10 64.90 35.05L64.80 35.05Q64.75 35.05 64.65 35.15Q64.55 35.25 64.45 35.25Q64.35 35.25 64.25 35.10Q64.15 35.10 64.10 35.15Q64.20 35.35 64.10 35.60Q63.90 35.90 63.70 35.90Q63.65 35.90 63.58 35.85Q63.50 35.80 63.45 35.80Q63.45 36.05 63.50 36.15L63.10 36.65Q63.00 36.75 62.85 36.75Q62.80 36.75 62.70 36.65L62.45 37.35L62.40 37.35Q62.15 37.35 61.65 38L61.45 38.10Q60.80 39.25 60.33 40Q59.85 40.75 59.60 41.05L59.60 41.45Q59.25 41.70 59.20 42.50Q59.10 42.60 59.00 42.85Q59.10 43.05 59.00 43.45Q58.95 43.50 58.90 43.67Q58.85 43.85 58.75 44.15Q58.50 44.55 58.15 44.55ZM63.60 62.60Q63.45 62.60 63.13 62.35Q62.80 62.10 62.65 62.10Q62.50 62.10 62.50 62.15Q62.50 62.20 62.40 62.20Q62.30 62.20 62.15 62Q62 61.80 61.90 61.80Q61.75 61.80 61.73 61.85Q61.70 61.90 61.60 61.90Q61.60 61.90 61.60 61.90L61.60 61.90Q61.70 61.90 61.10 61.55Q60.90 61.50 60.58 61.28Q60.25 61.05 59.60 60.45Q59.70 60.35 59.60 60.25Q59.10 59.80 58.55 59.20Q58.55 59.10 58.55 58.95Q58.55 58.80 58.50 58.60Q58.45 58.55 58.28 58.30Q58.10 58.05 58.10 57.90Q58.10 57.85 58.25 57.52Q58.40 57.20 58.35 56.65Q58.55 56.65 58.65 56.55Q58.65 54.80 60.55 52.15Q60.65 52 60.75 52Q61 52 60.80 52.30Q60.30 53 59.95 53.67Q59.60 54.35 59.40 54.90Q59.15 55.50 59.15 56.55L59.15 56.65Q59.15 57.30 59.40 57.92Q59.65 58.55 60 59.10Q60.90 60.60 62.25 61.05Q63.20 61.40 63.85 61.50L65.85 61.75L65.95 61.75Q66.05 61.75 66.20 61.73Q66.35 61.70 66.90 61.70Q67.15 61.70 68.65 61.20Q69.45 60.95 69.88 60.83Q70.30 60.70 70.35 60.70Q70.45 60.70 70.42 60.75Q70.40 60.80 70.55 60.80Q70.65 60.80 70.95 60.58Q71.25 60.35 71.35 60.30L72.30 60L72.35 59.95Q72.55 59.75 73.05 59.55Q73.15 59.65 73.30 59.55L73.75 59.20Q74.20 59.15 74.45 58.98Q74.70 58.80 74.70 58.80L74.75 58.80L75.10 58.60Q75.15 58.55 75.15 58.50Q75.50 58.35 76 57.95L77.20 57.20L77.40 57.05Q77.45 57.05 77.58 56.95Q77.70 56.85 77.75 56.65L77.95 56.75L78.15 56.45L78.65 56.20Q78.75 56.10 78.80 56.05Q78.85 56 78.90 55.95L79.50 55.20Q79.70 55.10 79.78 55Q79.85 54.90 80.15 54.70Q80.35 54.50 80.55 54.10Q80.75 54.10 81.75 53.10Q82.15 52.70 81.90 52.65Q81.95 52.65 82 52.70L82.15 52.55L82.15 52.30Q81.90 52.25 81.95 52.20Q81.55 52.35 81.18 52.90Q80.80 53.45 80.15 53.90Q80.10 53.90 80.10 54.10L79.90 54.10Q79.90 54.05 80 53.95L80 53.80Q79.95 53.75 79.80 53.75Q79.90 53.55 79.90 53.45Q80.30 52.95 80.80 52.35Q81.30 51.75 81.85 51Q82.45 50.40 82.60 49.90Q82.65 49.85 82.73 49.67Q82.80 49.50 82.90 49.05Q83.10 48.80 83.33 48.45Q83.55 48.10 83.40 47.90Q83.50 47.80 83.60 47.15Q83.75 47.10 83.90 46.75Q83.95 46.40 83.98 46.13Q84 45.85 84 45.65Q84 45.65 84 45.60Q84 45.55 83.95 45.50L84 45.30L83.80 44.50Q83.55 43.45 82.70 42.85Q82.65 42.75 82.53 42.60Q82.40 42.45 82.25 42.35Q81.30 41.90 80.85 41.90Q80.80 41.90 80.75 41.95Q80.70 42 80.65 42Q80.60 42 80.45 41.90Q80.30 41.80 80.25 41.80Q80.05 41.80 79.30 41.98Q78.55 42.15 78.35 42.15L78.30 42.15Q78.30 42.10 78.20 42.10Q78.20 42.10 78.08 42.15Q77.95 42.20 77.70 42.25Q77.45 42.45 77.35 42.45Q77.30 42.45 77.20 42.40Q77.10 42.35 77.05 42.35Q77 42.35 76.88 42.45Q76.75 42.55 76.65 42.55Q76.60 42.55 76.60 42.50L76.55 42.50Q76.65 42.50 75.55 43.05Q75.35 43.10 75.17 43.25Q75 43.40 74.90 43.40Q74.85 43.40 74.85 43.35Q74.85 43.30 74.75 43.30Q74.45 43.30 74.20 43.70Q73.90 43.75 73.60 43.88Q73.30 44 72.95 44.20Q72.85 44.20 72.70 44.25Q72.35 44.30 72.05 44.70Q71.95 44.60 71.80 44.70Q71.70 44.75 71.55 44.83Q71.40 44.90 71.10 44.95Q71.05 45 70.88 45.08Q70.70 45.15 70.35 45.15L70.25 45.15Q70.25 45.10 70.15 45.10Q70 45.10 69.80 45.30Q69.35 45 69.30 45Q69.25 45 69.25 45.05L69.15 45.05Q69.05 45.05 69 45Q68.95 44.70 68.35 44.30L68.35 43.85Q68.35 43 68.70 42.45Q68.90 42.35 69.05 42.20Q69.20 42.05 69.65 41.75Q69.65 41.70 70.10 41.40Q70.55 41.10 70.55 41Q71.20 40.65 72.15 40.40Q72.50 40.35 73.25 39.75Q73.15 39.65 72.65 39.40L72.65 39.35Q72.65 39.25 72.60 39.08Q72.55 38.90 72.45 38.70L72.35 38.05Q72.45 37.95 72.45 37.85Q72.35 37.55 72.35 37.55L72.35 37.05L72.65 36.55L72.65 36.25Q72.90 36.10 73.10 35.45Q73.30 35.40 73.55 34.90L73.70 34.60Q73.85 34.50 74.08 34.27Q74.30 34.05 74.60 33.75Q74.55 33.75 74.05 33.40Q73.55 33.05 73.45 33.05Q73.35 33.10 73.30 33.10Q73.20 32.95 73.08 32.80Q72.95 32.65 72.75 32.50Q72.75 32.45 72.80 32.38Q72.85 32.30 72.85 32.25Q72.85 32.20 72.75 32.08Q72.65 31.95 72.65 31.85Q72.65 31.80 72.80 31.52Q72.95 31.25 73 31.25Q73.45 31.25 73.45 31.85Q73.60 31.85 73.75 31.90Q74.15 32.45 74.30 32.45Q74.35 32.45 74.40 32.40L74.45 32.40Q74.50 32.40 74.70 32.48Q74.90 32.55 75.20 32.55Q75.25 32.75 75.40 32.75Q75.45 32.75 75.55 32.70Q75.65 32.65 75.70 32.65Q75.75 32.65 75.80 32.70Q75.85 32.75 75.95 32.75Q76.05 32.75 76.20 32.55L76.70 32.25L76.95 32.40Q77.25 32.40 77.45 32.10Q77.70 32.40 77.88 32.50Q78.05 32.60 78.25 32.70L78.25 32.75L78.60 33.15Q78.95 33.20 79.38 33.20Q79.80 33.20 80.30 33.20Q80.50 33.15 80.60 33.15Q80.70 33.15 80.70 33.15Q80.70 33.15 80.85 33.25Q80.95 33.35 81.25 33.25Q81.45 33.20 81.60 33.20L81.80 33.30L82.10 33.30Q82.25 33.25 82.40 33.25L83.10 33.05Q83.15 33.10 83.25 33.10Q83.30 33.05 83.40 33.05Q83.50 33.05 83.60 33L83.95 33L84.85 33.05Q84.90 33.25 84.85 33.40Q84.80 33.45 84.70 33.45Q84.60 33.45 84.50 33.50Q84.35 33.50 84.25 33.48Q84.15 33.45 84.05 33.45Q83.80 33.45 83.45 33.65Q83.05 33.90 83 33.90Q83 33.90 82.60 33.80Q82.55 33.80 82.40 33.88Q82.25 33.95 81.90 34.05Q81.80 33.95 81.65 33.90Q81.55 34.15 80.30 34.30Q80.55 34.70 80.53 34.70Q80.50 34.70 80.90 35.35Q81 35.70 80.90 36.40Q80.75 36.55 80.45 36.90Q80.15 37.25 79.60 37.65L79.50 37.85Q78.65 38.40 78.60 38.40L78.55 38.40Q78.55 38.35 78.50 38.35Q78.50 38.35 78.25 38.48Q78 38.60 77.70 38.90Q77.20 38.90 77.08 39.08Q76.95 39.25 76.60 39.50Q76.50 39.50 76.35 39.52Q76.20 39.55 76 39.60L75.70 39.80L75.25 39.80L75.05 39.95Q75 39.95 74.95 39.90Q74.90 39.85 74.85 39.85Q74.80 39.85 74.78 39.92Q74.75 40 74.65 40L74.60 40Q74.55 39.95 74.50 39.95Q74.30 39.95 74.20 40.05Q73.65 40.25 73.08 40.52Q72.50 40.80 71.95 41.05L71.50 41.25L70.25 42.10Q70.15 42.20 69.98 42.40Q69.80 42.60 69.60 42.85Q69.60 43 69.40 43.35Q69.35 43.60 69.33 43.67Q69.30 43.75 69.30 43.70Q69.30 43.95 69.70 44.35Q69.80 44.35 69.95 44.40Q70.10 44.45 70.15 44.45Q70.30 44.45 70.30 44.35Q70.30 44.40 70.30 44.35L70.30 44.35Q70.35 44.40 71.20 44.40Q71.35 44.40 71.98 44.08Q72.60 43.75 72.95 43.70Q73.15 43.35 73.45 43.35Q73.50 43.35 73.50 43.40L73.55 43.40Q73.50 43.40 73.85 43.20L74.55 42.95Q74.65 42.90 74.80 42.77Q74.95 42.65 75 42.65L75.05 42.65Q75.05 42.70 75.10 42.70Q75.20 42.70 75.23 42.63Q75.25 42.55 75.30 42.55L75.35 42.55Q75.35 42.60 75.40 42.60Q75.45 42.60 75.60 42.48Q75.75 42.35 75.80 42.35Q76.20 42.25 76.45 42.10L76.65 41.95Q77.35 41.90 77.75 41.55Q78 41.40 78.38 41.27Q78.75 41.15 79.55 41.05L79.65 40.95L79.75 40.95Q79.80 41 79.85 41Q79.90 41 80.03 40.92Q80.15 40.85 80.25 40.85Q80.25 40.85 80.25 40.85L80.25 40.85Q80.10 40.85 80.35 40.95Q80.40 40.75 80.70 40.75Q80.75 40.75 80.80 40.80Q80.85 40.85 80.90 40.85Q81 40.85 81.03 40.80Q81.05 40.75 81.15 40.75Q81.20 40.75 81.20 40.80Q81.20 40.85 81.30 40.85Q81.35 40.85 81.38 40.80Q81.40 40.75 81.45 40.75Q81.55 40.75 81.60 40.80Q81.65 40.85 81.70 40.85Q81.75 40.85 81.83 40.80Q81.90 40.75 81.95 40.75Q81.95 40.75 81.95 40.75L81.95 40.75Q81.95 40.75 82.45 40.95Q82.60 40.95 82.60 40.85Q83.10 41 83.15 41.05L83.15 41.05L83.25 41.05Q83.35 41.05 83.55 41.35L84.05 41.50Q84.15 41.75 84.35 41.90Q84.50 41.85 84.58 41.83Q84.65 41.80 84.65 41.80Q84.65 42.10 84.70 42.15Q84.70 42.05 84.85 42.05L84.85 42.20Q84.95 42.25 85.10 42.42Q85.25 42.60 85.30 42.60Q85.40 42.55 85.45 42.55Q85.55 42.85 85.75 43.15Q85.75 43.35 85.88 43.55Q86 43.75 86.05 43.85Q86.15 44.10 86.23 44.52Q86.30 44.95 86.40 46.45Q86.40 46.45 86.45 46.52Q86.50 46.60 86.50 46.65L86.30 47.15Q86.15 47.55 86.40 47.70L86 48.40Q85.95 48.45 86.10 48.60L85.80 48.95Q85.80 49.10 85.75 49.20L85.15 50.15L84.85 50.80Q84.75 51 84.28 51.70Q83.80 52.40 82.95 53.55L82.70 53.70Q82.50 54.05 81.98 54.50Q81.45 54.95 80.60 55.75L80.05 56.10Q80 56.10 79.95 56.30Q79.80 56.25 79.65 56.55Q79.45 56.55 79.15 56.85Q78.95 57.10 78.50 57.45Q78.05 57.80 77.35 58.30Q76.80 58.65 75.95 59.17Q75.10 59.70 73.95 60.35Q73.40 60.60 72.08 60.98Q70.75 61.35 68.70 61.90L68.45 62.10Q68.20 62.15 67.83 62.20Q67.45 62.25 66.90 62.35L65.70 62.60Q65.60 62.60 65.17 62.50Q64.75 62.40 64.65 62.40Q64.50 62.40 64.38 62.35Q64.25 62.30 64.15 62.30L63.95 62.10L63.60 62.60M85.40 33.45Q85.20 33.10 85.35 33.10Q85.65 33.10 85.80 33.15Q85.90 33.15 85.90 33L86.15 33Q86.20 32.95 86.25 32.90Q86.30 32.85 86.35 32.80Q86.55 32.80 87.50 32.25Q87.70 32.20 87.88 32.20Q88.05 32.20 88.15 32.20Q88.65 32.20 88.80 32.35L88.80 32.40Q88.80 32.55 88.35 32.67Q87.90 32.80 87.80 32.90Q87.75 32.95 87.40 33.05L87 33.15Q86.45 33.55 85.85 33.45Q85.65 33.35 85.40 33.45M76.10 38.50Q76.20 38.35 76.35 38.35Q76.40 38.35 76.45 38.40L76.55 38.40Q76.60 38.40 76.73 38.33Q76.85 38.25 76.90 38.25Q77 38.25 77 38.30L77.05 38.30Q77.35 38.30 78 37.90Q79 37.20 79.05 37.20L79.20 37.20Q79.25 37.05 79.55 36.73Q79.85 36.40 79.85 36.10Q79.85 35.75 79.45 35.10Q79.40 35.10 79.20 35Q79.20 35.05 79.18 34.95Q79.15 34.85 79.10 34.65L78.80 34.40Q78.70 34.40 78.55 34.40Q78.40 34.40 78.25 34.35Q78.05 33.90 78.10 33.85L78.35 33.60Q77.70 33.70 77.60 33.90Q77.50 34.10 77.35 34.25L76.95 34.35L76.05 35.05Q75.80 35.50 75.25 35.75Q75.15 35.90 75.03 36.13Q74.90 36.35 74.75 36.60Q74.80 36.80 74.65 37.05L74.65 37.60Q74.95 37.70 74.90 38Q75.15 38 75.20 38.05L75.20 38.20L75.35 38.20Q75.80 38.20 76.10 38.50M83.05 41.10Q83.10 41.10 83.10 41.10L83.05 41.10ZM89.25 56.75L89.15 56.65Q89.10 56.65 89.03 56.65Q88.95 56.65 88.75 56.70L88.30 56.70Q88.25 56.70 87.93 56.58Q87.60 56.45 87.55 56.45Q87.45 56.45 87.45 56.50L87.40 56.50Q87.40 56.45 86.15 56.15Q86.15 56.10 86.25 56Q86.15 55.75 85.90 55.75Q85.90 55.75 85.85 55.77Q85.80 55.80 85.70 55.85Q85.65 55.40 85.25 55.20Q84.85 55 84.90 55Q84.65 54.60 84.58 54.58Q84.50 54.55 84.45 54.30Q84.35 54.05 84.35 53.98Q84.35 53.90 84.00 53.25Q84.00 53.15 83.98 52.98Q83.95 52.80 83.90 52.60L84.00 52.40L83.80 51.95Q83.75 51.80 83.85 51.75L83.85 51.55Q83.85 51.30 83.80 51.05Q83.75 50.80 83.65 50.50Q83.90 50.10 83.95 49.75Q84.00 49.40 84.13 48.83Q84.25 48.25 84.50 47.45Q84.50 47.25 84.40 47.15Q84.40 47.15 84.80 46.95Q84.95 46.05 85.00 46.08Q85.05 46.10 85.10 45.95L85.30 45.60Q85.40 45.40 85.55 45Q85.70 44.60 85.95 44L86.25 43.50Q86.30 43.45 86.43 43.27Q86.55 43.10 86.65 42.55Q86.75 42.45 86.88 42.17Q87.00 41.90 87.45 41.30Q87.50 41.20 87.58 41Q87.65 40.80 87.80 40.65L88.05 40.35Q88.25 40.10 88.43 39.77Q88.60 39.45 88.80 39L89.70 37.95L89.70 37.80L89.60 37.75L89.45 37.60Q89.30 37.55 89.10 37.55L89.05 37.55Q88.35 37.55 88.05 37.70Q87.75 37.85 87.85 37.85Q87.70 37.85 87.60 37.70Q87.55 37.30 87.60 37.25Q87.55 37.20 87.55 37.05L87.45 36.90L87.60 36.70Q87.85 36.50 88.40 35.65Q88.75 35.65 89.30 35.30Q89.25 35.45 89.40 35.60Q89.40 35.50 89.45 35.45Q89.95 35.55 90.00 35.60Q90.25 35.50 90.55 35.40Q90.85 35.30 91.25 35.25L91.25 35.30L91.35 35.20L91.35 35.05Q91.50 34.85 91.85 34.55Q91.85 34.45 91.90 34.35L92.05 34.30L92.10 34.20L92.25 34Q92.35 33.60 92.75 33.25Q92.75 33.10 92.80 33Q93.15 32.65 93.50 32.15L93.70 31.70Q93.95 31.65 94.25 31.05Q94.65 30.35 94.70 30.40Q94.75 30.45 94.80 30.35L95.15 30.05Q95.15 30.05 95.25 29.75L95.55 29.55L95.75 29.05Q96.00 28.90 96.20 28.60Q96.30 28.60 96.35 28.55Q96.45 28.30 96.80 27.85Q96.95 27.75 97.10 27.50Q97.25 27.25 97.75 26.95L98.00 26.50L98.20 26.40Q98.20 26.35 98.18 26.32Q98.15 26.30 98.15 26.30Q98.15 26.10 98.38 25.95Q98.60 25.80 98.80 25.80L98.85 25.55Q98.85 25.50 99.10 25.35Q99.15 25.25 99.20 25.13Q99.25 25 99.35 24.80Q99.45 24.80 99.85 24.40Q99.95 24.30 100.10 24.15Q100.25 24 100.35 23.80Q100.80 23.50 101.05 23.30Q101.30 23.10 101.90 22.75L102.10 22.75Q101.90 23.40 101.55 23.40L101.50 23.40L101.45 23.35Q101.40 23.55 101.25 23.65Q101.10 23.75 100.85 24.30L101.30 24.60Q101.40 24.30 102.25 23.75L102.50 23.40L102.75 23.10Q103.15 22.85 103.30 22.67Q103.45 22.50 104.00 22.10Q104.15 21.85 104.15 21.75Q104.45 21.55 104.60 21.40L106.75 19.20Q107.00 19.20 107.35 18.55Q107.45 18.55 107.60 18.35Q107.75 18.15 107.90 18.15L107.95 18.15L107.95 18.20Q107.95 18.15 108.15 18Q108.30 17.95 108.63 17.72Q108.95 17.50 109.00 17.50Q109.00 17.50 109.35 17.75L109.40 18.05Q109.40 18.10 109.30 18.22Q109.20 18.35 109.15 18.95L109.00 18.95L108.80 19.55L107.55 20.20Q107.45 20.35 107.10 20.70L106.70 20.90Q106.70 20.80 106.65 20.75Q106.75 20.50 107.00 20.25L107.00 20.10L106.85 20.10L105.65 21.10Q105.30 21.45 104.73 21.92Q104.15 22.40 103.35 22.95Q103.25 23.15 102.98 23.40Q102.70 23.65 102.25 24.15Q102.15 24.35 101.80 24.55Q101.80 24.60 101.75 24.65Q101.20 25.25 100.18 26.27Q99.15 27.30 97.65 28.95Q97.50 29 96.75 30Q96.45 30.15 96.05 30.70Q95.95 30.70 95.90 30.75Q95.75 31.10 95.38 31.45Q95.00 31.80 94.90 32.05Q94.70 32.30 94.35 32.67Q94.00 33.05 93.50 33.55Q93.50 33.65 93.45 33.75L93.00 34.30Q92.95 34.50 92.58 34.95Q92.20 35.40 92.20 35.40L92.15 35.45Q92.45 35.50 92.95 35.50Q93.45 35.50 94.10 35.55L95.15 35.55Q96.10 35.55 96.05 35.50Q95.95 35.35 96.15 35.30L97.05 35.10Q97.15 35.35 97.20 35.35Q97.30 35.35 97.68 35.15Q98.05 34.95 98.10 35L98.40 35.30L98.55 35.15L100.00 35L100.05 35.15L100.30 35Q100.45 35 100.50 35.15Q101.20 34.75 102.00 34.55L102.05 34.60Q102.00 34.65 102.40 34.50Q102.55 34.45 102.95 34.45L103.00 34.45Q103.10 34.45 103.18 34.42Q103.25 34.40 103.30 34.40Q103.95 34.40 104.05 34.80L104.05 34.85Q104.05 35.15 103.05 35.15Q102.95 35.15 102.83 35.23Q102.70 35.30 102.60 35.15L102.10 35.30Q101.90 35.35 101.80 35.35Q101.70 35.35 101.65 35.35L101.60 35.35Q101.55 35.35 101.18 35.45Q100.80 35.55 99.80 35.75Q99.65 35.75 99.10 35.98Q98.55 36.20 98.45 36.20Q98.40 36.20 97.98 36.33Q97.55 36.45 97.45 36.45L97.45 36.40Q97.45 36.30 97.40 36.30Q97.35 36.25 97.33 36.35Q97.30 36.45 97.20 36.45Q97.05 36.45 96.93 36.42Q96.80 36.40 96.65 36.40Q95.75 36.40 95.50 36.85L95.30 36.75Q95.10 36.60 94.95 36.60Q94.80 36.55 91.85 37.05L91.45 37.05Q91.50 37.10 91.60 37.10L92.15 37.10Q93.25 37.55 93.30 37.60L93.35 37.55L93.45 37.55Q93.50 37.55 93.98 37.80Q94.45 38.05 94.50 38.05L94.55 38L94.60 38Q95.15 38.60 95.75 38.60Q95.85 38.95 96.25 39Q96.40 39.05 96.75 39.40Q97.30 40.25 97.75 40.40L98.90 41.85Q98.90 41.90 99.03 42.13Q99.15 42.35 99.60 42.85Q99.60 42.80 99.90 43.50Q100.10 43.75 100.40 44.45Q100.40 44.65 100.43 44.88Q100.45 45.10 100.55 45.40L100.65 45.70Q100.60 45.70 100.55 46.05Q100.55 46.45 100.53 47.05Q100.50 47.65 100.45 48.45Q100.45 48.70 100.10 49.60L100.00 49.70L99.75 50.15Q99.75 50.30 99.70 50.45L98.90 51.65L98.65 51.80L98.00 52.95Q97.65 53.40 97.33 53.63Q97.00 53.85 96.55 54.20Q96.45 54.20 96.30 54.25Q96.10 54.45 95.85 54.70Q95.60 54.95 95.20 55.10L94.30 55.45L93.85 55.85Q93.75 55.85 92.75 56.35Q92.10 56.65 91.40 56.65Q91.35 56.65 91.25 56.58Q91.15 56.50 91.10 56.50L89.90 56.75L89.40 56.65L89.30 56.70L89.25 56.75M90.05 54.60L90.20 54.75Q90.20 54.75 90.55 54.60L90.75 54.60Q91.25 54.60 92.05 54.15Q92.15 54.25 92.20 54.25Q92.25 54.25 92.73 54.17Q93.20 54.10 93.45 54.10L93.65 53.85L93.75 53.95Q93.80 53.95 93.90 53.85Q94.00 53.75 94.10 53.70Q94.25 53.65 94.65 53.42Q95.05 53.20 95.00 53.20Q95.05 53.20 95.20 53.40L96.00 52.95L96.50 52.50Q96.60 52.50 96.65 52.45Q96.85 52.25 97.08 51.98Q97.30 51.70 97.60 51.35Q97.70 51.45 97.85 51.45Q98.00 51.45 98.18 51.23Q98.35 51 98.25 50.85L98.70 50.85L99.40 49.35Q99.40 48.95 99.70 48.60Q99.70 48.55 99.70 48.45Q99.70 48.35 99.75 48.25L99.80 48.05Q99.80 47.75 99.80 47.38Q99.80 47 99.75 46.55Q99.65 45.80 99.30 45.15Q99.30 45 99.35 44.85Q99.20 44.65 99.03 44.40Q98.85 44.15 98.65 43.80L98.50 43.20Q98.20 42.95 97.90 42.60Q97.70 42.50 97.48 42.27Q97.25 42.05 97.00 41.80L96.80 41.45L96.40 41.25Q96.35 41.15 96.03 40.98Q95.70 40.80 95.75 40.60Q95.40 40.60 94.85 40.20L94.25 39.75L94.15 39.75Q94.10 39.80 94.05 39.80Q93.75 39.80 93.65 39.50Q93.30 39.30 92.90 39.30Q92.90 39.25 92.55 39.15L92.20 38.90L92.05 39Q91.65 39 91.65 38.60Q91.65 38.35 91.85 38.35L91.90 38.40L91.95 38.40Q92.10 38.40 92.05 38.05L91.95 38.10Q91.70 38.05 91.35 37.95Q91.00 37.85 90.55 37.70L88.90 40.05Q88.85 40.15 88.80 40.30Q88.75 40.45 88.65 40.65Q88.50 40.95 88.28 41.38Q88.05 41.80 87.70 42.35Q87.70 42.50 87.63 42.65Q87.55 42.80 87.45 43.10Q87.10 43.35 87.05 43.70Q86.95 44.25 86.60 45.30Q86.55 45.35 86.50 45.40Q86.45 45.45 86.45 45.55L86.35 46.20L86.25 46.25Q86.20 46.60 86.10 47Q86.00 47.40 85.90 47.80L85.90 48.15Q85.90 48.45 85.75 48.95Q85.60 49.45 85.60 49.95Q85.60 50.05 85.70 50.05Q85.60 50.45 85.65 50.50Q85.65 51 85.85 51.65Q85.95 51.80 86.05 52.10Q86.15 52.40 86.25 52.75Q86.45 52.90 86.65 53.30L86.80 53.30Q87.00 53.55 87.00 53.63Q87.00 53.70 87.55 54.10Q87.75 54.15 88.00 54.23Q88.25 54.30 88.60 54.50Q88.70 54.50 88.90 54.52Q89.10 54.55 89.35 54.60L89.90 54.70Q90.00 54.70 90.00 54.65L90.05 54.60ZM103.40 44.20Q103.35 44.15 103.28 44.05Q103.20 43.95 103.15 43.95L103.10 43.95Q103.10 44 103.05 44Q102.95 44 102.85 43.55Q102.80 43.50 102.50 43.40Q102.35 42.85 102.15 42.80L102.15 41.45L102.55 41Q102.60 40.95 102.50 40.65Q102.55 40.55 102.60 40.45Q102.65 40.35 102.75 40.25Q102.75 40.10 102.70 39.90Q102.80 39.60 103 39.45Q103 39.15 103.20 38.90Q103.30 38.90 103.75 38.30L104.25 37.55Q104.40 37.45 104.85 37L104.85 36.80Q105 36.70 105.15 36.50Q105.50 36.45 105.65 36.20Q105.65 36.15 105.65 36.05Q105.65 35.95 105.70 35.85Q105.80 35.80 105.90 35.80Q106 35.80 106.15 35.75Q106.25 35.45 106.40 35.35Q107.05 35.30 107.35 34.65Q107.40 34.65 107.58 34.52Q107.75 34.40 107.80 34.40Q107.80 34.40 107.80 34.40L107.80 34.40Q107.75 34.45 107.95 34.50Q108.05 34.40 108.05 34.35Q108.30 34.20 108.50 34.20Q108.75 33.90 108.75 33.90Q108.80 33.90 108.83 33.95Q108.85 34 108.90 34Q109 34 109.28 33.88Q109.55 33.75 109.65 33.75L109.70 33.75Q109.65 33.80 109.75 33.80Q109.80 33.80 109.88 33.73Q109.95 33.65 110 33.65Q110.10 33.65 110.20 33.73Q110.30 33.80 110.35 33.80Q110.40 33.80 110.43 33.75Q110.45 33.70 110.55 33.70Q110.55 33.70 110.55 33.70L110.55 33.70Q110.45 33.70 110.70 33.80Q110.75 33.60 110.95 33.60Q111.05 33.60 111.08 33.67Q111.10 33.75 111.20 33.75Q111.25 33.75 111.25 33.70L111.35 33.70Q111.45 33.70 111.75 34.10Q111.85 34 111.85 34Q112.20 34.25 112.25 34.40L112.25 34.90L112.15 34.80Q111.85 34.90 111.55 34.90Q111.50 34.90 111.48 34.85Q111.45 34.80 111.35 34.80Q111.30 34.80 111.23 34.85Q111.15 34.90 111.10 34.90Q111 34.90 110.93 34.85Q110.85 34.80 110.80 34.80Q110.75 34.80 110.75 34.85Q110.75 34.90 110.65 34.90L110.60 34.90Q110.65 34.85 110.55 34.85Q110.50 34.85 109.98 35.10Q109.45 35.35 109.40 35.35Q109.35 35.35 109.25 35.20L108.25 35.65L107.90 35.55Q107.85 35.55 107.65 35.75Q107.45 35.95 107.35 35.95Q107.30 35.95 107.30 35.90L107.25 35.90Q107.05 35.90 106.88 36.13Q106.70 36.35 106.35 36.45Q106.30 36.50 106.35 36.65Q106.10 37.20 105.70 37.35Q105.65 37.40 105.65 37.55L105.30 37.55Q105.25 37.60 105.25 37.90Q105.25 37.90 105.18 37.90Q105.10 37.90 105 37.85Q104.85 38.10 104.95 38.35L104.45 38.35Q104.35 38.55 104.20 38.83Q104.05 39.10 103.90 39.50Q103.85 39.65 103.73 39.88Q103.60 40.10 103.50 40.40Q103.20 40.75 103 41.25L103 41.70Q103 41.75 102.95 41.90Q102.90 42.05 102.90 42.15Q103.15 42.40 103.40 42.40Q103.55 42.40 103.78 42.33Q104 42.25 104.20 41.85L104.35 41.95Q104.75 41.80 105.25 41.40Q105.30 41.35 105.50 41.30Q105.70 41.25 105.70 41.05Q105.75 41.05 105.80 41.10L106 40.75Q106.55 40.65 106.60 40.15Q106.70 40.15 106.75 40.20L107.10 39.90Q107.10 39.80 107.15 39.70Q107.20 39.70 107.25 39.67Q107.30 39.65 107.40 39.60L107.70 39.05Q107.85 38.90 108.20 38.85Q108.35 38.75 108.48 38.60Q108.60 38.45 108.70 38.35Q108.65 38.25 108.60 38.15Q108.55 38.05 108.45 37.95Q108.35 37.80 108.55 37.70Q108.45 37.75 108.45 37.60L108.45 37.30Q108.60 37.20 108.83 37.10Q109.05 37 109.30 36.80Q109.50 36.70 109.55 36.70Q109.55 36.70 109.55 36.70L109.55 36.70Q109.40 36.70 109.65 36.80Q109.75 36.55 109.90 36.25Q110.05 35.95 110.20 35.55L110.60 35.35Q110.60 35.35 110.70 35.65Q110.30 36.20 110.30 36.50Q110.30 36.65 110.80 36.80Q110.80 36.80 110.80 36.83Q110.80 36.85 110.75 36.90Q110.95 37.05 111.08 37.20Q111.20 37.35 111.25 37.45Q110.90 37.95 110.90 38.40L111 38.50Q110.95 38.55 110.95 38.90Q111 39.20 111.08 39.52Q111.15 39.85 111.25 40.25L111.60 40.75L111.60 40.90Q111.60 41.60 112.10 42.10L112.25 42L112.25 42.15Q112.55 42.25 112.90 42.60L113.45 42.60Q113.60 42.80 113.75 42.80Q114.55 42.80 114.55 42.40Q114.55 42.40 114.65 42.50Q115.20 42.25 116.30 40.85Q117.05 39.95 117.15 40L117.35 40.05L117.35 40.25L117.40 40.30Q117.40 40.30 117 40.85Q117 41.05 116.60 41.35Q116.70 41.40 116.60 41.50L116.30 41.70L116.40 41.85Q115.90 42 115.60 42.25Q115.30 42.50 115.35 42.60Q115.25 42.60 115 42.90Q114.80 42.90 114.80 43.10Q114.70 43 114.70 43L114.55 43.10Q114.55 43.10 114.48 43.15Q114.40 43.20 114.30 43.30Q114.25 43.30 114.15 43.30Q114.05 43.30 113.95 43.35L113.85 43.50L113.60 43.50Q113.55 43.45 113.50 43.45Q113.05 43.45 112.80 43.70L112.80 43.50L112.15 43.50L112.15 43.30Q112.05 43.40 112 43.40Q111.90 43.40 111.73 43.23Q111.55 43.05 111.35 43.10Q111.10 42.70 110.78 42.27Q110.45 41.85 110.35 41.95Q110.35 41.90 110.40 41.85Q110.25 41.70 110.20 41.40Q109.85 41 108.85 38.95Q108.65 39.15 108.35 39.50Q108.05 39.85 107.65 40.25Q107.60 40.35 107.55 40.48Q107.50 40.60 107.45 40.80L107.10 41Q107.10 41.10 107.08 41.23Q107.05 41.35 107 41.55Q106.95 41.55 106.73 41.75Q106.50 41.95 106.30 41.95Q106.25 41.95 106.15 41.85Q106.05 41.95 105.90 42.13Q105.75 42.30 105.55 42.55Q105.60 42.60 105.85 42.60L105.85 42.80Q105.85 42.85 105.55 43.15L105.65 43.25Q105.50 43.35 105 43.85Q104.95 43.85 104.83 43.85Q104.70 43.85 104.55 43.90Q103.90 44.15 104.15 44.15Q104 44.15 103.80 44.10L103.50 44.10Q103.40 44.10 103.40 44.20M112.55 31.80Q112.20 31.80 111.50 31.25Q110.90 30.65 110.90 30.30Q111.50 30.05 112.20 29.73Q112.90 29.40 113.70 29L113.75 29Q113.55 29.55 113.20 29.90L113.30 30.25L113.30 30.55L113.05 30.85Q113.05 31.80 112.55 31.80M108.30 31.80Q107.95 31.80 107.25 31.25Q106.65 30.65 106.65 30.30Q107.25 30.05 107.95 29.73Q108.65 29.40 109.45 29L109.50 29Q109.30 29.55 108.95 29.90L109.05 30.25L109.05 30.55L108.80 30.85Q108.80 31.80 108.30 31.80ZM122.85 44.25Q122.60 44 122.35 44L121.95 44.10Q121.90 44.10 121.75 44Q121.60 43.90 121.55 43.90Q121.40 43.90 121.40 44Q121.10 43.70 120.90 43.70L120.85 43.70Q120.85 43.75 120.75 43.75Q120.60 43.75 120.45 43.50L120.25 43.25Q120.20 43.25 119.95 42.95Q119.70 42.65 119.80 42L119.80 41.85Q119.75 41.75 119.50 41.85Q119.45 41.75 119.40 41.63Q119.35 41.50 119.25 41.35Q119.20 41.35 118.80 41.75L118.50 41.90L118.20 42.35Q117.85 42.55 117.75 42.65Q117.65 42.75 117.60 42.75L117.45 42.75Q117.25 42.70 117.25 42.55Q117.25 42.45 117.48 42.20Q117.70 41.95 117.80 41.95Q117.80 41.95 117.80 41.95L117.80 41.95Q117.90 42 117.95 42L118 41.80Q118.50 41.60 118.50 41.25L118.85 40.95Q119.05 40.95 119.20 40.65L119.40 40.50L119.60 39.50Q119.70 39.50 119.75 39.40Q119.80 39.30 120 38.80Q120.05 38.75 120 38.45Q120 38.45 119.98 38.45Q119.95 38.45 119.90 38.40Q120.05 38.20 119.90 37.85Q119.95 37.65 120.30 37.55Q120.35 37.45 120.65 37.15Q120.70 37.20 120.85 36.20Q120.85 36.10 121.10 36Q121.15 35.45 121.28 35.17Q121.40 34.90 121.70 34.45Q121.80 33.80 121.95 33.65Q122.50 32.95 122.55 32.60Q122.90 32.55 123.25 31.90Q123.25 31.90 123.23 31.90Q123.20 31.90 123.20 31.85Q123.20 31.45 123.90 30.60Q124.60 29.80 125.50 28.55Q125.65 28.50 126.25 27.90Q126.55 27.80 126.60 27.75L126.60 27.75Q126.60 27.75 126.60 27.75Q126.60 27.75 126.60 27.75Q126.65 27.85 126.65 27.88Q126.65 27.90 126.65 27.90Q126.65 28.20 126.35 28.30Q125.80 29.15 125.80 29.05Q125.80 29.15 125.90 29.15Q125.95 29.15 125.95 29.10L126 29.10Q126.10 29.10 126.35 29.35Q126.45 29.25 126.60 29.20Q126.60 29.20 126.60 29.13Q126.60 29.05 126.65 28.95Q126.70 28.90 126.85 28.82Q127 28.75 127.20 28.55Q127.25 28.35 127.43 28.02Q127.60 27.70 127.95 27.50Q127.90 27.45 127.95 27.25Q128.10 27.30 128.28 27.10Q128.45 26.90 128.60 26.95Q128.70 26.65 128.80 26.50L129.10 26.35Q129.20 25.60 129.60 25.60Q129.60 25.60 129.60 25.60L129.60 25.60Q129.70 25.65 129.75 25.65L129.80 25.45Q129.85 25.40 129.95 25.35Q130.05 25.30 130.15 25.20L130.15 25.10Q130.15 24.60 130.75 24.55Q130.80 24.45 130.80 24.10L131.05 24.10Q131.20 23.95 131.25 23.85Q131.30 23.75 131.50 23.65Q131.45 23.10 132.20 21.95Q132 22.10 131.85 22.10Q131.80 22.10 131.80 22.05Q131.80 21.95 131.80 21.85Q131.80 21.75 131.85 21.55Q131.95 21.45 132.13 21.30Q132.30 21.15 132.50 21Q132.60 20.90 132.72 20.77Q132.85 20.65 133.05 20.45Q133.20 20.40 133.55 19.90Q133.65 19.80 133.80 19.63Q133.95 19.45 134.05 19.25Q134.45 19.15 134.60 18.75Q134.75 18.35 135.55 18.05Q135.75 17.80 136.30 17.50Q136.30 17.50 136.40 17.20Q136.70 17.10 137.20 16.45Q137.25 16.35 137.78 15.97Q138.30 15.60 138.35 15.60L138.55 15.60Q138.55 15.60 138.90 15.77Q139.25 15.95 139.75 16.25L139.85 16.85L139.70 17.15L140.05 17.30Q140.10 17.30 140.10 17.45Q140.10 17.70 139.95 18.25Q139.90 18.55 139.88 18.82Q139.85 19.10 139.90 19.35L138.90 20.75L138.55 21.25Q138.50 21.25 138.30 21.35Q137.75 21.85 137.05 23.15Q137 23.15 137 23.13Q137 23.10 136.95 23.10Q136.70 23.25 136.50 23.75L136.05 23.95Q135.95 24.15 135.75 24.35L135.65 24.25L135.50 24.75Q135.25 24.95 135.22 25.13Q135.20 25.30 135.05 25.50L134.45 26Q134.40 26.05 133.88 26.40Q133.35 26.75 133.35 26.90Q133.05 27.25 132.57 27.77Q132.10 28.30 131.45 29.05Q131.25 29.30 130.93 29.63Q130.60 29.95 130.10 30.35Q130 30.45 129.75 30.73Q129.50 31 129.15 31.40Q128.90 31.55 128.55 31.80Q128.20 32.05 127.80 32.40Q127.80 32.45 127.65 32.55Q127.50 32.65 127.20 33.10L127.05 33.10Q126.90 33.30 126.68 33.55Q126.45 33.80 126.20 34.20Q126.10 34.20 126.05 34.25Q125.70 34.75 125.30 35Q125.30 35.05 125.23 35.15Q125.15 35.25 124.90 35.40Q124.90 35.50 124.80 35.70Q124.70 35.90 124.40 36.05Q124.35 36.10 124.35 36.25L124.20 36.25Q124.05 36.40 123.95 36.65Q123.45 36.80 123.50 37.15L123.05 37.55Q122.60 37.90 122.15 38.50Q122.10 38.65 121.85 39.80Q121.95 39.90 121.85 40.35Q121.70 40.85 121.70 41Q121.70 41.15 121.70 41.20Q121.70 41.45 121.98 41.80Q122.25 42.15 122.25 42.35Q122.40 42.45 122.65 42.35Q122.65 42.45 122.85 42.50Q123 42.85 123.45 42.90L123.60 42.70L123.75 42.70Q123.80 42.90 124 42.90Q124.10 42.90 124.28 42.80Q124.45 42.70 124.50 42.70Q124.50 42.70 124.50 42.70L124.50 42.70Q124.45 42.75 124.65 42.80Q124.70 42.75 124.70 42.55L125.10 42.55Q126.10 42.55 126.35 42.15Q126.55 42.10 126.80 42Q127.05 41.90 127.40 41.80Q127.60 41.70 127.65 41.50Q127.60 41.50 127.60 41.45L128.15 41.45L128.15 41.20Q128.25 41.15 128.70 41.15L128.90 40.85L129.45 40.55Q129.50 40.55 129.68 40.50Q129.85 40.45 130.15 40.10Q130.25 40.10 130.35 40.05Q130.65 39.85 131.30 39.15L132.25 38.65L132.35 38.55L132.80 38.55Q132.75 38.75 132.50 39.05L131.85 39.50Q131.20 39.95 131.25 39.95L131.20 39.95Q131.20 39.90 131.15 39.90Q130.75 40.10 130.65 40.40Q130.50 40.40 130.45 40.60Q130.35 40.60 130.20 40.65Q130.20 40.65 130.20 40.67Q130.20 40.70 130.15 40.80L129.50 41.25Q129.50 41.50 129.10 41.60Q128.95 41.60 128.75 41.40L128.45 41.60L128.45 41.65Q128.45 41.90 128.20 42.05Q127.95 42.20 127.80 42.10Q127.85 42.15 127.85 42.30Q127.85 42.35 127.60 42.70L126.40 43.30L126.35 43.30Q126.35 43.25 126.25 43.25Q125.95 43.25 125.65 43.55Q125.50 43.60 125.05 43.75Q124.60 43.90 124.55 43.90L124.40 43.80L123.75 43.80Q123.55 43.80 123.50 43.95Q123.45 44.10 123.35 44.10Q123.30 44.10 123.30 44.05L123.20 44.05Q122.90 44.05 122.85 44.25M123.10 36.85L123.30 36.75Q123.55 36.50 123.83 36.15Q124.10 35.80 124.40 35.40Q124.40 35.40 124.55 35.25Q124.70 35.10 124.70 34.95Q124.95 34.70 125.25 34.42Q125.55 34.15 125.95 33.80L126.15 33.45Q126.20 33.40 126.30 33.35Q126.40 33.30 126.50 33.20L127.60 32.10Q127.65 32.05 127.65 31.90Q128 31.65 128.05 31.45Q128.15 31.40 128.40 31.15Q128.65 30.90 129 30.50Q129.20 30.50 129.50 30.05Q129.60 30 129.85 29.75Q130.50 28.65 130.50 28.60L130.65 28.60L131.40 27.80Q131.60 27.60 131.60 27.25Q132.45 26.85 132.55 26.25L132.90 26Q132.90 25.85 133.25 25.50Q133.25 25.50 133.30 25.50Q133.35 25.50 133.40 25.45Q133.50 25.30 133.63 25.07Q133.75 24.85 133.95 24.50L134.20 24.50L134.35 24.15Q134.45 23.95 134.68 23.72Q134.90 23.50 135.15 23.15L135.15 22.95Q135.30 22.95 135.50 22.80Q135.55 22.70 135.60 22.57Q135.65 22.45 135.75 22.25Q135.95 21.90 136.28 21.45Q136.60 21 137 20.40Q137 20.05 137.40 19.55L137.40 19.40Q137.45 19.35 137.35 19.35Q137.25 19.35 137.15 19.45Q135.90 20.40 135.13 21.05Q134.35 21.70 134.10 22Q133.95 22.05 133.80 22.30Q133.80 22.30 133.68 22.45Q133.55 22.60 133.30 22.85Q133.15 23.05 132.85 23Q132.80 23.40 132.28 23.77Q131.75 24.15 131.70 24.45Q131.20 24.70 130.45 25.65Q129.80 26.30 128.65 27.75Q128.35 27.90 127.90 28.70L127.55 29Q127.55 29.20 127.10 29.45Q127.10 29.60 126.90 29.80Q126.70 30 126.70 30.10Q126.55 30.30 126.20 30.60Q126.20 30.60 126.10 30.90Q126 31.10 125.85 31.23Q125.70 31.35 125.60 31.45Q125.55 31.65 125.55 31.75Q125.55 31.85 125.55 31.90Q125.30 32.15 125.03 32.60Q124.75 33.05 124.45 33.60Q124.20 33.60 124.05 34.05Q123.90 34.50 123.80 34.55Q123.70 34.65 123.55 34.70L123.55 34.90L123.75 35.05Q123.55 35.50 123.25 35.55Q123.25 35.75 123.15 35.95Q123.15 36 123.25 36Q123.15 36.25 123.10 36.30Q123.05 36.35 122.95 36.45L123.10 36.85M135.45 36.05Q135.45 35.85 135.85 35.45L135.90 35.45Q135.90 35.50 135.95 35.50Q136 35.50 136.30 35.08Q136.60 34.65 136.65 34.65Q136.80 34.65 137 34.80L137 35.25Q136.90 35.30 136.75 35.48Q136.60 35.65 136.55 35.65Q136.40 35.65 136.25 35.50Q136.20 35.50 136.05 35.80L135.60 36.05L135.45 36.05M133.45 38Q133.45 37.90 133.25 37.85Q133.60 37.65 134.30 36.85Q134.50 36.90 134.65 36.55Q134.80 36.20 135 36.15L135.25 36.15L135.35 36.25Q135.30 36.40 135.20 36.60Q135.10 36.80 134.95 37.05L134.90 37.05Q134.75 37.05 134.57 37.23Q134.40 37.40 134.40 37.50Q134.40 37.55 134.20 37.63Q134 37.70 133.65 38L133.45 38M132.85 38.50L132.85 38.05Q132.95 38.10 133 38.13Q133.05 38.15 133.05 38.15Q133.15 38.15 133.15 38.05Q133.25 38.15 133.45 38.15Q133.15 38.50 132.85 38.50ZM130.50 52.50Q130.40 52.60 130.30 52.40Q130.30 52.25 130.35 51.95Q130.40 51.65 130.45 51.50L131.10 49.05Q131.10 48.85 131.10 48.60Q131.10 48.35 131.15 48.10Q131.25 48 131.35 47.88Q131.45 47.75 131.55 47.55L131.40 47.10Q131.40 47 131.65 46.85Q131.45 46.65 131.55 46.35L131.95 45.25Q131.80 45.35 131.55 45.65Q131.45 45.55 131.30 45.50Q131.35 45.40 131.20 45.15L131.35 44.50Q131.70 44.30 131.70 44L131.65 43.55Q131.85 43.35 132.05 43Q132 42.95 132 42.75Q132.05 42.30 132.18 41.92Q132.30 41.55 132.25 41.50L132.25 41.15L132.55 40.25Q132.45 40.15 132.45 40.10Q132.55 39.85 132.80 39.60L132.80 39.30L133.10 39.10L133.10 38.60Q133.25 38.60 133.30 38.55Q133.15 38.40 133.10 38.25Q133.65 38 133.35 37.60L133.50 36.95Q133.50 36.95 133.80 36.85Q133.75 36.65 133.70 36.65L133.95 36.40Q133.90 36.30 133.90 36.05L134.20 35L134.05 34.85Q134.15 34.60 134.25 34.23Q134.35 33.85 134.55 33.35L134.20 33.35Q134.15 33.35 134.10 33.42Q134.05 33.50 134 33.50Q133.90 33.50 133.95 33.45L133.90 33.45Q133.75 33.45 133.70 33.65Q133.70 33.55 133.65 33.55Q133.55 33.60 133.10 33.85Q133.05 33.85 132.93 33.88Q132.80 33.90 132.65 33.95Q131.75 34.30 131.80 34.30Q131.75 34.30 131.65 34.15Q131.55 33.90 131.65 33.80Q131.60 33.70 131.60 33.40Q131.80 33.20 132.15 32.55Q132.40 32.55 132.75 32.20Q132.75 32.30 132.85 32.40Q132.85 32.35 132.90 32.30Q133.20 32.30 133.25 32.35L134.10 31.95Q134.10 32 134.20 32.10L134.35 32Q134.30 32.15 134.35 32.15Q134.45 32.15 134.95 31.70L135.30 31.40Q135.30 31.35 135.25 31.35L135.80 29.95Q135.75 29.95 135.65 29.85L135.85 29.70Q135.95 29.55 136.05 29.35Q136.15 29.15 136.25 28.95Q136.25 28.75 136.25 28.50Q136.25 28.25 136.30 28Q136.35 27.95 136.57 27.55Q136.80 27.15 136.85 26.95Q136.95 26.75 137.10 26.38Q137.25 26 137.40 25.25Q137.60 25.05 137.90 24.25Q137.90 24.35 137.95 24.35Q138.05 24.25 138.15 24.05Q138.20 23.90 138.05 23.60L138.15 23.55Q138.15 23.55 138.25 23.25Q138.30 23.20 138.38 23.15Q138.45 23.10 138.50 23L138.95 21.70L139 21.75L139.10 21.75Q139.15 21.70 139.05 21.65L139.25 21.45Q139.25 21.35 139.25 21.25Q139.25 21.15 139.30 21Q139.40 20.90 139.53 20.77Q139.65 20.65 139.85 20.45L140 20.45Q140 20.45 140 20.47Q140 20.50 140.05 20.55Q140.25 20.50 140.45 20.20Q140.45 20.20 140.47 20.20Q140.50 20.20 140.55 20.25Q140.95 20.30 140.95 20.30Q140.95 20.30 141.10 20.30L141.35 20.30Q141.75 20.30 141.90 20.45L142.15 20.45Q142.25 20.55 142.25 20.70L142.15 21.05Q142 21.60 141.85 21.90Q141.70 22.20 141.40 22.65L141.15 23Q141.05 23.25 140.88 23.65Q140.70 24.05 140.50 24.60Q140.45 24.60 140.43 24.60Q140.40 24.60 140.35 24.80L140.20 25.15Q140.20 25.25 139.85 25.75Q139.75 25.85 139.70 26.40L139.30 27.35Q139.35 27.40 139.35 27.45Q139 27.70 138.90 27.70Q138.80 27.70 138.70 27.60L138.90 27.10L138.85 27.05Q138.75 27.15 138.75 27.20Q138.55 27.30 138.50 27.45L138.05 28.65L137.70 29.30L137.05 31.15Q136.95 31.45 137.05 31.55Q137.05 31.55 137.25 31.45Q137.50 31.85 137.30 31.85Q137.55 31.85 137.60 31.85Q137.65 31.85 137.55 31.80Q137.60 31.75 137.78 31.65Q137.95 31.55 138.50 31.40Q138.55 31.60 138.65 31.60Q138.75 31.60 139.05 31.42Q139.35 31.25 139.40 31.25Q139.40 31.25 139.47 31.30Q139.55 31.35 139.65 31.45L139.80 31.35L140.95 31Q140.95 31 140.95 31L140.95 31Q140.95 31 141 31.15Q141.10 31.10 141.15 31.07Q141.20 31.05 141.20 31.05Q141.25 31.05 141.35 31.15Q141.95 30.75 142.55 30.55Q142.60 30.55 142.60 30.60L142.65 30.60Q142.70 30.60 142.97 30.50Q143.25 30.40 143.35 30.40Q143.35 30.50 143.20 30.65Q142.90 30.70 142.63 30.98Q142.35 31.25 142.30 31.25L142.25 31.25Q142.30 31.20 142.25 31.20Q142.40 31.20 140.80 31.65Q140.65 31.70 140.20 31.92Q139.75 32.15 139.70 32.15L138.90 32.40Q138.85 32.40 138.90 32.35Q138.90 32.30 138.85 32.30Q138.80 32.30 138.78 32.38Q138.75 32.45 138.70 32.45Q137.55 32.45 137.30 32.85L137.15 32.85Q137.10 32.85 137.03 32.80Q136.95 32.75 136.85 32.75Q136.70 32.75 136.45 33Q136.40 33.20 136.30 33.45Q136.20 33.70 136.10 34.05Q136.10 34.05 135.75 35.05Q135.55 35.60 135.35 36.17Q135.15 36.75 134.90 37.30Q134.85 37.50 134.75 37.85Q134.65 38.20 134.55 38.65Q134.15 40.25 133.20 43.10Q133.05 43.50 132.90 43.75Q132.95 43.80 132.95 44.10Q132.90 44.20 132.85 44.35Q132.80 44.50 132.70 44.60L132.70 44.80Q132.70 44.95 132.40 45.50Q132.50 45.85 132.40 45.95Q132.05 47.35 131.75 47.70L131.75 47.85Q131.75 48 131.70 48.23Q131.65 48.45 131.55 48.70Q131.35 49.50 131.10 50.42Q130.85 51.35 130.55 52.45L130.50 52.50M139.35 27.45Q139.35 27.45 139.35 27.45L139.35 27.45M133.70 36.65Q133.70 36.60 133.70 36.65L133.70 36.65ZM141.50 43.95Q141.35 43.95 141.25 43.70Q141.20 43.75 141.20 43.80L140.90 43.80L140.75 43.50Q140.70 43.55 140.70 43.60Q140.65 43.60 140.55 43.50L140.40 43.60Q140.15 43.35 139.88 42.92Q139.60 42.50 139.55 42.05Q139.50 42 139.35 42L139.35 41.60Q139.55 41.55 139.60 40.80L139.75 40.60L139.75 40.35L139.65 40.25L139.85 40.10L140.40 38.55L140.90 38L140.90 37.85Q141.50 37.45 141.65 37Q141.85 37 141.85 36.80Q142.50 36.60 142.35 36.15Q142.45 36.10 142.48 36.10Q142.50 36.10 142.50 36.10Q142.55 36.10 142.70 36.17Q142.85 36.25 142.90 36.25Q143 36.25 143.08 36.20Q143.15 36.15 143.20 36.15Q143.40 36.35 143.45 36.35Q143.70 36.35 143.95 36.15Q143.95 36.20 144 36.30Q144.05 36.40 144.05 36.45Q144.05 36.70 143.85 36.90L144 37.10Q144 37.45 143.40 38.20Q142.80 38.85 142.55 38.95Q142.50 39 142.45 39.13Q142.40 39.25 142.30 39.35L142.20 39.35L142.10 39.25L141.60 39.90Q141.60 40.10 141.20 40.65Q141.05 40.70 140.98 40.67Q140.90 40.65 140.90 40.70L140.90 41.05Q141.15 41.50 141.10 41.65Q140.95 41.95 140.95 42Q140.95 41.95 141.25 42.40Q141.20 42.45 141.20 42.75Q141.60 42.80 142.25 43.20L142.45 43.20Q142.65 43.20 142.73 43.13Q142.80 43.05 142.80 43.05Q142.85 43.05 142.85 43.10L142.90 43.10Q142.95 43.10 143.15 42.90Q143.35 42.70 143.40 42.70Q143.45 42.70 143.45 42.75Q143.45 42.80 143.50 42.80Q143.55 42.80 143.70 42.75Q143.85 42.70 143.95 42.70L143.95 42.55Q143.90 42.50 143.95 42.50L143.95 42.55Q144 42.60 144.30 42.70L144.25 42.50Q144.40 42.45 144.50 42.20Q144.75 42.20 144.98 42.13Q145.20 42.05 145.20 41.90L145.60 41.90Q145.60 42 145.70 42Q146.20 42 146.25 41.35L146.55 41.05Q146.55 41.05 146.65 41.15Q146.85 40.95 147 40.95Q147.05 40.95 147.08 41Q147.10 41.05 147.20 41.05Q147.35 41.05 147.50 40.90Q147.65 40.75 147.65 40.70Q147.75 40.60 147.90 40.50Q148.05 40.40 148.15 40.20L148.45 40.35Q148.40 40.30 149.50 39.45Q150 39.25 150 39.15Q150.20 39.15 150.40 39L150.40 38.85L151.10 38.50L151.10 38.80L150.85 38.80Q150.80 38.85 150.80 39.10L149.65 40Q149.55 40 149.60 39.95L149.55 39.95Q149.60 39.95 149.10 40.45Q149 40.55 148.70 40.55Q148.05 41.15 148.20 41.10Q148.20 41.10 148.20 41.10L148.20 41.10Q148.15 41.05 148.10 41.05Q148.05 41.10 148.05 41.25L148 41.25Q147.80 41.25 147.40 41.65Q147.35 41.65 147.25 41.65Q147.15 41.65 147.05 41.70Q146.85 41.85 146.58 42.08Q146.30 42.30 145.95 42.60L145.65 42.60Q145.30 42.90 145.15 42.90L145 42.90Q144.95 42.85 144.90 42.85Q144.85 42.85 144.53 43.05Q144.20 43.25 144.10 43.25L144.05 43.25Q144.05 43.20 144 43.20Q143.95 43.20 143.63 43.38Q143.30 43.55 143.25 43.55L143.20 43.55Q143.20 43.50 143.10 43.50Q143.05 43.50 142.98 43.55Q142.90 43.60 142.70 43.65Q142.20 43.90 142.40 43.90Q142.35 43.90 142.10 43.85Q141.85 43.80 141.75 43.80L141.50 43.95M151.50 38.40Q151.45 38.40 151.43 38.33Q151.40 38.25 151.35 38.25L152.05 37.50Q152.25 37.50 152.25 37.60Q152.25 37.80 151.93 38.08Q151.60 38.35 151.50 38.40M144.95 34.40Q144.55 34.40 143.85 33.85Q143.25 33.25 143.25 32.90Q143.85 32.65 144.58 32.33Q145.30 32 146.10 31.60L146.15 31.60Q145.95 32.15 145.60 32.50L145.70 32.85L145.70 33.15L145.45 33.45Q145.45 34.40 144.95 34.40ZM144.90 62.60Q144.75 62.60 144.43 62.35Q144.10 62.10 143.95 62.10Q143.80 62.10 143.80 62.15Q143.80 62.20 143.70 62.20Q143.60 62.20 143.45 62Q143.30 61.80 143.20 61.80Q143.05 61.80 143.03 61.85Q143 61.90 142.90 61.90Q142.90 61.90 142.90 61.90L142.90 61.90Q143 61.90 142.40 61.55Q142.20 61.50 141.88 61.28Q141.55 61.05 140.90 60.45Q141 60.35 140.90 60.25Q140.40 59.80 139.85 59.20Q139.85 59.10 139.85 58.95Q139.85 58.80 139.80 58.60Q139.75 58.55 139.57 58.30Q139.40 58.05 139.40 57.90Q139.40 57.85 139.55 57.52Q139.70 57.20 139.65 56.65Q139.85 56.65 139.95 56.55Q139.95 54.80 141.85 52.15Q141.95 52 142.05 52Q142.30 52 142.10 52.30Q141.60 53 141.25 53.67Q140.90 54.35 140.70 54.90Q140.45 55.50 140.45 56.55L140.45 56.65Q140.45 57.30 140.70 57.92Q140.95 58.55 141.30 59.10Q142.20 60.60 143.55 61.05Q144.50 61.40 145.15 61.50L147.15 61.75L147.25 61.75Q147.35 61.75 147.50 61.73Q147.65 61.70 148.20 61.70Q148.45 61.70 149.95 61.20Q150.75 60.95 151.18 60.83Q151.60 60.70 151.65 60.70Q151.75 60.70 151.72 60.75Q151.70 60.80 151.85 60.80Q151.95 60.80 152.25 60.58Q152.55 60.35 152.65 60.30L153.60 60L153.65 59.95Q153.85 59.75 154.35 59.55Q154.45 59.65 154.60 59.55L155.05 59.20Q155.50 59.15 155.75 58.98Q156 58.80 156 58.80L156.05 58.80L156.40 58.60Q156.45 58.55 156.45 58.50Q156.80 58.35 157.30 57.95L158.50 57.20L158.70 57.05Q158.75 57.05 158.88 56.95Q159 56.85 159.05 56.65L159.25 56.75L159.45 56.45L159.95 56.20Q160.05 56.10 160.10 56.05Q160.15 56 160.20 55.95L160.80 55.20Q161 55.10 161.07 55Q161.15 54.90 161.45 54.70Q161.65 54.50 161.85 54.10Q162.05 54.10 163.05 53.10Q163.45 52.70 163.20 52.65Q163.25 52.65 163.30 52.70L163.45 52.55L163.45 52.30Q163.20 52.25 163.25 52.20Q162.85 52.35 162.47 52.90Q162.10 53.45 161.45 53.90Q161.40 53.90 161.40 54.10L161.20 54.10Q161.20 54.05 161.30 53.95L161.30 53.80Q161.25 53.75 161.10 53.75Q161.20 53.55 161.20 53.45Q161.60 52.95 162.10 52.35Q162.60 51.75 163.15 51Q163.75 50.40 163.90 49.90Q163.95 49.85 164.03 49.67Q164.10 49.50 164.20 49.05Q164.40 48.80 164.63 48.45Q164.85 48.10 164.70 47.90Q164.80 47.80 164.90 47.15Q165.05 47.10 165.20 46.75Q165.25 46.40 165.28 46.13Q165.30 45.85 165.30 45.65Q165.30 45.65 165.30 45.60Q165.30 45.55 165.25 45.50L165.30 45.30L165.10 44.50Q164.85 43.45 164 42.85Q163.95 42.75 163.82 42.60Q163.70 42.45 163.55 42.35Q162.60 41.90 162.15 41.90Q162.10 41.90 162.05 41.95Q162 42 161.95 42Q161.90 42 161.75 41.90Q161.60 41.80 161.55 41.80Q161.35 41.80 160.60 41.98Q159.85 42.15 159.65 42.15L159.60 42.15Q159.60 42.10 159.50 42.10Q159.50 42.10 159.38 42.15Q159.25 42.20 159 42.25Q158.75 42.45 158.65 42.45Q158.60 42.45 158.50 42.40Q158.40 42.35 158.35 42.35Q158.30 42.35 158.18 42.45Q158.05 42.55 157.95 42.55Q157.90 42.55 157.90 42.50L157.85 42.50Q157.95 42.50 156.85 43.05Q156.65 43.10 156.47 43.25Q156.30 43.40 156.20 43.40Q156.15 43.40 156.15 43.35Q156.15 43.30 156.05 43.30Q155.75 43.30 155.50 43.70Q155.20 43.75 154.90 43.88Q154.60 44 154.25 44.20Q154.15 44.20 154 44.25Q153.65 44.30 153.35 44.70Q153.25 44.60 153.10 44.70Q153 44.75 152.85 44.83Q152.70 44.90 152.40 44.95Q152.35 45 152.18 45.08Q152 45.15 151.65 45.15L151.55 45.15Q151.55 45.10 151.45 45.10Q151.30 45.10 151.10 45.30Q150.65 45 150.60 45Q150.55 45 150.55 45.05L150.45 45.05Q150.35 45.05 150.30 45Q150.25 44.70 149.65 44.30L149.65 43.85Q149.65 43 150 42.45Q150.20 42.35 150.35 42.20Q150.50 42.05 150.95 41.75Q150.95 41.70 151.40 41.40Q151.85 41.10 151.85 41Q152.50 40.65 153.45 40.40Q153.80 40.35 154.55 39.75Q154.45 39.65 153.95 39.40L153.95 39.35Q153.95 39.25 153.90 39.08Q153.85 38.90 153.75 38.70L153.65 38.05Q153.75 37.95 153.75 37.85Q153.65 37.55 153.65 37.55L153.65 37.05L153.95 36.55L153.95 36.25Q154.20 36.10 154.40 35.45Q154.60 35.40 154.85 34.90L155 34.60Q155.15 34.50 155.38 34.27Q155.60 34.05 155.90 33.75Q155.85 33.75 155.35 33.40Q154.85 33.05 154.75 33.05Q154.65 33.10 154.60 33.10Q154.50 32.95 154.38 32.80Q154.25 32.65 154.05 32.50Q154.05 32.45 154.10 32.38Q154.15 32.30 154.15 32.25Q154.15 32.20 154.05 32.08Q153.95 31.95 153.95 31.85Q153.95 31.80 154.10 31.52Q154.25 31.25 154.30 31.25Q154.75 31.25 154.75 31.85Q154.90 31.85 155.05 31.90Q155.45 32.45 155.60 32.45Q155.65 32.45 155.70 32.40L155.75 32.40Q155.80 32.40 156 32.48Q156.20 32.55 156.50 32.55Q156.55 32.75 156.70 32.75Q156.75 32.75 156.85 32.70Q156.95 32.65 157 32.65Q157.05 32.65 157.10 32.70Q157.15 32.75 157.25 32.75Q157.35 32.75 157.50 32.55L158 32.25L158.25 32.40Q158.55 32.40 158.75 32.10Q159 32.40 159.18 32.50Q159.35 32.60 159.55 32.70L159.55 32.75L159.90 33.15Q160.25 33.20 160.68 33.20Q161.10 33.20 161.60 33.20Q161.80 33.15 161.90 33.15Q162 33.15 162 33.15Q162 33.15 162.15 33.25Q162.25 33.35 162.55 33.25Q162.75 33.20 162.90 33.20L163.10 33.30L163.40 33.30Q163.55 33.25 163.70 33.25L164.40 33.05Q164.45 33.10 164.55 33.10Q164.60 33.05 164.70 33.05Q164.80 33.05 164.90 33L165.25 33L166.15 33.05Q166.20 33.25 166.15 33.40Q166.10 33.45 166 33.45Q165.90 33.45 165.80 33.50Q165.65 33.50 165.55 33.48Q165.45 33.45 165.35 33.45Q165.10 33.45 164.75 33.65Q164.35 33.90 164.30 33.90Q164.30 33.90 163.90 33.80Q163.85 33.80 163.70 33.88Q163.55 33.95 163.20 34.05Q163.10 33.95 162.95 33.90Q162.85 34.15 161.60 34.30Q161.85 34.70 161.82 34.70Q161.80 34.70 162.20 35.35Q162.30 35.70 162.20 36.40Q162.05 36.55 161.75 36.90Q161.45 37.25 160.90 37.65L160.80 37.85Q159.95 38.40 159.90 38.40L159.85 38.40Q159.85 38.35 159.80 38.35Q159.80 38.35 159.55 38.48Q159.30 38.60 159 38.90Q158.50 38.90 158.38 39.08Q158.25 39.25 157.90 39.50Q157.80 39.50 157.65 39.52Q157.50 39.55 157.30 39.60L157 39.80L156.55 39.80L156.35 39.95Q156.30 39.95 156.25 39.90Q156.20 39.85 156.15 39.85Q156.10 39.85 156.07 39.92Q156.05 40 155.95 40L155.90 40Q155.85 39.95 155.80 39.95Q155.60 39.95 155.50 40.05Q154.95 40.25 154.38 40.52Q153.80 40.80 153.25 41.05L152.80 41.25L151.55 42.10Q151.45 42.20 151.28 42.40Q151.10 42.60 150.90 42.85Q150.90 43 150.70 43.35Q150.65 43.60 150.63 43.67Q150.60 43.75 150.60 43.70Q150.60 43.95 151 44.35Q151.10 44.35 151.25 44.40Q151.40 44.45 151.45 44.45Q151.60 44.45 151.60 44.35Q151.60 44.40 151.60 44.35L151.60 44.35Q151.65 44.40 152.50 44.40Q152.65 44.40 153.28 44.08Q153.90 43.75 154.25 43.70Q154.45 43.35 154.75 43.35Q154.80 43.35 154.80 43.40L154.85 43.40Q154.80 43.40 155.15 43.20L155.85 42.95Q155.95 42.90 156.10 42.77Q156.25 42.65 156.30 42.65L156.35 42.65Q156.35 42.70 156.40 42.70Q156.50 42.70 156.53 42.63Q156.55 42.55 156.60 42.55L156.65 42.55Q156.65 42.60 156.70 42.60Q156.75 42.60 156.90 42.48Q157.05 42.35 157.10 42.35Q157.50 42.25 157.75 42.10L157.95 41.95Q158.65 41.90 159.05 41.55Q159.30 41.40 159.68 41.27Q160.05 41.15 160.85 41.05L160.95 40.95L161.05 40.95Q161.10 41 161.15 41Q161.20 41 161.32 40.92Q161.45 40.85 161.55 40.85Q161.55 40.85 161.55 40.85L161.55 40.85Q161.40 40.85 161.65 40.95Q161.70 40.75 162 40.75Q162.05 40.75 162.10 40.80Q162.15 40.85 162.20 40.85Q162.30 40.85 162.32 40.80Q162.35 40.75 162.45 40.75Q162.50 40.75 162.50 40.80Q162.50 40.85 162.60 40.85Q162.65 40.85 162.68 40.80Q162.70 40.75 162.75 40.75Q162.85 40.75 162.90 40.80Q162.95 40.85 163 40.85Q163.05 40.85 163.13 40.80Q163.20 40.75 163.25 40.75Q163.25 40.75 163.25 40.75L163.25 40.75Q163.25 40.75 163.75 40.95Q163.90 40.95 163.90 40.85Q164.40 41 164.45 41.05L164.45 41.05L164.55 41.05Q164.65 41.05 164.85 41.35L165.35 41.50Q165.45 41.75 165.65 41.90Q165.80 41.85 165.88 41.83Q165.95 41.80 165.95 41.80Q165.95 42.10 166 42.15Q166 42.05 166.15 42.05L166.15 42.20Q166.25 42.25 166.40 42.42Q166.55 42.60 166.60 42.60Q166.70 42.55 166.75 42.55Q166.85 42.85 167.05 43.15Q167.05 43.35 167.18 43.55Q167.30 43.75 167.35 43.85Q167.45 44.10 167.53 44.52Q167.60 44.95 167.70 46.45Q167.70 46.45 167.75 46.52Q167.80 46.60 167.80 46.65L167.60 47.15Q167.45 47.55 167.70 47.70L167.30 48.40Q167.25 48.45 167.40 48.60L167.10 48.95Q167.10 49.10 167.05 49.20L166.45 50.15L166.15 50.80Q166.05 51 165.57 51.70Q165.10 52.40 164.25 53.55L164 53.70Q163.80 54.05 163.28 54.50Q162.75 54.95 161.90 55.75L161.35 56.10Q161.30 56.10 161.25 56.30Q161.10 56.25 160.95 56.55Q160.75 56.55 160.45 56.85Q160.25 57.10 159.80 57.45Q159.35 57.80 158.65 58.30Q158.10 58.65 157.25 59.17Q156.40 59.70 155.25 60.35Q154.70 60.60 153.38 60.98Q152.05 61.35 150 61.90L149.75 62.10Q149.50 62.15 149.13 62.20Q148.75 62.25 148.20 62.35L147 62.60Q146.90 62.60 146.47 62.50Q146.05 62.40 145.95 62.40Q145.80 62.40 145.68 62.35Q145.55 62.30 145.45 62.30L145.25 62.10L144.90 62.60M166.70 33.45Q166.50 33.10 166.65 33.10Q166.95 33.10 167.10 33.15Q167.20 33.15 167.20 33L167.45 33Q167.50 32.95 167.55 32.90Q167.60 32.85 167.65 32.80Q167.85 32.80 168.80 32.25Q169 32.20 169.18 32.20Q169.35 32.20 169.45 32.20Q169.95 32.20 170.10 32.35L170.10 32.40Q170.10 32.55 169.65 32.67Q169.20 32.80 169.10 32.90Q169.05 32.95 168.70 33.05L168.30 33.15Q167.75 33.55 167.15 33.45Q166.95 33.35 166.70 33.45M157.40 38.50Q157.50 38.35 157.65 38.35Q157.70 38.35 157.75 38.40L157.85 38.40Q157.90 38.40 158.03 38.33Q158.15 38.25 158.20 38.25Q158.30 38.25 158.30 38.30L158.35 38.30Q158.65 38.30 159.30 37.90Q160.30 37.20 160.35 37.20L160.50 37.20Q160.55 37.05 160.85 36.73Q161.15 36.40 161.15 36.10Q161.15 35.75 160.75 35.10Q160.70 35.10 160.50 35Q160.50 35.05 160.47 34.95Q160.45 34.85 160.40 34.65L160.10 34.40Q160 34.40 159.85 34.40Q159.70 34.40 159.55 34.35Q159.35 33.90 159.40 33.85L159.65 33.60Q159 33.70 158.90 33.90Q158.80 34.10 158.65 34.25L158.25 34.35L157.35 35.05Q157.10 35.50 156.55 35.75Q156.45 35.90 156.32 36.13Q156.20 36.35 156.05 36.60Q156.10 36.80 155.95 37.05L155.95 37.60Q156.25 37.70 156.20 38Q156.45 38 156.50 38.05L156.50 38.20L156.65 38.20Q157.10 38.20 157.40 38.50M164.35 41.10Q164.40 41.10 164.40 41.10L164.35 41.10ZM169.45 45.25Q167.90 44.10 167.70 42.30Q167.65 42.25 167.63 42.20Q167.60 42.15 167.50 42.10Q167.50 41.90 167.47 41.70Q167.45 41.50 167.40 41.30Q167.20 40.55 167.10 38.75Q167.10 38.70 167.05 38.48Q167 38.25 167 38.15L167.05 38.10Q167.15 37.85 167 37.75L167.20 37.50Q167.20 37.50 167.10 37.40Q167.25 37 167.25 36.65Q167.25 36.55 167.13 36.42Q167 36.30 167 36.30Q166.90 36.30 166.90 36.40Q166.70 36.20 166.40 36.20Q166.35 36.20 166.25 36.25Q166.15 36.30 166.10 36.30Q166.05 36.30 165.95 36.25Q165.85 36.20 165.80 36.20Q165.75 36.20 165.75 36.25Q165.75 36.30 165.70 36.30Q165.60 36.30 165.40 35.95Q165.15 36.15 164.95 36.15Q164.80 36.15 164.25 35.80Q164.35 35.65 164.55 35.65Q164.75 35.65 164.85 35.75L165 35.55Q165.30 35.85 165.45 35.85Q165.55 35.85 165.75 35.65L165.90 35.65L165.90 35.90L167.35 35.90L167.60 35.40Q167.50 35.20 167.50 35.10Q167.50 34.75 167.80 34.17Q168.10 33.60 168.10 33.30Q168.40 33.10 168.35 32.90Q168.35 32.90 168.25 32.60Q168.40 32.45 168.40 32.30L168.50 32.40Q168.50 32.40 168.60 32.05L168.85 31.70Q168.85 31.40 169.15 31.10Q169.20 30.85 169.30 30.52Q169.40 30.20 169.65 29.85L170.45 28.70Q170.45 28.65 170.35 28.55Q170.60 27.75 170.95 27.45L171.50 27L171.50 26.85Q171.90 26.45 171.97 26.27Q172.05 26.10 172.25 25.82Q172.45 25.55 173.05 24.95Q173.15 24.90 173.32 24.77Q173.50 24.65 173.70 24.45L173.80 24.10Q174.05 24 174.25 23.80Q174.40 23.60 175.30 22.70Q175.30 22.70 175.35 22.70Q175.40 22.70 175.45 22.65Q175.75 22.25 176.35 22.05Q176.35 22.05 176.47 21.95Q176.60 21.85 176.75 21.50Q177.20 21.30 177.20 21.30L177.30 21.30Q177.30 21.35 177.35 21.35Q177.30 21.35 177.65 20.90Q178.15 20.65 178.40 20.65Q178.60 20.50 178.90 20.27Q179.20 20.05 179.55 19.70Q179.60 19.70 179.70 19.70Q179.80 19.70 179.90 19.65Q179.95 19.55 180.30 19.30Q180.40 19.30 180.63 19.25Q180.85 19.20 181.35 18.95Q181.90 18.65 181.95 18.65L182 18.65Q181.95 18.70 182.05 18.70Q182.10 18.70 182.10 18.60L182.55 18.60L182.70 18.40Q183.10 18.35 183.35 18.35Q183.60 18.35 183.80 18.30Q183.95 18.25 184.20 18.13Q184.45 18 184.50 18Q184.55 18 184.55 18.05Q184.55 18.10 184.60 18.10Q184.65 18.10 185.05 18Q185.45 17.90 185.55 17.90Q185.60 17.90 185.65 17.95Q185.70 18 185.80 18Q185.85 18 185.90 17.95Q185.95 17.90 186 17.90Q186.10 17.90 186.18 17.95Q186.25 18 186.30 18Q186.35 18 186.40 17.95L186.50 17.95Q186.60 17.95 186.72 18.02Q186.85 18.10 186.95 18.10Q187.10 18.10 187 18Q187.35 18 187.72 18.15Q188.10 18.30 188.10 18.30Q188.05 18.25 188.25 18.20Q188.50 18.45 188.55 18.45Q188.60 18.45 188.65 18.40Q188.70 18.35 188.75 18.35L188.90 18.50L189.25 18.50Q189.30 18.70 189.35 18.70L189.75 18.70Q189.70 19 189.90 19Q190 19 189.95 18.95L190 18.95Q190.10 18.95 190.20 19.13Q190.30 19.30 190.35 19.30Q190.35 19.25 190.60 19.20L190.80 19.45Q191.25 19.50 191.40 20.02Q191.55 20.55 191.70 20.60Q191.70 21.30 192.05 21.35L192.05 21.85Q191.95 21.95 191.95 22.15Q191.65 22.15 191.55 21.40L191.25 21.25Q191.25 21.05 190.80 20.10Q190 19.95 189.95 19.60Q189.85 19.65 189.75 19.65L189.75 19.65L189.70 19.65Q189.70 19.65 189.75 19.65Q189.75 19.55 189.30 19.50Q188.95 19.35 188.45 19.35Q188.40 19.35 188.22 19.50Q188.05 19.65 188 19.65L187.70 19.65L187.70 19.50Q187.60 19.40 187.55 19.40Q187.50 19.40 187.50 19.45Q187.50 19.50 187.45 19.50Q187.35 19.50 187.13 19.38Q186.90 19.25 186.85 19.25L186.15 19.30L185.70 19.80Q185.65 19.80 185.55 19.72Q185.45 19.65 185.40 19.65Q185.45 19.70 185.25 19.75L184.95 19.45Q184.40 19.95 184.20 19.95L184.15 19.95Q184.15 19.90 184.10 19.90Q184.05 19.90 183.80 20.17Q183.55 20.45 183.10 20.45Q182.80 20.45 182.55 20.20L181.45 21.45Q181.40 21.50 181.25 21.50Q181.20 21.50 181.20 21.45L181.15 21.45Q181.10 21.45 181.03 21.52Q180.95 21.60 180.70 21.60Q180.65 21.60 180.55 21.72Q180.45 21.85 180.40 21.85Q180.35 21.85 180.35 21.80L180.25 21.80Q180.20 21.80 179.90 22Q179.60 22.20 179.55 22.20L179.35 22.20Q179.35 22.35 179.30 22.45L178.80 22.85L178.80 23.15Q178.30 23.50 178 23.50L177.95 23.50Q177.95 23.45 177.90 23.45Q177.70 23.45 177 24.15L177 24.25Q177 24.30 176.82 24.45Q176.65 24.60 175.80 25.05Q175.75 25.15 175.53 25.25Q175.30 25.35 175.05 25.60Q174.80 25.60 174.45 26.10Q174.40 26.25 174 26.35Q173.75 26.55 173.45 26.88Q173.15 27.20 172.85 27.60Q172.75 28 172.20 28.30Q172.20 28.35 172.15 28.35Q172.10 28.35 171.70 28.75Q171.55 28.95 171.53 29.17Q171.50 29.40 171.45 29.50Q171.45 29.55 171.35 29.90Q171.25 30.25 170.90 30.30L170.70 30.60Q170.20 30.90 170.10 31.35Q169.95 31.35 169.80 31.75Q169.80 31.80 169.90 31.90Q169.85 32.10 169.55 32.15Q169.55 32.15 169.65 32.45Q169.60 32.55 169.55 32.73Q169.50 32.90 169.40 33.15Q169.40 33.15 169.40 33.25Q169.40 33.35 169.35 33.55L169.05 33.80Q169.05 33.95 168.60 34.80Q168.65 35 168.70 34.95L168.50 35.35L168.50 35.65Q168.90 35.50 169.10 35.50Q169.85 35.50 169.80 35.45L170.15 35.55L170.40 35.55L171.30 35.15Q171.55 34.95 171.55 34.95Q171.70 34.95 171.85 34.65Q172.20 34 172.65 33.45L172.65 33.20Q172.80 33.05 172.95 32.60L173.20 32.40Q173.20 32.25 173.35 31.95Q173.35 31.90 174.30 31.15L174.50 30.75Q174.70 30.70 174.90 30.35Q174.90 30.35 175 30.45Q175.65 30.05 175.55 30.05Q175.60 30.05 175.85 30.15Q176.10 30.25 176.15 30.25Q176.20 30.25 176.28 30.20Q176.35 30.15 176.45 30.15Q177.05 30.15 177.40 31.35L177.60 32.45Q177.65 32.60 177.65 33.05Q177.85 33.25 178.15 33.25L178.30 33.25Q178.45 33.05 178.85 32.95Q178.90 32.95 179.03 32.83Q179.15 32.70 179.20 32.70Q179.25 32.70 179.25 32.75L179.35 32.75Q179.40 32.75 179.40 32.70Q179.40 32.65 179.60 32.60Q179.75 32.60 179.90 32.55Q180.35 32.35 180.35 32.35L180.40 32.35Q180.45 32.40 180.50 32.40Q180.55 32.40 180.92 32.13Q181.30 31.85 181.35 31.85L181.40 31.85Q181.40 31.90 181.45 31.90L182.50 31.15Q183.45 30.65 183.70 30.65Q183.70 30.65 183.80 30.73Q183.90 30.80 183.95 30.80Q184 30.80 184.30 30.57Q184.60 30.35 184.70 30.30Q185.40 30 185.30 29.90Q185.65 29.95 186.75 29Q187.90 28 187.95 28Q188 28 188.03 28.05Q188.05 28.10 188.10 28.10Q188.20 28.10 188.90 27.25Q189.10 27.20 189.35 27.02Q189.60 26.85 190 26.25L190.35 25.95Q190.35 25.80 190.40 25.65Q190.45 25.65 190.55 25.55L190.55 25.30Q190.65 25.30 190.75 25.20Q191.15 24.75 191.35 23.95Q191.40 23.90 191.47 23.85Q191.55 23.80 191.60 23.70Q191.60 23.45 191.55 23.30Q191.75 23.20 191.75 22.80Q191.75 22.40 191.95 22.30L192.15 22.30L192.25 22.75Q192.25 22.80 192.20 22.85L192.20 22.90L191.90 23.65Q191.75 23.80 191.70 23.95Q191.70 24.05 191.85 24.05Q191.80 24.30 191.75 24.30Q191.70 24.30 191.57 24.50Q191.45 24.70 191.05 25.60Q191 25.80 190.88 25.95Q190.75 26.10 190.65 26.30Q190.60 26.35 190.35 26.55Q190.10 26.75 190.15 26.90Q190 27 189.80 27.22Q189.60 27.45 189.35 27.70Q189.30 27.70 189.20 27.60Q188.85 27.65 188.85 28.10Q188.80 28.10 188.75 28.05Q188.70 28.15 188.35 28.55Q188 28.95 187.80 28.95Q187.80 28.95 187.80 28.95L187.80 28.95Q187.70 28.90 187.65 28.90Q187.60 29.05 187.20 29.45L186.45 29.80Q186.40 29.80 186.40 29.90Q186.10 29.95 185.45 30.20Q185.40 30.40 184.40 30.75Q184.30 30.90 184.07 31.13Q183.85 31.35 183.45 31.35Q183.40 31.35 183.35 31.30L183.20 31.30Q182.85 31.45 182.72 31.73Q182.60 32 181.75 32.15Q181.30 32.60 181.15 32.60Q181.10 32.60 181.10 32.55L181.05 32.55Q181.10 32.55 180.55 32.85Q180.40 32.85 180.25 32.90Q179.40 33.25 179.45 33.25Q179.40 33.25 179.42 33.20Q179.45 33.15 179.35 33.15Q179.30 33.15 179.03 33.33Q178.75 33.50 178.70 33.50L178.65 33.50Q178.65 33.45 178.60 33.45Q178.40 33.45 178.15 33.73Q177.90 34 177.90 34.05Q177.65 34.05 177.60 33.85Q177.20 34.10 177.15 34.33Q177.10 34.55 177.05 34.80Q176.90 35.15 176.70 35.52Q176.50 35.90 176.10 36.30L175.15 37.25Q174.70 37.40 174.55 37.80L173.90 38.30Q173.90 38.30 173.80 38.20Q173.15 38.65 173.15 38.65Q173.15 38.65 173.15 38.65L173.15 38.65Q173.10 38.60 173.05 38.60L172.65 39.05Q172.65 39.30 177.25 40.60Q177.40 40.65 177.78 40.75Q178.15 40.85 179 40.85Q179.30 40.95 179.15 40.95Q179.25 40.95 179.25 40.90Q179.55 40.90 179.90 40.75Q180 40.75 180 40.80Q180 40.85 180.05 40.85L180.15 40.85L180.45 40.75L180.45 40.80Q181.40 40.60 181.55 40.20Q181.60 40 181.75 40.05Q181.85 40.25 181.80 40.40Q181.55 41.15 180.70 41.20L180.45 41.35Q180 41.50 180 41.55Q180.05 41.55 180.05 41.55Q180.05 41.55 180.05 41.55Q180.05 41.55 180 41.55Q179.95 41.50 179.85 41.48Q179.75 41.45 179.65 41.45Q179.60 41.45 179.45 41.58Q179.30 41.70 179.10 41.70L178.85 41.70Q178.75 41.75 178.65 41.75L178.30 41.65Q178.25 41.65 178.13 41.70Q178 41.75 177.90 41.75Q177.85 41.75 177.75 41.70Q177.65 41.65 177.60 41.65Q177.55 41.65 177.47 41.70Q177.40 41.75 177.35 41.75Q177.15 41.75 176.95 41.55Q176.75 41.75 176.60 41.75Q176.55 41.75 176.38 41.65Q176.20 41.55 176.10 41.55Q176.05 41.55 175.97 41.60Q175.90 41.65 175.85 41.65Q175.65 41.65 175.35 41.35Q175.30 41.35 175.15 41.30Q175 41.25 174.90 41.25Q174.85 41.25 174.78 41.30Q174.70 41.35 174.65 41.35Q174.60 41.35 174.40 41.17Q174.20 41 174.15 41Q174.10 41 174.05 41.05L173.95 41.05Q173.85 41.05 173.60 41.10Q173.35 41.15 173.30 41.25Q173.25 40.95 173.05 40.95L172.35 40.95Q172.25 40.95 172.17 40.90Q172.10 40.85 171.70 40.75Q171.60 40.60 171.45 40.50Q171.35 39.95 171.25 39.95Q171.20 39.95 171.07 39.98Q170.95 40 170.70 40.05Q170.60 40.25 170.42 40.58Q170.25 40.90 170.05 41.30Q170 41.35 170.10 41.70L169.95 41.90L169.95 42Q169.95 42.30 169.65 42.45Q169.65 42.45 169.70 42.60Q169.75 42.75 169.85 43.05Q169.95 43.30 169.85 43.45Q169.75 43.75 169.75 43.75Q169.75 43.85 169.85 43.88Q169.95 43.90 169.95 44.15Q169.95 44.25 169.88 44.45Q169.80 44.65 169.70 45.25L169.45 45.25M174.75 34.15L174.95 34.15Q175 34.15 175.13 34.08Q175.25 34 175.30 34Q175.35 34 175.35 34.05L175.45 34.05Q175.45 34.05 175.85 33.85L176.25 33.35Q176.40 33.10 176.40 32.95Q176.40 32.75 176.20 32.60Q176 32.75 175.80 32.85Q175.60 32.95 175.40 33.05Q175.20 33.15 174.92 33.45Q174.65 33.75 174.65 33.90Q174.65 34.05 174.75 34.15M171.25 38.80L171.50 38.80L172 38.55L172.30 38.10Q172.40 38.10 173 37.80Q173.65 37.50 173.65 37.45Q173.65 37.30 173.80 37.25Q173.95 37.15 174.10 37.02Q174.25 36.90 174.35 36.65Q174.55 36.65 174.65 36.38Q174.75 36.10 175 35.70L175.55 35.10Q175.55 34.60 175.50 34.65Q175.25 34.90 175.15 34.90Q174.75 34.90 174.75 34.90Q174.70 35 174.60 35Q174.55 35 174.38 34.92Q174.20 34.85 174.15 34.85Q174.15 34.85 173.90 35.25Q173.55 35.25 173.47 35.42Q173.40 35.60 173.25 35.70Q173.20 36 172.95 36Q172.90 36 172.85 35.92Q172.80 35.85 172.75 35.85Q172.60 35.85 172.55 35.90Q172.55 35.95 172.57 36Q172.60 36.05 172.55 36.50Q172.55 36.50 172.57 36.52Q172.60 36.55 172.60 36.60Q172.60 36.75 172.38 36.95Q172.15 37.15 172.15 37.25Q171.90 37.90 171.70 37.85L171.50 37.80Q171.65 38.25 171.70 38.25Q171.70 38.25 171.70 38.20L171.70 38.20Q171.70 38.20 171.70 38.20Q171.70 38.20 171.70 38.20Q171.70 38.25 171.70 38.25Q171.65 38.35 171.60 38.40Q171.35 38.40 171.25 38.50L171.25 38.80M174.80 34.85Q174.80 34.85 174.80 34.85Q174.80 34.85 174.80 34.85L174.80 34.85M169.25 44.15Q169.25 44 169.30 43.67Q169.35 43.35 169.35 43.20L169.30 42.80Q169.30 42.80 169.32 42.80Q169.35 42.80 169.40 42.75Q169.60 42.50 169.50 42.25Q169.50 42.20 169.55 42.20Q169.65 41.80 169.45 41.65Q169.60 41.40 169.55 41.30Q169.50 41.25 169.50 41.20L169.70 40.85L169.70 40.55Q169.70 40.55 169.80 40.45Q169.75 40.50 169.75 40.20Q169.90 40.10 170.05 39.90Q170 39.80 170 39.60Q170 39.40 169.95 39.20Q170.10 39 170.25 38.40Q170.20 38.25 170.25 37.95Q170.40 37.70 170.65 37.70Q170.65 37.30 170.60 37.15L170.75 36.65Q171.25 35.85 171.25 36.05Q171.25 35.90 171.05 35.85L170.90 35.85Q170.85 35.85 170.67 35.95Q170.50 36.05 170.45 36.05L169.90 36.05Q169.40 36.05 169.32 36.08Q169.25 36.10 169.20 36.15L169.10 36.15Q169.05 36.15 169.07 36.13Q169.10 36.10 169 36.05Q168.55 36.20 168.45 36.20L168.35 36.20Q168.30 36.45 168.15 36.85Q168 37.25 167.90 37.60Q168 37.70 167.90 37.95Q168.05 38.10 167.90 38.30L167.90 38.35Q168.10 38.75 168.10 39Q168.10 39.30 167.90 39.65Q167.85 39.70 167.70 39.70L167.70 40L167.80 40.35L167.80 41.05Q168.05 41.05 168.10 41.10Q168.05 41.30 168.03 41.52Q168 41.75 168 41.90Q168 42.55 168.40 42.80Q168.45 42.95 168.53 43.13Q168.60 43.30 168.85 43.40Q168.85 43.55 168.90 43.80Q168.95 44.05 169.25 44.15ZM186.65 44.15L186.65 44.15Q186.70 44.15 186.55 44Q186.45 44.10 186.10 44.10Q186 44.10 185.82 44.02Q185.65 43.95 185.60 43.95Q185.55 43.95 185.38 44Q185.20 44.05 185.10 44.05Q185.05 44.05 184.80 43.98Q184.55 43.90 184.45 43.90Q184.40 43.25 183.30 43.40L183.30 43.30Q183.30 42.95 183.15 42.75Q183 42.55 182.90 42.10Q182.85 42.05 182.72 41.88Q182.60 41.70 182.60 41.15Q182.60 41.15 182.70 40.95Q182.75 40.90 182.60 40.70Q182.65 40.65 182.80 39.90Q182.85 39.65 182.88 39.50Q182.90 39.35 182.90 39.25Q182.60 39 182.60 38.80L182.75 38.45Q182.80 38.50 183.10 38.50L183.30 38.50Q183.40 38.35 183.52 38.17Q183.65 38 183.85 37.80Q184.15 37.80 184.40 37.25L184.35 37.05Q184.40 36.95 184.45 36.90Q184.45 36.90 184.50 36.90Q184.50 36.90 184.50 36.90Q184.50 36.90 184.45 36.90Q184.50 36.90 184.60 36.95Q184.65 36.90 184.80 36.75Q184.95 36.60 185.30 36.35Q185.45 36.15 185.80 35.85Q186.40 35.45 186.47 35.45Q186.55 35.45 186.90 35.15Q187 35.20 187.05 35.23Q187.10 35.25 187.10 35.25Q187.20 35.25 187.90 34.90Q187.85 35.10 188 35.10L188.35 35.10Q188.60 34.95 188.60 34.95Q189.10 34.95 189.80 35.50Q189.85 35.55 189.95 35.55L189.95 36.35Q189.85 36.35 189.75 36.25L189.55 36.70Q189.75 37 189.75 37Q189.65 37.05 189.25 37.85L189.25 38.25Q189.05 38.25 188.90 38.30Q188.10 38.85 188 38.85L187.90 38.85Q187.85 38.80 187.80 38.80Q187.60 38.80 187.25 39Q187.20 39.05 187.10 39.17Q187 39.30 186.85 39.30L186.80 39.30Q186.80 39.25 186.75 39.25Q186.65 39.25 186.22 39.42Q185.80 39.60 185.75 39.60L185.65 39.60Q185.60 39.55 185.55 39.55L185.40 39.70L185.10 39.70Q184.90 39.70 184.80 39.60L184.15 39.60Q184.15 39.80 184.02 40.20Q183.90 40.60 183.90 40.65Q183.90 40.80 184.25 41.35Q184.30 41.40 184.45 41.58Q184.60 41.75 184.90 42Q185 42.20 185.20 42.40Q185.30 42.45 185.40 42.45Q185.50 42.45 185.65 42.50L185.80 42.70Q185.95 42.60 186.25 42.70L186.50 42.85Q186.75 42.85 186.75 42.85Q186.75 42.80 186.75 42.80Q186.80 42.85 186.75 42.85Q186.80 42.90 186.85 42.90Q186.90 42.90 186.97 42.83Q187.05 42.75 187.10 42.75L187.20 42.75Q187.20 42.80 187.25 42.80Q187.40 42.80 187.60 42.60Q187.75 42.65 187.90 42.60L187.95 42.65L187.95 42.80Q187.85 42.85 187.70 42.95Q187.55 43.05 187.30 43.15L187.30 43.35Q187.30 43.40 187.50 43.40Q188.35 43.40 188.85 42.90Q188.95 42.95 189 42.98Q189.05 43 189.05 43Q189.15 43 189.15 42.90L189.40 42.90Q189.50 42.85 189.70 42.63Q189.90 42.40 190.10 42.40L190.30 42.45L190.45 42.05L190.60 42.15Q190.70 42.05 191.05 42.05Q191.05 42.05 191.05 42Q191.05 41.95 191.10 41.90Q191.60 41.80 192.35 41.05L192.55 41.05L193.30 40.45Q193.30 40.35 193.45 40.15Q193.50 40.15 193.60 40.25L194.05 39.65Q194.20 39.65 194.40 39.50L194.55 39.65L194.20 40.10Q193.90 40.30 193.45 40.70Q193 41.10 192.45 41.65Q192.10 41.65 192.05 41.85Q191.60 42.05 191.45 42.30L191.30 42.15Q191.25 42.20 191.02 42.38Q190.80 42.55 190.30 42.80Q190.20 42.90 190 43.08Q189.80 43.25 189.60 43.25Q189.50 43.25 189.55 43.20L189.50 43.20Q189.30 43.20 189.10 43.35Q188.90 43.50 188.90 43.60Q188.85 43.60 188.75 43.50Q188.10 43.85 188 43.85L187.90 43.85L187.85 43.80L187.10 44Q187.10 44 187.10 43.95Q187.10 43.90 187.05 43.85L186.90 44.05Q186.85 44.05 186.77 44.10Q186.70 44.15 186.65 44.15Q186.65 44.15 186.65 44.15M185.45 39.10Q185.40 38.95 185.55 38.95Q185.60 38.95 185.60 39L185.70 39Q185.75 39 185.92 38.85Q186.10 38.70 186.15 38.70Q186.20 38.70 186.30 38.75Q186.40 38.80 186.45 38.80Q186.35 38.80 186.70 38.45L186.85 38.55Q188 37.80 188 37.25Q188 36.60 187.38 36.45Q186.75 36.30 186.20 36.15Q186.10 36.25 186 36.25Q185.75 36.65 185.45 36.85Q185.35 36.85 184.85 37.35Q184.85 37.40 184.55 37.80Q184.45 38.15 184.38 38.35Q184.30 38.55 184.30 38.65Q184.50 39 184.70 39L184.75 39Q184.80 38.95 184.85 38.95Q185.10 38.95 185.45 39.10M189.75 37Q189.75 37 189.75 37Q189.75 37 189.75 37L189.75 37M194.75 39.40L194.75 39.30Q194.75 39 195.05 38.95Q195 39.15 194.75 39.40ZM195.25 43.95Q195.10 43.95 195.00 43.70Q194.95 43.75 194.95 43.80L194.65 43.80L194.50 43.50Q194.45 43.55 194.45 43.60Q194.40 43.60 194.30 43.50L194.15 43.60Q193.90 43.35 193.62 42.92Q193.35 42.50 193.30 42.05Q193.25 42 193.10 42L193.10 41.60Q193.30 41.55 193.35 40.80L193.50 40.60L193.50 40.35L193.40 40.25L193.60 40.10L194.15 38.55L194.65 38L194.65 37.85Q195.25 37.45 195.40 37Q195.60 37 195.60 36.80Q196.25 36.60 196.10 36.15Q196.20 36.10 196.22 36.10Q196.25 36.10 196.25 36.10Q196.30 36.10 196.45 36.17Q196.60 36.25 196.65 36.25Q196.75 36.25 196.82 36.20Q196.90 36.15 196.95 36.15Q197.15 36.35 197.20 36.35Q197.45 36.35 197.70 36.15Q197.70 36.20 197.75 36.30Q197.80 36.40 197.80 36.45Q197.80 36.70 197.60 36.90L197.75 37.10Q197.75 37.45 197.15 38.20Q196.55 38.85 196.30 38.95Q196.25 39 196.20 39.13Q196.15 39.25 196.05 39.35L195.95 39.35L195.85 39.25L195.35 39.90Q195.35 40.10 194.95 40.65Q194.80 40.70 194.72 40.67Q194.65 40.65 194.65 40.70L194.65 41.05Q194.90 41.50 194.85 41.65Q194.70 41.95 194.70 42Q194.70 41.95 195.00 42.40Q194.95 42.45 194.95 42.75Q195.35 42.80 196.00 43.20L196.20 43.20Q196.40 43.20 196.47 43.13Q196.55 43.05 196.55 43.05Q196.60 43.05 196.60 43.10L196.65 43.10Q196.70 43.10 196.90 42.90Q197.10 42.70 197.15 42.70Q197.20 42.70 197.20 42.75Q197.20 42.80 197.25 42.80Q197.30 42.80 197.45 42.75Q197.60 42.70 197.70 42.70L197.70 42.55Q197.65 42.50 197.70 42.50L197.70 42.55Q197.75 42.60 198.05 42.70L198.00 42.50Q198.15 42.45 198.25 42.20Q198.50 42.20 198.72 42.13Q198.95 42.05 198.95 41.90L199.35 41.90Q199.35 42 199.45 42Q199.95 42 200.00 41.35L200.30 41.05Q200.30 41.05 200.40 41.15Q200.60 40.95 200.75 40.95Q200.80 40.95 200.82 41Q200.85 41.05 200.95 41.05Q201.10 41.05 201.25 40.90Q201.40 40.75 201.40 40.70Q201.50 40.60 201.65 40.50Q201.80 40.40 201.90 40.20L202.20 40.35Q202.15 40.30 203.25 39.45Q203.75 39.25 203.75 39.15Q203.95 39.15 204.15 39L204.15 38.85L204.85 38.50L204.85 38.80L204.60 38.80Q204.55 38.85 204.55 39.10L203.40 40Q203.30 40 203.35 39.95L203.30 39.95Q203.35 39.95 202.85 40.45Q202.75 40.55 202.45 40.55Q201.80 41.15 201.95 41.10Q201.95 41.10 201.95 41.10L201.95 41.10Q201.90 41.05 201.85 41.05Q201.80 41.10 201.80 41.25L201.75 41.25Q201.55 41.25 201.15 41.65Q201.10 41.65 201.00 41.65Q200.90 41.65 200.80 41.70Q200.60 41.85 200.32 42.08Q200.05 42.30 199.70 42.60L199.40 42.60Q199.05 42.90 198.90 42.90L198.75 42.90Q198.70 42.85 198.65 42.85Q198.60 42.85 198.27 43.05Q197.95 43.25 197.85 43.25L197.80 43.25Q197.80 43.20 197.75 43.20Q197.70 43.20 197.37 43.38Q197.05 43.55 197.00 43.55L196.95 43.55Q196.95 43.50 196.85 43.50Q196.80 43.50 196.72 43.55Q196.65 43.60 196.45 43.65Q195.95 43.90 196.15 43.90Q196.10 43.90 195.85 43.85Q195.60 43.80 195.50 43.80L195.25 43.95M205.25 38.40Q205.20 38.40 205.17 38.33Q205.15 38.25 205.10 38.25L205.80 37.50Q206.00 37.50 206.00 37.60Q206.00 37.80 205.67 38.08Q205.35 38.35 205.25 38.40M198.70 34.40Q198.30 34.40 197.60 33.85Q197.00 33.25 197.00 32.90Q197.60 32.65 198.32 32.33Q199.05 32 199.85 31.60L199.90 31.60Q199.70 32.15 199.35 32.50L199.45 32.85L199.45 33.15L199.20 33.45Q199.20 34.40 198.70 34.40ZM202.00 52.50Q201.90 52.60 201.80 52.40Q201.80 52.25 201.85 51.95Q201.90 51.65 201.95 51.50L202.60 49.05Q202.60 48.85 202.60 48.60Q202.60 48.35 202.65 48.10Q202.75 48 202.85 47.88Q202.95 47.75 203.05 47.55L202.90 47.10Q202.90 47 203.15 46.85Q202.95 46.65 203.05 46.35L203.45 45.25Q203.30 45.35 203.05 45.65Q202.95 45.55 202.80 45.50Q202.85 45.40 202.70 45.15L202.85 44.50Q203.20 44.30 203.20 44L203.15 43.55Q203.35 43.35 203.55 43Q203.50 42.95 203.50 42.75Q203.55 42.30 203.67 41.92Q203.80 41.55 203.75 41.50L203.75 41.15L204.05 40.25Q203.95 40.15 203.95 40.10Q204.05 39.85 204.30 39.60L204.30 39.30L204.60 39.10L204.60 38.60Q204.75 38.60 204.80 38.55Q204.65 38.40 204.60 38.25Q205.15 38 204.85 37.60L205.00 36.95Q205.00 36.95 205.30 36.85Q205.25 36.65 205.20 36.65L205.45 36.40Q205.40 36.30 205.40 36.05L205.70 35L205.55 34.85Q205.65 34.60 205.75 34.23Q205.85 33.85 206.05 33.35L205.70 33.35Q205.65 33.35 205.60 33.42Q205.55 33.50 205.50 33.50Q205.40 33.50 205.45 33.45L205.40 33.45Q205.25 33.45 205.20 33.65Q205.20 33.55 205.15 33.55Q205.05 33.60 204.60 33.85Q204.55 33.85 204.42 33.88Q204.30 33.90 204.15 33.95Q203.25 34.30 203.30 34.30Q203.25 34.30 203.15 34.15Q203.05 33.90 203.15 33.80Q203.10 33.70 203.10 33.40Q203.30 33.20 203.65 32.55Q203.90 32.55 204.25 32.20Q204.25 32.30 204.35 32.40Q204.35 32.35 204.40 32.30Q204.70 32.30 204.75 32.35L205.60 31.95Q205.60 32 205.70 32.10L205.85 32Q205.80 32.15 205.85 32.15Q205.95 32.15 206.45 31.70L206.80 31.40Q206.80 31.35 206.75 31.35L207.30 29.95Q207.25 29.95 207.15 29.85L207.35 29.70Q207.45 29.55 207.55 29.35Q207.65 29.15 207.75 28.95Q207.75 28.75 207.75 28.50Q207.75 28.25 207.80 28Q207.85 27.95 208.07 27.55Q208.30 27.15 208.35 26.95Q208.45 26.75 208.60 26.38Q208.75 26 208.90 25.25Q209.10 25.05 209.40 24.25Q209.40 24.35 209.45 24.35Q209.55 24.25 209.65 24.05Q209.70 23.90 209.55 23.60L209.65 23.55Q209.65 23.55 209.75 23.25Q209.80 23.20 209.87 23.15Q209.95 23.10 210.00 23L210.45 21.70L210.50 21.75L210.60 21.75Q210.65 21.70 210.55 21.65L210.75 21.45Q210.75 21.35 210.75 21.25Q210.75 21.15 210.80 21Q210.90 20.90 211.02 20.77Q211.15 20.65 211.35 20.45L211.50 20.45Q211.50 20.45 211.50 20.47Q211.50 20.50 211.55 20.55Q211.75 20.50 211.95 20.20Q211.95 20.20 211.97 20.20Q212.00 20.20 212.05 20.25Q212.45 20.30 212.45 20.30Q212.45 20.30 212.60 20.30L212.85 20.30Q213.25 20.30 213.40 20.45L213.65 20.45Q213.75 20.55 213.75 20.70L213.65 21.05Q213.50 21.60 213.35 21.90Q213.20 22.20 212.90 22.65L212.65 23Q212.55 23.25 212.37 23.65Q212.20 24.05 212.00 24.60Q211.95 24.60 211.92 24.60Q211.90 24.60 211.85 24.80L211.70 25.15Q211.70 25.25 211.35 25.75Q211.25 25.85 211.20 26.40L210.80 27.35Q210.85 27.40 210.85 27.45Q210.50 27.70 210.40 27.70Q210.30 27.70 210.20 27.60L210.40 27.10L210.35 27.05Q210.25 27.15 210.25 27.20Q210.05 27.30 210.00 27.45L209.55 28.65L209.20 29.30L208.55 31.15Q208.45 31.45 208.55 31.55Q208.55 31.55 208.75 31.45Q209.00 31.85 208.80 31.85Q209.05 31.85 209.10 31.85Q209.15 31.85 209.05 31.80Q209.10 31.75 209.27 31.65Q209.45 31.55 210.00 31.40Q210.05 31.60 210.15 31.60Q210.25 31.60 210.55 31.42Q210.85 31.25 210.90 31.25Q210.90 31.25 210.97 31.30Q211.05 31.35 211.15 31.45L211.30 31.35L212.45 31Q212.45 31 212.45 31L212.45 31Q212.45 31 212.50 31.15Q212.60 31.10 212.65 31.07Q212.70 31.05 212.70 31.05Q212.75 31.05 212.85 31.15Q213.45 30.75 214.05 30.55Q214.10 30.55 214.10 30.60L214.15 30.60Q214.20 30.60 214.47 30.50Q214.75 30.40 214.85 30.40Q214.85 30.50 214.70 30.65Q214.40 30.70 214.12 30.98Q213.85 31.25 213.80 31.25L213.75 31.25Q213.80 31.20 213.75 31.20Q213.90 31.20 212.30 31.65Q212.15 31.70 211.70 31.92Q211.25 32.15 211.20 32.15L210.40 32.40Q210.35 32.40 210.40 32.35Q210.40 32.30 210.35 32.30Q210.30 32.30 210.27 32.38Q210.25 32.45 210.20 32.45Q209.05 32.45 208.80 32.85L208.65 32.85Q208.60 32.85 208.52 32.80Q208.45 32.75 208.35 32.75Q208.20 32.75 207.95 33Q207.90 33.20 207.80 33.45Q207.70 33.70 207.60 34.05Q207.60 34.05 207.25 35.05Q207.05 35.60 206.85 36.17Q206.65 36.75 206.40 37.30Q206.35 37.50 206.25 37.85Q206.15 38.20 206.05 38.65Q205.65 40.25 204.70 43.10Q204.55 43.50 204.40 43.75Q204.45 43.80 204.45 44.10Q204.40 44.20 204.35 44.35Q204.30 44.50 204.20 44.60L204.20 44.80Q204.20 44.95 203.90 45.50Q204.00 45.85 203.90 45.95Q203.55 47.35 203.25 47.70L203.25 47.85Q203.25 48 203.20 48.23Q203.15 48.45 203.05 48.70Q202.85 49.50 202.60 50.42Q202.35 51.35 202.05 52.45L202.00 52.50M210.85 27.45Q210.85 27.45 210.85 27.45L210.85 27.45M205.20 36.65Q205.20 36.60 205.20 36.65L205.20 36.65Z"/></g></g></svg>