<?xml version="1.0" standalone="no"?>
<!DOCTYPE svg PUBLIC "-//W3C//DTD SVG 20010904//EN"
 "http://www.w3.org/TR/2001/REC-SVG-20010904/DTD/svg10.dtd">
<svg version="1.0" xmlns="http://www.w3.org/2000/svg"
 width="300.000000pt" height="304.000000pt" viewBox="0 0 300.000000 304.000000"
 preserveAspectRatio="xMidYMid meet">
<metadata>
Created by potrace 1.10, written by Peter Selinger 2001-2011
</metadata>
<g transform="translate(0.000000,304.000000) scale(0.100000,-0.100000)"
fill="#000000" stroke="none">
<path d="M216 2754 c-11 -29 -7 -199 6 -212 8 -8 50 -12 122 -12 101 0 186
-12 186 -26 0 -3 -30 -39 -67 -79 -106 -114 -168 -230 -161 -299 2 -19 9 -32
19 -34 9 -2 50 21 91 50 69 50 225 138 245 138 4 0 6 -44 4 -97 l-3 -98 -84
-140 c-126 -210 -149 -299 -108 -417 13 -37 19 -80 18 -141 l0 -88 -82 -158
c-128 -249 -136 -314 -67 -606 42 -182 67 -234 122 -261 36 -17 92 -17 1088
-15 1145 2 1089 -1 1135 59 40 50 45 91 31 272 -18 251 -59 511 -123 770 -40
164 -41 245 -3 360 51 156 34 206 -106 314 l-89 69 0 57 c0 65 -22 103 -65
114 -23 6 -25 10 -25 70 0 58 -3 67 -26 85 -22 17 -41 21 -99 21 -69 0 -75 -2
-99 -31 -21 -25 -26 -41 -26 -85 0 -43 -4 -56 -17 -61 -46 -16 -63 -45 -64
-107 l0 -61 -95 -73 c-144 -112 -157 -153 -104 -319 39 -120 38 -166 -5 -349
-19 -82 -37 -168 -41 -192 l-7 -42 -126 0 c-69 0 -135 -3 -146 -6 -19 -5 -20
0 -20 103 -1 117 -12 171 -57 273 -41 91 -58 171 -58 276 l0 90 -75 123 -75
122 0 119 0 119 93 3 c87 3 92 4 92 25 0 29 -142 201 -208 251 -73 56 -162 99
-253 122 -68 18 -111 20 -370 20 -257 0 -293 -2 -298 -16z m174 -104 l0 -60
-60 0 -60 0 0 60 0 60 60 0 60 0 0 -60z m479 45 c112 -27 196 -78 299 -183 50
-51 92 -97 92 -101 0 -4 -29 -5 -65 -3 -94 6 -95 5 -95 -149 l0 -129 -190 0
-190 0 0 103 c0 118 -8 155 -49 219 -37 59 -99 104 -168 124 l-53 15 0 60 0
59 178 0 c122 0 197 -5 241 -15z m-234 -297 c18 -33 24 -53 17 -56 -44 -14
-195 -96 -234 -125 -27 -20 -48 -33 -48 -28 0 29 77 136 164 229 56 59 58 59
101 -20z m1609 -24 c3 -9 6 -33 6 -55 l0 -39 -70 0 -70 0 0 48 c0 27 3 52 7
55 3 4 32 7 64 7 43 0 58 -4 63 -16z m84 -206 l3 -48 -155 0 -156 0 0 38 c0
60 8 63 165 60 l140 -3 3 -47z m-1157 -187 c33 -51 59 -94 59 -95 0 0 -139 -1
-310 -1 -171 0 -310 1 -310 3 0 2 25 46 56 98 l57 94 195 -2 194 -3 59 -94z
m1275 4 c123 -99 128 -112 83 -250 -42 -131 -42 -205 -1 -375 70 -285 117
-593 128 -828 6 -133 6 -138 -16 -166 -34 -41 -78 -56 -170 -56 -76 0 -81 1
-75 19 4 13 -16 71 -53 160 l-59 139 25 19 c20 15 26 30 30 74 4 52 2 59 -26
90 l-30 34 -346 3 -346 3 0 44 0 45 264 0 263 0 27 26 c38 38 36 95 -3 135
l-29 29 -170 0 -169 0 44 193 c50 221 52 277 9 412 -44 139 -37 159 93 260
l84 65 175 0 175 0 93 -75z m-1193 -257 c7 -109 18 -155 62 -253 15 -33 33
-89 41 -125 17 -80 19 -271 3 -287 -6 -6 -24 -56 -39 -110 -27 -96 -28 -98
-59 -101 l-31 -3 0 173 c0 154 -2 177 -20 205 -37 62 -48 64 -268 64 -160 0
-206 -3 -230 -15 -23 -12 -48 -52 -122 -198 -114 -224 -119 -255 -76 -439 30
-125 35 -137 86 -168 33 -20 49 -21 248 -21 l212 0 -20 -40 c-26 -51 -25 -90
2 -125 l21 -27 -29 6 c-16 3 -105 12 -199 21 -363 33 -360 33 -390 78 -22 35
-95 366 -95 434 0 90 23 160 106 321 103 201 113 268 63 434 -24 78 -18 126
26 222 l26 56 338 0 338 0 6 -102z m-124 -503 c16 -8 31 -22 35 -30 3 -9 6
-91 6 -181 l0 -164 -31 -28 c-42 -38 -52 -110 -21 -152 l22 -29 -25 -53 c-14
-29 -25 -59 -25 -65 0 -10 -52 -13 -224 -13 -276 0 -263 -6 -297 145 -37 168
-34 182 68 385 63 122 97 179 114 187 37 19 341 18 378 -2z m981 -176 c9 -15
8 -24 -1 -35 -9 -11 -59 -14 -283 -14 -198 0 -275 -3 -284 -12 -7 -7 -12 -39
-12 -75 l0 -63 -91 0 c-73 0 -90 3 -86 14 3 7 15 47 27 87 36 125 16 119 397
119 315 0 323 0 333 -21z m158 -271 c7 -7 12 -26 12 -42 0 -65 34 -61 -557
-58 -363 2 -541 6 -550 14 -18 15 -16 63 3 82 14 14 77 16 548 16 400 0 535
-3 544 -12z m-948 -165 c-1 -5 -20 -73 -44 -153 l-44 -145 -73 0 c-63 0 -74 3
-77 18 -2 10 19 71 46 135 27 64 52 125 55 135 5 14 18 17 72 17 36 0 65 -3
65 -7z m554 -120 c10 -71 20 -141 23 -156 l6 -28 -83 3 -84 3 3 66 c2 70 -11
95 -43 83 -13 -5 -16 -21 -16 -80 l0 -74 -86 0 c-74 0 -85 2 -80 16 3 8 11 55
18 105 9 70 9 92 0 101 -9 9 -17 10 -30 2 -12 -8 -21 -39 -31 -118 l-14 -106
-85 0 c-76 0 -83 2 -77 18 4 9 26 79 48 155 l41 137 236 0 236 0 18 -127z
m409 -13 c70 -167 69 -170 -33 -170 l-67 0 -28 98 c-29 104 -42 126 -68 116
-23 -8 -21 -25 8 -119 14 -44 25 -83 25 -87 0 -5 -36 -8 -80 -8 -44 0 -80 2
-80 4 0 12 -42 274 -46 289 -5 16 7 17 153 17 l158 0 58 -140z"/>
<path d="M607 2643 c-13 -12 -7 -41 9 -47 48 -18 103 5 90 39 -6 15 -86 22
-99 8z"/>
<path d="M784 2635 c-11 -28 3 -40 78 -62 41 -12 99 -38 128 -58 58 -39 83
-41 88 -9 4 25 -66 74 -156 109 -82 33 -131 40 -138 20z"/>
<path d="M2044 1986 c-13 -34 4 -47 53 -44 44 3 48 5 48 28 0 23 -4 25 -48 28
-35 2 -49 -1 -53 -12z"/>
<path d="M2224 1985 c-12 -30 4 -45 46 -45 34 0 52 -8 99 -44 31 -24 63 -51
70 -60 27 -32 70 -10 55 28 -3 8 -41 41 -84 75 -73 56 -83 61 -130 61 -36 0
-52 -4 -56 -15z"/>
<path d="M2105 1633 c-80 -111 -119 -194 -118 -252 3 -181 249 -253 349 -101
31 47 40 105 24 156 -24 77 -157 274 -185 274 -7 0 -39 -35 -70 -77z m113 -60
c99 -146 113 -215 56 -274 -38 -40 -82 -53 -133 -39 -77 20 -117 102 -86 176
15 36 113 194 121 194 2 0 21 -26 42 -57z"/>
<path d="M1140 1735 c-19 -23 -1 -79 27 -83 26 -4 33 15 24 59 -8 37 -31 48
-51 24z"/>
<path d="M1156 1585 c-3 -9 8 -51 25 -93 17 -42 37 -92 43 -110 16 -42 29 -54
49 -46 24 9 21 36 -11 112 -16 37 -35 85 -43 107 -16 43 -51 60 -63 30z"/>
</g>
</svg>
