<?xml version="1.0" encoding="UTF-8"?>
<svg width="24" height="24" viewBox="0 0 24 24" fill="none" xmlns="http://www.w3.org/2000/svg">
  <path d="M4 21V14M4 14V4C4 3.44772 4.44772 3 5 3H9C9.55228 3 10 3.44772 10 4V14M4 14H10M10 14V21" stroke="currentColor" stroke-width="2" stroke-linecap="round"/>
  <path d="M14 21V12M14 12V7C14 6.44772 14.4477 6 15 6H19C19.5523 6 20 6.44772 20 7V12M14 12H20M20 12V21" stroke="currentColor" stroke-width="2" stroke-linecap="round"/>
  <path d="M7 7H7.01M7 10H7.01M7 17H7.01M17 9H17.01M17 15H17.01M17 18H17.01" stroke="currentColor" stroke-width="2" stroke-linecap="round"/>
</svg> 